<?xml version="1.0" encoding="UTF-8" standalone="no"?>
<svg width="60px" height="60px" viewBox="0 0 60 60" version="1.1" xmlns="http://www.w3.org/2000/svg" xmlns:xlink="http://www.w3.org/1999/xlink">
	<g id="icon" fill="#4990E2">
			<path d="M53.3333333,16.6666667 C53.3333333,17.5870833 52.5870833,18.3333333 51.6666667,18.3333333 L43.3333333,18.3333333 C42.4129167,18.3333333 41.6666667,17.5870833 41.6666667,16.6666667 L41.6666667,8.33333333 C41.6666667,7.41291667 42.4129167,6.66666667 43.3333333,6.66666667 L51.6666667,6.66666667 C52.5870833,6.66666667 53.3333333,7.41291667 53.3333333,8.33333333 L53.3333333,16.6666667 L53.3333333,16.6666667 Z M53.3333333,51.6666667 C53.3333333,52.5870833 52.5870833,53.3333333 51.6666667,53.3333333 L8.33333333,53.3333333 C7.41291667,53.3333333 6.66666667,52.5870833 6.66666667,51.6666667 L6.66666667,25 L12.3570833,25 C11.9075,26.589375 11.6666667,28.2666667 11.6666667,30 C11.6666667,40.1252083 19.8747917,48.3333333 30,48.3333333 C40.1252083,48.3333333 48.3333333,40.1252083 48.3333333,30 C48.3333333,28.2666667 48.0925,26.589375 47.6429167,25 L53.3333333,25 L53.3333333,51.6666667 L53.3333333,51.6666667 Z M30,18.3333333 C36.4433333,18.3333333 41.6666667,23.5566667 41.6666667,30 C41.6666667,36.4433333 36.4433333,41.6666667 30,41.6666667 C23.5566667,41.6666667 18.3333333,36.4433333 18.3333333,30 C18.3333333,23.5566667 23.5566667,18.3333333 30,18.3333333 L30,18.3333333 Z M51.6666667,0 L8.33333333,0 C3.73104167,0 0,3.73104167 0,8.33333333 L0,51.6666667 C0,56.2689583 3.73104167,60 8.33333333,60 L51.6666667,60 C56.2689583,60 60,56.2689583 60,51.6666667 L60,8.33333333 C60,3.73104167 56.2689583,0 51.6666667,0 L51.6666667,0 Z" id="Fill-1"></path>
	</g>
</svg>