<?xml version="1.0" encoding="UTF-8" standalone="no"?>
<svg width="218px" height="85px" viewBox="0 0 218 85" version="1.1" xmlns="http://www.w3.org/2000/svg" xmlns:xlink="http://www.w3.org/1999/xlink">
	<title>The University of Rhode Island</title>
	<style>
		<![CDATA[
		#wrapper { fill: none; pointer-events: all;}
		#wrapper:hover #U-1, #wrapper:hover #R-6, #wrapper:hover #I-8 { fill: #ECC81F; transition: fill 150ms cubic-bezier(.3, .6, .6, 1); }
		]]>
	</style>
	<a xlink:href="https://www.uri.edu" target="_parent" id="link">
		<g id="wrapper">
			<g id="URI-logo">
				<path d="M3.698,39.567 C3.698,34.763 3.698,33.878 3.635,32.867 C3.571,31.792 3.318,31.286 2.275,31.065 C2.022,31.002 1.485,30.971 1.043,30.971 C0.695,30.971 0.505,30.907 0.505,30.686 C0.505,30.465 0.727,30.401 1.201,30.401 C2.876,30.401 4.867,30.496 5.815,30.496 C6.574,30.496 8.565,30.401 9.703,30.401 C10.177,30.401 10.398,30.465 10.398,30.686 C10.398,30.907 10.209,30.971 9.893,30.971 C9.545,30.971 9.355,31.002 8.976,31.065 C8.123,31.224 7.87,31.761 7.807,32.867 C7.743,33.878 7.743,34.763 7.743,39.567 L7.743,43.993 C7.743,48.575 8.66,50.503 10.209,51.768 C11.631,52.937 13.085,53.064 14.16,53.064 C15.55,53.064 17.257,52.621 18.521,51.357 C20.26,49.618 20.354,46.774 20.354,43.518 L20.354,39.567 C20.354,34.763 20.354,33.878 20.291,32.867 C20.228,31.792 19.975,31.286 18.932,31.065 C18.679,31.002 18.142,30.971 17.794,30.971 C17.446,30.971 17.257,30.907 17.257,30.686 C17.257,30.465 17.479,30.401 17.921,30.401 C19.533,30.401 21.524,30.496 21.556,30.496 C21.935,30.496 23.926,30.401 25.159,30.401 C25.601,30.401 25.822,30.465 25.822,30.686 C25.822,30.907 25.633,30.971 25.253,30.971 C24.906,30.971 24.716,31.002 24.337,31.065 C23.483,31.224 23.23,31.761 23.167,32.867 C23.104,33.878 23.104,34.763 23.104,39.567 L23.104,42.95 C23.104,46.458 22.757,50.187 20.102,52.463 C17.857,54.391 15.582,54.739 13.527,54.739 C11.853,54.739 8.818,54.644 6.511,52.558 C4.899,51.104 3.698,48.766 3.698,44.183 L3.698,39.567" id="U-1" fill="#B88F20"></path>
				<path d="M33.354,49.998 C33.417,52.463 33.828,53.285 34.46,53.506 C34.997,53.696 35.598,53.728 36.104,53.728 C36.451,53.728 36.641,53.791 36.641,53.98 C36.641,54.232 36.356,54.297 35.914,54.297 C33.859,54.297 32.595,54.202 31.994,54.202 C31.71,54.202 30.225,54.297 28.581,54.297 C28.17,54.297 27.886,54.265 27.886,53.98 C27.886,53.791 28.075,53.728 28.392,53.728 C28.802,53.728 29.371,53.696 29.813,53.569 C30.636,53.317 30.762,52.399 30.793,49.65 L31.078,30.939 C31.078,30.307 31.173,29.864 31.489,29.864 C31.836,29.864 32.121,30.275 32.658,30.844 C33.038,31.255 37.842,36.407 42.456,40.99 C44.605,43.139 48.873,47.69 49.41,48.196 L49.568,48.196 L49.252,34.005 C49.22,32.077 48.936,31.477 48.177,31.16 C47.703,30.971 46.944,30.971 46.502,30.971 C46.123,30.971 45.996,30.876 45.996,30.686 C45.996,30.433 46.344,30.401 46.818,30.401 C48.462,30.401 49.979,30.496 50.643,30.496 C50.99,30.496 52.191,30.401 53.74,30.401 C54.151,30.401 54.467,30.433 54.467,30.686 C54.467,30.876 54.277,30.971 53.898,30.971 C53.582,30.971 53.329,30.971 52.95,31.065 C52.064,31.318 51.812,31.981 51.78,33.752 L51.433,53.696 C51.433,54.391 51.307,54.676 51.021,54.676 C50.674,54.676 50.295,54.328 49.947,53.98 C47.956,52.084 43.91,47.943 40.623,44.688 C37.178,41.274 33.67,37.323 33.101,36.723 L33.006,36.723 L33.354,49.998" id="N-2" fill="#B88F20"></path>
				<path d="M61.113,39.567 C61.113,34.763 61.113,33.878 61.05,32.867 C60.987,31.792 60.671,31.255 59.976,31.097 C59.628,31.002 59.217,30.971 58.837,30.971 C58.521,30.971 58.332,30.907 58.332,30.654 C58.332,30.465 58.585,30.401 59.091,30.401 C60.291,30.401 62.283,30.496 63.199,30.496 C63.989,30.496 65.854,30.401 67.056,30.401 C67.466,30.401 67.719,30.465 67.719,30.654 C67.719,30.907 67.529,30.971 67.213,30.971 C66.897,30.971 66.645,31.002 66.265,31.065 C65.412,31.224 65.159,31.761 65.096,32.867 C65.032,33.878 65.032,34.763 65.032,39.567 L65.032,45.131 C65.032,48.196 65.032,50.693 65.159,52.052 C65.254,52.906 65.475,53.475 66.423,53.601 C66.865,53.664 67.561,53.728 68.035,53.728 C68.383,53.728 68.541,53.821 68.541,53.98 C68.541,54.202 68.288,54.297 67.94,54.297 C65.854,54.297 63.863,54.202 63.01,54.202 C62.283,54.202 60.291,54.297 59.027,54.297 C58.616,54.297 58.395,54.202 58.395,53.98 C58.395,53.821 58.521,53.728 58.9,53.728 C59.375,53.728 59.754,53.664 60.039,53.601 C60.671,53.475 60.86,52.937 60.955,52.021 C61.113,50.693 61.113,48.196 61.113,45.131 L61.113,39.567" id="I-3" fill="#B88F20"></path>
				<path d="M72.892,33.499 C72.164,31.761 71.627,31.413 70.489,31.097 C70.015,30.971 69.51,30.971 69.257,30.971 C68.972,30.971 68.877,30.876 68.877,30.686 C68.877,30.433 69.225,30.401 69.699,30.401 C71.374,30.401 73.176,30.496 74.282,30.496 C75.072,30.496 76.589,30.401 78.17,30.401 C78.549,30.401 78.896,30.465 78.896,30.686 C78.896,30.907 78.707,30.971 78.423,30.971 C77.917,30.971 77.443,31.002 77.19,31.192 C76.969,31.35 76.874,31.571 76.874,31.855 C76.874,32.267 77.158,33.151 77.601,34.289 L83.037,48.638 L83.163,48.638 C84.522,45.161 88.631,34.984 89.39,32.898 C89.548,32.488 89.675,32.014 89.675,31.729 C89.675,31.477 89.548,31.224 89.264,31.128 C88.885,31.002 88.41,30.971 87.999,30.971 C87.715,30.971 87.462,30.939 87.462,30.718 C87.462,30.465 87.746,30.401 88.347,30.401 C89.927,30.401 91.255,30.496 91.666,30.496 C92.203,30.496 93.688,30.401 94.637,30.401 C95.048,30.401 95.301,30.465 95.301,30.686 C95.301,30.907 95.111,30.971 94.795,30.971 C94.479,30.971 93.815,30.971 93.246,31.35 C92.835,31.634 92.361,32.172 91.508,34.194 C90.275,37.165 89.422,38.872 87.715,42.76 C85.692,47.374 84.206,50.82 83.512,52.399 C82.689,54.232 82.5,54.739 82.057,54.739 C81.646,54.739 81.457,54.297 80.856,52.811 L72.892,33.499" id="V-4" fill="#B88F20"></path>
				<path d="M99.64,39.567 C99.64,34.763 99.64,33.878 99.577,32.867 C99.514,31.792 99.261,31.286 98.218,31.065 C97.965,31.002 97.427,30.971 96.985,30.971 C96.638,30.971 96.448,30.907 96.448,30.686 C96.448,30.465 96.669,30.401 97.143,30.401 C97.996,30.401 98.913,30.433 99.703,30.433 C100.525,30.465 101.252,30.496 101.694,30.496 C102.706,30.496 108.996,30.496 109.597,30.465 C110.197,30.401 110.702,30.338 110.955,30.275 C111.113,30.243 111.303,30.149 111.461,30.149 C111.619,30.149 111.65,30.275 111.65,30.433 C111.65,30.654 111.492,31.034 111.398,32.488 C111.366,32.804 111.303,34.194 111.24,34.573 C111.208,34.731 111.146,34.922 110.924,34.922 C110.702,34.922 110.64,34.763 110.64,34.479 C110.64,34.258 110.607,33.72 110.449,33.341 C110.229,32.772 109.912,32.393 108.332,32.203 C107.794,32.14 104.476,32.077 103.844,32.077 C103.686,32.077 103.623,32.172 103.623,32.393 L103.623,40.389 C103.623,40.61 103.654,40.737 103.844,40.737 C104.539,40.737 108.174,40.737 108.9,40.674 C109.659,40.61 110.133,40.516 110.418,40.2 C110.64,39.946 110.766,39.789 110.924,39.789 C111.051,39.789 111.146,39.853 111.146,40.042 C111.146,40.231 111.019,40.737 110.893,42.349 C110.86,42.98 110.766,44.245 110.766,44.467 C110.766,44.72 110.766,45.067 110.481,45.067 C110.26,45.067 110.197,44.94 110.197,44.782 C110.165,44.467 110.165,44.056 110.07,43.645 C109.912,43.013 109.47,42.538 108.301,42.412 C107.7,42.349 104.57,42.317 103.812,42.317 C103.654,42.317 103.623,42.444 103.623,42.634 L103.623,45.131 C103.623,46.205 103.591,49.113 103.623,50.029 C103.686,52.21 104.191,52.684 107.415,52.684 C108.237,52.684 109.564,52.684 110.387,52.305 C111.208,51.926 111.587,51.262 111.809,49.966 C111.872,49.618 111.936,49.492 112.156,49.492 C112.409,49.492 112.409,49.745 112.409,50.061 C112.409,50.788 112.156,52.937 111.998,53.569 C111.777,54.391 111.492,54.391 110.291,54.391 C107.921,54.391 106.183,54.328 104.823,54.297 C103.464,54.232 102.484,54.202 101.536,54.202 C101.188,54.202 100.493,54.202 99.734,54.232 C99.008,54.232 98.187,54.297 97.554,54.297 C97.143,54.297 96.922,54.202 96.922,53.98 C96.922,53.821 97.048,53.728 97.427,53.728 C97.901,53.728 98.281,53.664 98.565,53.601 C99.197,53.475 99.355,52.779 99.482,51.863 C99.64,50.535 99.64,48.038 99.64,45.131 L99.64,39.567" id="E-5" fill="#B88F20"></path>
				<path d="M122.943,42.064 C122.943,42.412 123.007,42.538 123.228,42.634 C123.892,42.854 124.84,42.95 125.63,42.95 C126.895,42.95 127.305,42.823 127.874,42.412 C128.822,41.717 129.738,40.263 129.738,37.671 C129.738,33.184 126.768,31.888 124.903,31.888 C124.113,31.888 123.544,31.919 123.228,32.014 C123.007,32.077 122.943,32.203 122.943,32.456 L122.943,42.064 L122.943,42.064 Z M119.214,39.567 C119.214,34.763 119.214,33.878 119.15,32.867 C119.087,31.792 118.834,31.286 117.791,31.065 C117.539,31.002 117.001,30.971 116.559,30.971 C116.211,30.971 116.022,30.907 116.022,30.686 C116.022,30.465 116.243,30.401 116.717,30.401 C118.393,30.401 120.383,30.496 121.047,30.496 C122.122,30.496 124.523,30.401 125.504,30.401 C127.495,30.401 129.613,30.592 131.319,31.761 C132.205,32.361 133.469,33.973 133.469,36.091 C133.469,38.43 132.488,40.579 129.296,43.171 C132.109,46.71 134.29,49.524 136.155,51.483 C137.925,53.317 139.221,53.538 139.695,53.633 C140.043,53.696 140.327,53.728 140.58,53.728 C140.833,53.728 140.959,53.821 140.959,53.98 C140.959,54.232 140.738,54.297 140.359,54.297 L137.356,54.297 C135.586,54.297 134.796,54.139 133.975,53.696 C132.615,52.969 131.414,51.483 129.644,49.049 C128.38,47.312 126.926,45.161 126.515,44.688 C126.357,44.499 126.167,44.467 125.946,44.467 L123.196,44.403 C123.038,44.403 122.943,44.467 122.943,44.656 L122.943,45.099 C122.943,48.038 122.943,50.535 123.102,51.863 C123.196,52.779 123.387,53.475 124.334,53.601 C124.809,53.664 125.504,53.728 125.883,53.728 C126.136,53.728 126.262,53.821 126.262,53.98 C126.262,54.202 126.041,54.297 125.63,54.297 C123.797,54.297 121.458,54.202 120.984,54.202 C120.383,54.202 118.393,54.297 117.128,54.297 C116.717,54.297 116.495,54.202 116.495,53.98 C116.495,53.821 116.622,53.728 117.001,53.728 C117.476,53.728 117.855,53.664 118.139,53.601 C118.772,53.475 118.93,52.779 119.057,51.863 C119.214,50.535 119.214,48.038 119.214,45.131 L119.214,39.567 L119.214,39.567 Z" id="R-6" fill="#B88F20"></path>
				<path d="M141.4,53.917 C140.895,53.696 140.8,53.538 140.8,52.843 C140.8,51.104 140.926,49.207 140.958,48.702 C140.99,48.229 141.084,47.88 141.337,47.88 C141.622,47.88 141.653,48.164 141.653,48.417 C141.653,48.828 141.779,49.492 141.938,50.029 C142.633,52.368 144.498,53.222 146.457,53.222 C149.302,53.222 150.693,51.294 150.693,49.618 C150.693,48.07 150.219,46.615 147.596,44.562 L146.142,43.424 C142.665,40.706 141.464,38.493 141.464,35.933 C141.464,32.456 144.371,29.959 148.766,29.959 C150.819,29.959 152.147,30.275 152.969,30.496 C153.253,30.56 153.411,30.654 153.411,30.876 C153.411,31.286 153.285,32.203 153.285,34.669 C153.285,35.364 153.189,35.616 152.937,35.616 C152.716,35.616 152.621,35.427 152.621,35.048 C152.621,34.763 152.463,33.784 151.799,32.962 C151.325,32.361 150.408,31.413 148.355,31.413 C146.016,31.413 144.593,32.772 144.593,34.669 C144.593,36.122 145.319,37.229 147.943,39.22 L148.828,39.884 C152.652,42.76 154.012,44.94 154.012,47.943 C154.012,49.776 153.316,51.957 151.041,53.442 C149.46,54.455 147.69,54.739 146.016,54.739 C144.182,54.739 142.76,54.518 141.4,53.917" id="S-7" fill="#B88F20"></path>
				<path d="M161.532,39.567 C161.532,34.763 161.532,33.878 161.469,32.867 C161.406,31.792 161.09,31.255 160.395,31.097 C160.047,31.002 159.637,30.971 159.257,30.971 C158.94,30.971 158.751,30.907 158.751,30.654 C158.751,30.465 159.004,30.401 159.51,30.401 C160.711,30.401 162.702,30.496 163.619,30.496 C164.409,30.496 166.273,30.401 167.475,30.401 C167.886,30.401 168.139,30.465 168.139,30.654 C168.139,30.907 167.948,30.971 167.633,30.971 C167.316,30.971 167.063,31.002 166.685,31.065 C165.831,31.224 165.578,31.761 165.515,32.867 C165.451,33.878 165.451,34.763 165.451,39.567 L165.451,45.131 C165.451,48.196 165.451,50.693 165.578,52.052 C165.673,52.906 165.895,53.475 166.843,53.601 C167.284,53.664 167.98,53.728 168.455,53.728 C168.802,53.728 168.961,53.821 168.961,53.98 C168.961,54.202 168.707,54.297 168.359,54.297 C166.273,54.297 164.282,54.202 163.429,54.202 C162.702,54.202 160.711,54.297 159.446,54.297 C159.035,54.297 158.814,54.202 158.814,53.98 C158.814,53.821 158.94,53.728 159.32,53.728 C159.794,53.728 160.173,53.664 160.458,53.601 C161.09,53.475 161.279,52.937 161.375,52.021 C161.532,50.693 161.532,48.196 161.532,45.131 L161.532,39.567" id="I-8" fill="#B88F20"></path>
				<path d="M180.022,32.172 L175.313,32.298 C173.479,32.361 172.721,32.52 172.246,33.215 C171.93,33.688 171.772,34.068 171.709,34.32 C171.647,34.573 171.551,34.7 171.361,34.7 C171.141,34.7 171.077,34.542 171.077,34.194 C171.077,33.688 171.678,30.812 171.74,30.56 C171.836,30.149 171.93,29.959 172.12,29.959 C172.373,29.959 172.689,30.275 173.479,30.338 C174.397,30.433 175.597,30.496 176.64,30.496 L189.156,30.496 C190.168,30.496 190.862,30.401 191.337,30.338 C191.811,30.243 192.064,30.181 192.19,30.181 C192.411,30.181 192.443,30.37 192.443,30.844 C192.443,31.508 192.349,33.688 192.349,34.511 C192.316,34.827 192.254,35.016 192.064,35.016 C191.811,35.016 191.748,34.858 191.717,34.384 L191.685,34.036 C191.621,33.215 190.768,32.33 187.955,32.267 L183.973,32.172 L183.973,45.131 C183.973,48.038 183.973,50.535 184.131,51.893 C184.225,52.779 184.415,53.475 185.363,53.601 C185.807,53.664 186.501,53.728 186.975,53.728 C187.323,53.728 187.48,53.821 187.48,53.98 C187.48,54.202 187.228,54.297 186.881,54.297 C184.794,54.297 182.803,54.202 181.918,54.202 C181.191,54.202 179.2,54.297 177.936,54.297 C177.524,54.297 177.304,54.202 177.304,53.98 C177.304,53.821 177.43,53.728 177.81,53.728 C178.283,53.728 178.662,53.664 178.947,53.601 C179.58,53.475 179.769,52.779 179.863,51.863 C180.022,50.535 180.022,48.038 180.022,45.131 L180.022,32.172" id="T-9" fill="#B88F20"></path>
				<path d="M202.903,46.11 C202.903,44.403 202.588,43.708 202.177,42.792 C201.956,42.286 197.72,35.332 196.614,33.688 C195.824,32.52 195.033,31.729 194.434,31.381 C194.022,31.16 193.484,30.971 193.105,30.971 C192.853,30.971 192.631,30.907 192.631,30.686 C192.631,30.496 192.853,30.401 193.232,30.401 C193.801,30.401 196.171,30.496 197.214,30.496 C197.878,30.496 199.174,30.401 200.596,30.401 C200.912,30.401 201.07,30.496 201.07,30.686 C201.07,30.876 200.849,30.907 200.375,31.034 C200.091,31.097 199.933,31.35 199.933,31.603 C199.933,31.855 200.091,32.235 200.312,32.677 C200.754,33.626 205.18,41.242 205.685,42.127 C206.001,41.369 209.983,34.416 210.426,33.436 C210.742,32.74 210.868,32.203 210.868,31.792 C210.868,31.477 210.742,31.128 210.205,31.002 C209.92,30.939 209.636,30.876 209.636,30.686 C209.636,30.465 209.794,30.401 210.173,30.401 C211.216,30.401 212.228,30.496 213.144,30.496 C213.84,30.496 215.926,30.401 216.525,30.401 C216.873,30.401 217.095,30.465 217.095,30.654 C217.095,30.876 216.843,30.971 216.494,30.971 C216.179,30.971 215.577,31.097 215.104,31.35 C214.439,31.666 214.093,32.045 213.397,32.898 C212.354,34.163 207.93,41.591 207.36,42.95 C206.887,44.088 206.887,45.067 206.887,46.11 L206.887,48.702 C206.887,49.207 206.887,50.535 206.98,51.863 C207.044,52.779 207.328,53.475 208.276,53.601 C208.719,53.664 209.414,53.728 209.857,53.728 C210.205,53.728 210.363,53.821 210.363,53.98 C210.363,54.202 210.11,54.297 209.699,54.297 C207.708,54.297 205.717,54.202 204.863,54.202 C204.073,54.202 202.082,54.297 200.912,54.297 C200.47,54.297 200.217,54.232 200.217,53.98 C200.217,53.821 200.375,53.728 200.723,53.728 C201.165,53.728 201.545,53.664 201.828,53.601 C202.461,53.475 202.746,52.779 202.809,51.863 C202.903,50.535 202.903,49.207 202.903,48.702 L202.903,46.11" id="Y-10" fill="#B88F20"></path>
				<path d="M15.926,77.392 C15.926,72.822 13.295,69.987 9.949,69.987 C7.604,69.987 4.932,71.292 4.932,76.371 C4.932,80.614 7.277,83.98 11.194,83.98 C12.621,83.98 15.926,83.286 15.926,77.392 L15.926,77.392 Z M2.117,77.004 C2.117,73.516 4.422,69.008 10.541,69.008 C15.62,69.008 18.782,71.966 18.782,76.637 C18.782,81.308 15.518,85 10.337,85 C4.483,85 2.117,80.614 2.117,77.004 L2.117,77.004 Z" id="O-12" fill="#B88F20"></path>
				<path d="M25.617,78.799 C25.617,80.757 25.617,82.287 25.719,83.144 C25.78,83.735 25.902,84.184 26.515,84.266 C26.8,84.307 27.249,84.347 27.534,84.347 C27.8,84.347 27.881,84.408 27.881,84.51 C27.881,84.653 27.738,84.714 27.433,84.714 C26.147,84.714 24.862,84.653 24.332,84.653 C23.802,84.653 22.517,84.714 21.741,84.714 C21.456,84.714 21.313,84.673 21.313,84.51 C21.313,84.408 21.395,84.347 21.619,84.347 C21.925,84.347 22.17,84.307 22.354,84.266 C22.761,84.184 22.863,83.735 22.945,83.144 C23.047,82.287 23.047,80.757 23.047,78.799 L23.047,75.209 C23.047,72.108 23.047,71.537 23.006,70.885 C22.965,70.191 22.802,69.864 22.129,69.722 C21.966,69.681 21.619,69.66 21.333,69.66 C21.129,69.66 20.986,69.62 20.986,69.497 C20.986,69.334 21.149,69.293 21.456,69.293 C21.986,69.293 22.578,69.313 23.108,69.313 C23.638,69.334 24.107,69.354 24.393,69.354 C25.168,69.354 29.309,69.354 29.778,69.334 C30.165,69.313 30.41,69.313 30.614,69.253 C30.737,69.212 30.839,69.13 30.94,69.13 C31.022,69.13 31.084,69.212 31.084,69.313 C31.084,69.456 30.981,69.701 30.92,70.231 C30.9,70.435 30.859,71.639 30.818,71.884 C30.798,72.047 30.757,72.169 30.614,72.169 C30.472,72.169 30.431,72.067 30.41,71.843 C30.41,71.68 30.41,71.354 30.288,71.068 C30.146,70.782 29.717,70.476 28.941,70.456 L25.801,70.394 C25.678,70.394 25.617,70.456 25.617,70.681 L25.617,75.78 C25.617,75.902 25.637,75.964 25.76,75.964 L28.371,75.943 C28.717,75.943 29.003,75.943 29.288,75.923 C29.676,75.902 29.962,75.821 30.165,75.556 C30.267,75.433 30.309,75.351 30.431,75.351 C30.513,75.351 30.553,75.413 30.553,75.535 C30.553,75.657 30.451,76.167 30.39,76.8 C30.349,77.208 30.309,78.146 30.309,78.289 C30.309,78.473 30.309,78.677 30.104,78.677 C29.982,78.677 29.941,78.534 29.941,78.391 C29.941,78.248 29.9,78.003 29.819,77.759 C29.717,77.473 29.411,77.105 28.778,77.024 C28.268,76.963 26.106,76.963 25.76,76.963 C25.658,76.963 25.617,77.004 25.617,77.146 L25.617,78.799" id="F-14" fill="#B88F20"></path>
				<path d="M44.262,76.82 C44.262,77.045 44.303,77.126 44.445,77.187 C44.874,77.33 45.486,77.392 45.996,77.392 C46.812,77.392 47.077,77.309 47.444,77.045 C48.056,76.596 48.647,75.657 48.647,73.985 C48.647,71.088 46.73,70.252 45.527,70.252 C45.017,70.252 44.649,70.272 44.445,70.334 C44.303,70.375 44.262,70.456 44.262,70.619 L44.262,76.82 L44.262,76.82 Z M41.855,75.209 C41.855,72.108 41.855,71.537 41.814,70.885 C41.773,70.191 41.61,69.864 40.937,69.722 C40.774,69.681 40.427,69.66 40.142,69.66 C39.917,69.66 39.795,69.62 39.795,69.477 C39.795,69.334 39.937,69.293 40.244,69.293 C41.325,69.293 42.61,69.354 43.038,69.354 C43.731,69.354 45.282,69.293 45.914,69.293 C47.199,69.293 48.566,69.416 49.667,70.17 C50.239,70.558 51.055,71.599 51.055,72.965 C51.055,74.475 50.422,75.861 48.362,77.534 C50.178,79.818 51.585,81.634 52.788,82.898 C53.931,84.082 54.767,84.225 55.073,84.286 C55.297,84.327 55.481,84.347 55.644,84.347 C55.808,84.347 55.889,84.408 55.889,84.51 C55.889,84.673 55.746,84.714 55.501,84.714 L53.563,84.714 C52.421,84.714 51.911,84.612 51.381,84.327 C50.504,83.857 49.729,82.898 48.586,81.328 C47.771,80.206 46.832,78.819 46.567,78.513 C46.465,78.391 46.343,78.37 46.2,78.37 L44.425,78.33 C44.323,78.33 44.262,78.37 44.262,78.493 L44.262,78.778 C44.262,80.676 44.262,82.287 44.364,83.144 C44.425,83.735 44.548,84.184 45.16,84.266 C45.466,84.307 45.914,84.347 46.159,84.347 C46.322,84.347 46.404,84.408 46.404,84.51 C46.404,84.653 46.261,84.714 45.996,84.714 C44.813,84.714 43.304,84.653 42.997,84.653 C42.61,84.653 41.325,84.714 40.509,84.714 C40.244,84.714 40.101,84.653 40.101,84.51 C40.101,84.408 40.183,84.347 40.427,84.347 C40.733,84.347 40.978,84.307 41.162,84.266 C41.569,84.184 41.672,83.735 41.753,83.144 C41.855,82.287 41.855,80.676 41.855,78.799 L41.855,75.209 L41.855,75.209 Z" id="R-15" fill="#B88F20"></path>
				<path d="M67.721,75.78 C67.782,75.78 67.844,75.739 67.844,75.637 L67.844,75.209 C67.844,72.108 67.844,71.537 67.803,70.885 C67.762,70.191 67.599,69.864 66.926,69.722 C66.763,69.681 66.415,69.66 66.13,69.66 C65.905,69.66 65.783,69.62 65.783,69.477 C65.783,69.334 65.926,69.293 66.212,69.293 C67.313,69.293 68.598,69.354 69.149,69.354 C69.639,69.354 70.924,69.293 71.719,69.293 C72.005,69.293 72.147,69.334 72.147,69.477 C72.147,69.62 72.025,69.66 71.78,69.66 C71.617,69.66 71.434,69.681 71.188,69.722 C70.638,69.824 70.475,70.17 70.434,70.885 C70.394,71.537 70.394,72.108 70.394,75.209 L70.394,78.799 C70.394,80.676 70.394,82.287 70.495,83.164 C70.557,83.735 70.679,84.184 71.291,84.266 C71.576,84.307 72.025,84.347 72.331,84.347 C72.556,84.347 72.657,84.408 72.657,84.51 C72.657,84.653 72.494,84.714 72.249,84.714 C70.924,84.714 69.639,84.653 69.067,84.653 C68.598,84.653 67.313,84.714 66.518,84.714 C66.232,84.714 66.089,84.653 66.089,84.51 C66.089,84.408 66.171,84.347 66.415,84.347 C66.722,84.347 66.966,84.307 67.15,84.266 C67.558,84.184 67.66,83.735 67.741,83.144 C67.844,82.287 67.844,80.676 67.844,78.799 L67.844,77.004 C67.844,76.922 67.782,76.881 67.721,76.881 L59.929,76.881 C59.868,76.881 59.807,76.902 59.807,77.004 L59.807,78.799 C59.807,80.676 59.807,82.287 59.909,83.164 C59.97,83.735 60.092,84.184 60.704,84.266 C60.99,84.307 61.438,84.347 61.744,84.347 C61.969,84.347 62.071,84.408 62.071,84.51 C62.071,84.653 61.908,84.714 61.663,84.714 C60.337,84.714 59.052,84.653 58.48,84.653 C58.012,84.653 56.727,84.714 55.911,84.714 C55.646,84.714 55.503,84.653 55.503,84.51 C55.503,84.408 55.584,84.347 55.829,84.347 C56.135,84.347 56.38,84.307 56.563,84.266 C56.972,84.184 57.073,83.735 57.155,83.144 C57.257,82.287 57.257,80.676 57.257,78.799 L57.257,75.209 C57.257,72.108 57.257,71.537 57.216,70.885 C57.175,70.191 57.012,69.864 56.339,69.722 C56.176,69.681 55.829,69.66 55.543,69.66 C55.319,69.66 55.197,69.62 55.197,69.477 C55.197,69.334 55.34,69.293 55.625,69.293 C56.727,69.293 58.012,69.354 58.563,69.354 C59.052,69.354 60.337,69.293 61.133,69.293 C61.418,69.293 61.561,69.334 61.561,69.477 C61.561,69.62 61.438,69.66 61.193,69.66 C61.03,69.66 60.847,69.681 60.603,69.722 C60.052,69.824 59.888,70.17 59.848,70.885 C59.807,71.537 59.807,72.108 59.807,75.209 L59.807,75.637 C59.807,75.739 59.868,75.78 59.929,75.78 L67.721,75.78" id="H-16" fill="#B88F20"></path>
				<path d="M87.835,77.392 C87.835,72.822 85.204,69.987 81.858,69.987 C79.513,69.987 76.841,71.292 76.841,76.371 C76.841,80.614 79.186,83.98 83.103,83.98 C84.53,83.98 87.835,83.286 87.835,77.392 L87.835,77.392 Z M74.025,77.004 C74.025,73.516 76.331,69.008 82.45,69.008 C87.529,69.008 90.691,71.966 90.691,76.637 C90.691,81.308 87.427,85 82.246,85 C76.392,85 74.025,80.614 74.025,77.004 L74.025,77.004 Z" id="O-18" fill="#B88F20"></path>
				<path d="M97.036,77.453 C97.036,79.615 97.057,81.185 97.077,81.573 C97.098,82.083 97.138,82.898 97.301,83.123 C97.566,83.511 98.362,83.939 99.974,83.939 C102.054,83.939 103.441,83.531 104.665,82.471 C105.971,81.349 106.378,79.492 106.378,77.392 C106.378,74.801 105.297,73.128 104.42,72.292 C102.544,70.497 100.218,70.252 98.627,70.252 C98.219,70.252 97.465,70.313 97.301,70.394 C97.118,70.476 97.057,70.578 97.057,70.803 C97.036,71.496 97.036,73.271 97.036,74.882 L97.036,77.453 L97.036,77.453 Z M94.486,75.209 C94.486,72.108 94.486,71.537 94.445,70.885 C94.405,70.191 94.242,69.864 93.568,69.722 C93.405,69.681 93.059,69.66 92.773,69.66 C92.549,69.66 92.426,69.62 92.426,69.477 C92.426,69.334 92.569,69.293 92.875,69.293 C93.956,69.293 95.241,69.354 95.813,69.354 C96.444,69.354 97.729,69.293 98.954,69.293 C101.503,69.293 104.91,69.293 107.133,71.619 C108.153,72.68 109.111,74.372 109.111,76.8 C109.111,79.37 108.03,81.328 106.889,82.491 C105.95,83.449 103.829,84.897 100.055,84.897 C99.32,84.897 98.484,84.837 97.709,84.775 C96.934,84.714 96.22,84.653 95.71,84.653 C95.486,84.653 95.037,84.653 94.548,84.673 C94.078,84.673 93.548,84.714 93.14,84.714 C92.875,84.714 92.732,84.653 92.732,84.51 C92.732,84.408 92.813,84.347 93.059,84.347 C93.364,84.347 93.609,84.307 93.793,84.266 C94.201,84.184 94.303,83.735 94.385,83.144 C94.486,82.287 94.486,80.676 94.486,78.799 L94.486,75.209 L94.486,75.209 Z" id="D-20" fill="#B88F20"></path>
				<path d="M113.377,75.209 C113.377,72.108 113.377,71.537 113.336,70.885 C113.295,70.191 113.132,69.864 112.459,69.722 C112.295,69.681 111.949,69.66 111.663,69.66 C111.438,69.66 111.316,69.62 111.316,69.477 C111.316,69.334 111.459,69.293 111.766,69.293 C112.315,69.293 112.907,69.313 113.417,69.313 C113.947,69.334 114.417,69.354 114.702,69.354 C115.355,69.354 119.414,69.354 119.802,69.334 C120.189,69.293 120.516,69.253 120.679,69.212 C120.781,69.191 120.903,69.13 121.006,69.13 C121.107,69.13 121.128,69.212 121.128,69.313 C121.128,69.456 121.025,69.701 120.965,70.64 C120.944,70.844 120.903,71.741 120.862,71.986 C120.842,72.088 120.802,72.21 120.658,72.21 C120.516,72.21 120.475,72.108 120.475,71.925 C120.475,71.782 120.455,71.435 120.353,71.19 C120.21,70.823 120.006,70.578 118.986,70.456 C118.639,70.415 116.497,70.375 116.09,70.375 C115.987,70.375 115.946,70.435 115.946,70.578 L115.946,75.739 C115.946,75.882 115.967,75.964 116.09,75.964 C116.538,75.964 118.884,75.964 119.354,75.923 C119.843,75.882 120.148,75.821 120.332,75.617 C120.475,75.454 120.557,75.351 120.658,75.351 C120.74,75.351 120.802,75.393 120.802,75.515 C120.802,75.637 120.72,75.964 120.639,77.004 C120.618,77.412 120.557,78.228 120.557,78.37 C120.557,78.534 120.557,78.758 120.373,78.758 C120.23,78.758 120.189,78.677 120.189,78.574 C120.169,78.37 120.169,78.105 120.107,77.84 C120.006,77.432 119.721,77.126 118.966,77.045 C118.578,77.004 116.559,76.983 116.069,76.983 C115.967,76.983 115.946,77.065 115.946,77.187 L115.946,78.799 C115.946,79.492 115.926,81.369 115.946,81.96 C115.987,83.368 116.313,83.674 118.395,83.674 C118.925,83.674 119.781,83.674 120.312,83.429 C120.842,83.185 121.087,82.756 121.23,81.92 C121.271,81.695 121.312,81.614 121.454,81.614 C121.617,81.614 121.617,81.777 121.617,81.981 C121.617,82.45 121.454,83.837 121.352,84.245 C121.209,84.775 121.025,84.775 120.251,84.775 C118.721,84.775 117.599,84.734 116.722,84.714 C115.845,84.673 115.213,84.653 114.601,84.653 C114.376,84.653 113.928,84.653 113.438,84.673 C112.969,84.673 112.438,84.714 112.03,84.714 C111.766,84.714 111.622,84.653 111.622,84.51 C111.622,84.408 111.704,84.347 111.949,84.347 C112.255,84.347 112.499,84.307 112.683,84.266 C113.091,84.184 113.193,83.735 113.274,83.144 C113.377,82.287 113.377,80.676 113.377,78.799 L113.377,75.209" id="E-21" fill="#B88F20"></path>
				<path d="M132.389,75.209 C132.389,72.108 132.389,71.537 132.348,70.885 C132.308,70.191 132.104,69.844 131.654,69.742 C131.431,69.681 131.165,69.66 130.92,69.66 C130.717,69.66 130.594,69.62 130.594,69.456 C130.594,69.334 130.757,69.293 131.084,69.293 C131.858,69.293 133.144,69.354 133.735,69.354 C134.245,69.354 135.449,69.293 136.224,69.293 C136.489,69.293 136.652,69.334 136.652,69.456 C136.652,69.62 136.529,69.66 136.326,69.66 C136.122,69.66 135.959,69.681 135.714,69.722 C135.163,69.824 135,70.17 134.959,70.885 C134.918,71.537 134.918,72.108 134.918,75.209 L134.918,78.799 C134.918,80.777 134.918,82.389 135,83.266 C135.062,83.816 135.204,84.184 135.816,84.266 C136.102,84.307 136.55,84.347 136.856,84.347 C137.08,84.347 137.183,84.408 137.183,84.51 C137.183,84.653 137.02,84.714 136.795,84.714 C135.449,84.714 134.164,84.653 133.613,84.653 C133.144,84.653 131.858,84.714 131.043,84.714 C130.777,84.714 130.635,84.653 130.635,84.51 C130.635,84.408 130.717,84.347 130.961,84.347 C131.268,84.347 131.512,84.307 131.695,84.266 C132.104,84.184 132.226,83.837 132.287,83.246 C132.389,82.389 132.389,80.777 132.389,78.799 L132.389,75.209" id="I-22" fill="#B88F20"></path>
				<path d="M140.202,84.47 C139.876,84.327 139.814,84.225 139.814,83.776 C139.814,82.654 139.897,81.43 139.917,81.103 C139.938,80.798 139.998,80.573 140.161,80.573 C140.345,80.573 140.365,80.757 140.365,80.92 C140.365,81.185 140.447,81.614 140.549,81.96 C140.998,83.47 142.201,84.02 143.466,84.02 C145.302,84.02 146.199,82.776 146.199,81.695 C146.199,80.696 145.894,79.758 144.2,78.432 L143.262,77.697 C141.019,75.943 140.243,74.516 140.243,72.863 C140.243,70.619 142.119,69.008 144.955,69.008 C146.281,69.008 147.138,69.212 147.668,69.354 C147.852,69.395 147.953,69.456 147.953,69.6 C147.953,69.864 147.872,70.456 147.872,72.047 C147.872,72.496 147.811,72.659 147.647,72.659 C147.505,72.659 147.443,72.537 147.443,72.292 C147.443,72.108 147.342,71.476 146.913,70.945 C146.607,70.558 146.016,69.946 144.689,69.946 C143.181,69.946 142.263,70.823 142.263,72.047 C142.263,72.985 142.731,73.699 144.425,74.984 L144.996,75.413 C147.464,77.269 148.341,78.677 148.341,80.614 C148.341,81.797 147.893,83.205 146.424,84.163 C145.404,84.816 144.262,85 143.181,85 C141.997,85 141.079,84.857 140.202,84.47" id="S-24" fill="#B88F20"></path>
				<path d="M155.746,78.799 C155.746,81.41 155.746,82.817 156.175,83.185 C156.522,83.49 157.052,83.633 158.643,83.633 C159.725,83.633 160.52,83.613 161.029,83.062 C161.274,82.797 161.52,82.226 161.561,81.838 C161.58,81.654 161.621,81.532 161.784,81.532 C161.928,81.532 161.947,81.634 161.947,81.879 C161.947,82.104 161.805,83.633 161.642,84.225 C161.52,84.673 161.417,84.775 160.356,84.775 C158.888,84.775 157.827,84.734 156.909,84.714 C155.991,84.673 155.257,84.653 154.421,84.653 C154.196,84.653 153.748,84.653 153.258,84.673 C152.789,84.673 152.259,84.714 151.851,84.714 C151.586,84.714 151.442,84.653 151.442,84.51 C151.442,84.408 151.524,84.347 151.77,84.347 C152.075,84.347 152.319,84.307 152.503,84.266 C152.911,84.184 153.014,83.735 153.095,83.144 C153.197,82.287 153.197,80.676 153.197,78.799 L153.197,75.209 C153.197,72.108 153.197,71.537 153.156,70.885 C153.115,70.191 152.952,69.864 152.279,69.722 C152.115,69.681 151.871,69.66 151.605,69.66 C151.381,69.66 151.259,69.62 151.259,69.477 C151.259,69.334 151.402,69.293 151.708,69.293 C152.666,69.293 153.951,69.354 154.502,69.354 C154.992,69.354 156.48,69.293 157.276,69.293 C157.563,69.293 157.705,69.334 157.705,69.477 C157.705,69.62 157.582,69.66 157.338,69.66 C157.113,69.66 156.787,69.681 156.542,69.722 C155.991,69.824 155.828,70.17 155.787,70.885 C155.746,71.537 155.746,72.108 155.746,75.209 L155.746,78.799" id="L-26" fill="#B88F20"></path>
				<path d="M170.924,78.37 C171.025,78.37 171.046,78.31 171.025,78.248 L169.189,73.21 C169.169,73.128 169.148,73.026 169.088,73.026 C169.026,73.026 168.985,73.128 168.965,73.21 L167.089,78.228 C167.068,78.31 167.089,78.37 167.17,78.37 L170.924,78.37 L170.924,78.37 Z M166.763,79.391 C166.66,79.391 166.619,79.431 166.579,79.554 L165.478,82.471 C165.273,82.98 165.172,83.47 165.172,83.715 C165.172,84.082 165.355,84.347 165.987,84.347 L166.293,84.347 C166.538,84.347 166.6,84.388 166.6,84.51 C166.6,84.673 166.477,84.714 166.252,84.714 C165.6,84.714 164.723,84.653 164.09,84.653 C163.866,84.653 162.744,84.714 161.684,84.714 C161.418,84.714 161.296,84.673 161.296,84.51 C161.296,84.388 161.377,84.347 161.541,84.347 C161.725,84.347 162.01,84.327 162.173,84.307 C163.111,84.184 163.499,83.49 163.906,82.471 L169.026,69.66 C169.272,69.069 169.394,68.845 169.598,68.845 C169.781,68.845 169.903,69.028 170.107,69.497 C170.598,70.619 173.861,78.941 175.166,82.042 C175.941,83.878 176.533,84.163 176.961,84.266 C177.268,84.327 177.573,84.347 177.818,84.347 C177.981,84.347 178.083,84.367 178.083,84.51 C178.083,84.673 177.899,84.714 177.145,84.714 C176.41,84.714 174.922,84.714 173.29,84.673 C172.923,84.653 172.678,84.653 172.678,84.51 C172.678,84.388 172.76,84.347 172.963,84.327 C173.106,84.286 173.249,84.102 173.147,83.857 L171.516,79.533 C171.475,79.431 171.413,79.391 171.311,79.391 L166.763,79.391 L166.763,79.391 Z" id="A-27" fill="#B88F20"></path>
				<path d="M181.369,81.94 C181.41,83.531 181.675,84.061 182.083,84.204 C182.43,84.327 182.817,84.347 183.144,84.347 C183.368,84.347 183.49,84.388 183.49,84.51 C183.49,84.673 183.307,84.714 183.022,84.714 C181.695,84.714 180.879,84.653 180.492,84.653 C180.309,84.653 179.35,84.714 178.289,84.714 C178.023,84.714 177.84,84.694 177.84,84.51 C177.84,84.388 177.963,84.347 178.166,84.347 C178.432,84.347 178.799,84.327 179.084,84.245 C179.614,84.082 179.696,83.49 179.717,81.716 L179.9,69.64 C179.9,69.232 179.961,68.946 180.165,68.946 C180.39,68.946 180.573,69.212 180.92,69.579 C181.165,69.844 184.266,73.169 187.243,76.127 C188.631,77.514 191.385,80.451 191.73,80.777 L191.833,80.777 L191.629,71.619 C191.608,70.375 191.425,69.987 190.936,69.783 C190.629,69.66 190.14,69.66 189.855,69.66 C189.609,69.66 189.528,69.6 189.528,69.477 C189.528,69.313 189.752,69.293 190.059,69.293 C191.119,69.293 192.098,69.354 192.526,69.354 C192.751,69.354 193.525,69.293 194.525,69.293 C194.791,69.293 194.994,69.313 194.994,69.477 C194.994,69.6 194.872,69.66 194.627,69.66 C194.424,69.66 194.26,69.66 194.016,69.722 C193.444,69.885 193.281,70.313 193.261,71.456 L193.036,84.327 C193.036,84.775 192.955,84.959 192.772,84.959 C192.547,84.959 192.302,84.734 192.078,84.51 C190.793,83.286 188.182,80.614 186.061,78.513 C183.837,76.31 181.572,73.761 181.205,73.373 L181.145,73.373 L181.369,81.94" id="N-29" fill="#B88F20"></path>
				<path d="M201.483,77.453 C201.483,79.615 201.504,81.185 201.524,81.573 C201.545,82.083 201.585,82.898 201.748,83.123 C202.014,83.511 202.809,83.939 204.421,83.939 C206.501,83.939 207.889,83.531 209.112,82.471 C210.418,81.349 210.825,79.492 210.825,77.392 C210.825,74.801 209.744,73.128 208.867,72.292 C206.99,70.497 204.665,70.252 203.074,70.252 C202.666,70.252 201.912,70.313 201.748,70.394 C201.564,70.476 201.504,70.578 201.504,70.803 C201.483,71.496 201.483,73.271 201.483,74.882 L201.483,77.453 L201.483,77.453 Z M198.934,75.209 C198.934,72.108 198.934,71.537 198.893,70.885 C198.852,70.191 198.688,69.864 198.016,69.722 C197.853,69.681 197.506,69.66 197.221,69.66 C196.996,69.66 196.873,69.62 196.873,69.477 C196.873,69.334 197.016,69.293 197.322,69.293 C198.403,69.293 199.688,69.354 200.26,69.354 C200.892,69.354 202.177,69.293 203.4,69.293 C205.95,69.293 209.357,69.293 211.58,71.619 C212.6,72.68 213.559,74.372 213.559,76.8 C213.559,79.37 212.478,81.328 211.336,82.491 C210.397,83.449 208.275,84.897 204.502,84.897 C203.768,84.897 202.932,84.837 202.156,84.775 C201.381,84.714 200.667,84.653 200.157,84.653 C199.934,84.653 199.484,84.653 198.995,84.673 C198.525,84.673 197.995,84.714 197.587,84.714 C197.322,84.714 197.18,84.653 197.18,84.51 C197.18,84.408 197.261,84.347 197.506,84.347 C197.812,84.347 198.057,84.307 198.24,84.266 C198.648,84.184 198.75,83.735 198.832,83.144 C198.934,82.287 198.934,80.676 198.934,78.799 L198.934,75.209 L198.934,75.209 Z" id="D-30" fill="#B88F20"></path>
				<path d="M5.83,1.663 L2.76,1.745 C1.565,1.787 1.071,1.89 0.762,2.343 C0.556,2.652 0.453,2.899 0.412,3.063 C0.371,3.229 0.309,3.311 0.186,3.311 C0.041,3.311 0,3.208 0,2.981 C0,2.652 0.392,0.777 0.433,0.612 C0.494,0.345 0.556,0.221 0.68,0.221 C0.845,0.221 1.051,0.427 1.565,0.468 C2.163,0.53 2.946,0.571 3.625,0.571 L11.783,0.571 C12.442,0.571 12.896,0.51 13.204,0.468 C13.513,0.406 13.678,0.365 13.761,0.365 C13.904,0.365 13.925,0.489 13.925,0.798 C13.925,1.23 13.863,2.652 13.863,3.187 C13.843,3.394 13.802,3.517 13.678,3.517 C13.513,3.517 13.472,3.414 13.451,3.105 L13.431,2.878 C13.39,2.343 12.833,1.766 11,1.725 L8.404,1.663 L8.404,10.108 C8.404,12.004 8.404,13.631 8.508,14.517 C8.569,15.094 8.693,15.547 9.311,15.629 C9.6,15.671 10.053,15.712 10.361,15.712 C10.588,15.712 10.691,15.773 10.691,15.877 C10.691,16.021 10.526,16.082 10.3,16.082 C8.94,16.082 7.643,16.021 7.065,16.021 C6.592,16.021 5.294,16.082 4.47,16.082 C4.202,16.082 4.058,16.021 4.058,15.877 C4.058,15.773 4.141,15.712 4.388,15.712 C4.696,15.712 4.944,15.671 5.129,15.629 C5.541,15.547 5.665,15.094 5.727,14.496 C5.83,13.631 5.83,12.004 5.83,10.108 L5.83,1.663" id="T-31" fill="#B88F20"></path>
				<path d="M28.283,7.06 C28.345,7.06 28.407,7.018 28.407,6.916 L28.407,6.483 C28.407,3.353 28.407,2.775 28.365,2.116 C28.324,1.416 28.16,1.086 27.479,0.942 C27.315,0.901 26.965,0.88 26.677,0.88 C26.45,0.88 26.326,0.839 26.326,0.695 C26.326,0.551 26.471,0.51 26.759,0.51 C27.871,0.51 29.169,0.571 29.725,0.571 C30.22,0.571 31.518,0.51 32.32,0.51 C32.609,0.51 32.753,0.551 32.753,0.695 C32.753,0.839 32.63,0.88 32.383,0.88 C32.218,0.88 32.032,0.901 31.785,0.942 C31.229,1.045 31.064,1.396 31.023,2.116 C30.981,2.775 30.981,3.353 30.981,6.483 L30.981,10.108 C30.981,12.004 30.981,13.631 31.085,14.517 C31.147,15.094 31.27,15.547 31.888,15.629 C32.177,15.671 32.63,15.712 32.938,15.712 C33.165,15.712 33.269,15.773 33.269,15.877 C33.269,16.021 33.104,16.082 32.856,16.082 C31.518,16.082 30.22,16.021 29.643,16.021 C29.169,16.021 27.871,16.082 27.068,16.082 C26.779,16.082 26.635,16.021 26.635,15.877 C26.635,15.773 26.718,15.712 26.965,15.712 C27.273,15.712 27.521,15.671 27.706,15.629 C28.118,15.547 28.222,15.094 28.304,14.496 C28.407,13.631 28.407,12.004 28.407,10.108 L28.407,8.296 C28.407,8.214 28.345,8.172 28.283,8.172 L20.414,8.172 C20.353,8.172 20.291,8.193 20.291,8.296 L20.291,10.108 C20.291,12.004 20.291,13.631 20.393,14.517 C20.455,15.094 20.579,15.547 21.197,15.629 C21.485,15.671 21.938,15.712 22.247,15.712 C22.474,15.712 22.577,15.773 22.577,15.877 C22.577,16.021 22.412,16.082 22.165,16.082 C20.826,16.082 19.528,16.021 18.952,16.021 C18.478,16.021 17.18,16.082 16.356,16.082 C16.088,16.082 15.944,16.021 15.944,15.877 C15.944,15.773 16.026,15.712 16.273,15.712 C16.583,15.712 16.83,15.671 17.016,15.629 C17.427,15.547 17.53,15.094 17.613,14.496 C17.716,13.631 17.716,12.004 17.716,10.108 L17.716,6.483 C17.716,3.353 17.716,2.775 17.675,2.116 C17.633,1.416 17.469,1.086 16.789,0.942 C16.624,0.901 16.273,0.88 15.985,0.88 C15.759,0.88 15.635,0.839 15.635,0.695 C15.635,0.551 15.779,0.51 16.067,0.51 C17.18,0.51 18.478,0.571 19.034,0.571 C19.528,0.571 20.826,0.51 21.63,0.51 C21.918,0.51 22.062,0.551 22.062,0.695 C22.062,0.839 21.938,0.88 21.691,0.88 C21.526,0.88 21.341,0.901 21.094,0.942 C20.538,1.045 20.373,1.396 20.332,2.116 C20.291,2.775 20.291,3.353 20.291,6.483 L20.291,6.916 C20.291,7.018 20.353,7.06 20.414,7.06 L28.283,7.06" id="H-33" fill="#B88F20"></path>
				<path d="M37.738,6.483 C37.738,3.353 37.738,2.775 37.697,2.116 C37.656,1.416 37.491,1.086 36.811,0.942 C36.646,0.901 36.297,0.88 36.008,0.88 C35.781,0.88 35.658,0.839 35.658,0.695 C35.658,0.551 35.802,0.51 36.111,0.51 C36.667,0.51 37.265,0.53 37.78,0.53 C38.315,0.551 38.789,0.571 39.077,0.571 C39.736,0.571 43.836,0.571 44.228,0.551 C44.619,0.51 44.948,0.468 45.113,0.427 C45.216,0.406 45.34,0.345 45.443,0.345 C45.546,0.345 45.566,0.427 45.566,0.53 C45.566,0.674 45.463,0.921 45.401,1.869 C45.381,2.075 45.34,2.981 45.298,3.229 C45.278,3.331 45.236,3.455 45.093,3.455 C44.948,3.455 44.907,3.353 44.907,3.167 C44.907,3.022 44.887,2.672 44.783,2.425 C44.64,2.055 44.434,1.808 43.403,1.684 C43.053,1.643 40.89,1.602 40.479,1.602 C40.375,1.602 40.334,1.663 40.334,1.808 L40.334,7.018 C40.334,7.163 40.354,7.245 40.479,7.245 C40.932,7.245 43.3,7.245 43.774,7.204 C44.269,7.163 44.578,7.102 44.763,6.896 C44.907,6.73 44.989,6.627 45.093,6.627 C45.175,6.627 45.236,6.669 45.236,6.792 C45.236,6.916 45.154,7.245 45.072,8.296 C45.052,8.708 44.989,9.532 44.989,9.676 C44.989,9.841 44.989,10.067 44.804,10.067 C44.66,10.067 44.619,9.985 44.619,9.882 C44.598,9.676 44.598,9.408 44.536,9.141 C44.434,8.729 44.145,8.42 43.383,8.337 C42.991,8.296 40.952,8.275 40.458,8.275 C40.354,8.275 40.334,8.358 40.334,8.481 L40.334,10.108 C40.334,10.809 40.313,12.704 40.334,13.302 C40.375,14.723 40.705,15.032 42.806,15.032 C43.342,15.032 44.207,15.032 44.742,14.785 C45.278,14.538 45.525,14.105 45.669,13.261 C45.71,13.034 45.752,12.951 45.896,12.951 C46.061,12.951 46.061,13.116 46.061,13.322 C46.061,13.796 45.896,15.197 45.793,15.609 C45.648,16.145 45.463,16.145 44.681,16.145 C43.136,16.145 42.003,16.104 41.117,16.082 C40.231,16.041 39.593,16.021 38.975,16.021 C38.748,16.021 38.295,16.021 37.8,16.041 C37.326,16.041 36.791,16.082 36.379,16.082 C36.111,16.082 35.967,16.021 35.967,15.877 C35.967,15.773 36.049,15.712 36.297,15.712 C36.605,15.712 36.852,15.671 37.038,15.629 C37.45,15.547 37.553,15.094 37.636,14.496 C37.738,13.631 37.738,12.004 37.738,10.108 L37.738,6.483" id="E-34" fill="#B88F20"></path>
			</g>
			<rect id="bg-rect" x="0" y="0" width="218" height="85" />
		</g>
	</a>
</svg>