<?xml version="1.0" encoding="UTF-8"?>
<svg width="305px" height="86px" viewBox="0 0 305 86" version="1.1" xmlns="http://www.w3.org/2000/svg" xmlns:xlink="http://www.w3.org/1999/xlink">
	<title>The University of Rhode Island</title>
	<defs></defs>
	<style>
		<![CDATA[
		#wrapper { fill: none; pointer-events: all;}
		#wrapper:hover #U, #wrapper:hover #R, #wrapper:hover #I { fill: #ECC81F; transition: fill 150ms cubic-bezier(.3, .6, .6, 1); }
		]]>
	</style>
	<a xlink:href="https://www.uri.edu" target="_parent" id="link">
		<g id="wrapper">
    	<g id="Page-1" stroke="none" stroke-width="1" fill="none" fill-rule="evenodd">
				<g id="125th-with-URI-Logo_Gold" transform="translate(1.000000, 0.000000)">
					<g id="years" transform="translate(7.000000, 74.000000)" fill="#AA7F32">
						<path d="M60.1928116,0.853453608 L60.1928116,2.46407216 C58.1749565,4.75381443 57.3501913,7.79190722 57.2937971,10.8308763 L54.8494609,10.8308763 C54.8917565,9.09231959 55.1190957,6.42139175 57.6630029,2.88819588 L53.9964986,2.88819588 L53.9964986,0.853453608 L60.1928116,0.853453608" id="Fill-13"></path>
						<path d="M52.8756638,0.66943299 L52.8756638,10.8308763 L50.6304696,10.8308763 L50.6304696,3.89154639 C49.9766493,4.4006701 49.4505971,4.73979381 48.2998029,5.17793814 L48.2998029,3.10025773 C50.2462841,2.2528866 50.7732174,1.2635567 51.0146551,0.66943299 L52.8756638,0.66943299" id="Fill-12"></path>
						<path d="M43.7970783,8.58407216 C43.8543536,8.83819588 44.1098899,9.21938144 44.5645681,9.21938144 C45.1478957,9.21938144 45.2756638,8.68221649 45.3038609,8.56917526 C45.4598261,7.9478866 45.4175304,6.64747423 45.4175304,5.85618557 C45.4175304,5.16391753 45.4457275,3.55242268 45.2756638,3.00123711 C45.2183884,2.81809278 45.0051478,2.45005155 44.5504696,2.45005155 C43.7265855,2.45005155 43.7265855,3.32634021 43.7265855,4.4707732 C43.7265855,4.65479381 43.6975072,5.60206186 43.6975072,5.81324742 C43.6975072,6.42139175 43.6975072,8.14592784 43.7970783,8.58407216 Z M47.6627246,5.81324742 C47.6627246,8.10298969 47.6627246,11 44.536371,11 C43.0727652,11 42.4048464,10.222732 42.1775072,9.86958763 C41.5800812,8.95123711 41.452313,8.06092784 41.452313,5.7992268 C41.452313,3.49634021 41.5518841,0.66943299 44.5222725,0.66943299 C47.6627246,0.66943299 47.6627246,3.66546392 47.6627246,5.81324742 L47.6627246,5.81324742 Z" id="Fill-10"></path>
						<path d="M34.6761971,3.69350515 C34.7466899,3.03015464 35.0313043,0.66943299 37.8589449,0.66943299 C40.1614145,0.66943299 40.8152348,2.18190722 40.8152348,3.41134021 C40.8152348,4.83881443 40.1041391,5.64412371 38.8969507,6.8735567 C38.0862841,7.70778351 37.7311768,8.08896907 37.3046957,8.79525773 L40.8434319,8.79525773 L40.8434319,10.8308763 L34.5052522,10.8308763 C34.4911536,9.13525773 35.0736,7.84886598 36.963687,5.89912371 C37.8025507,5.03597938 38.5700406,4.21664948 38.5700406,3.32634021 C38.5700406,2.91623711 38.2995246,2.45005155 37.787571,2.45005155 C37.0059826,2.45005155 36.9213913,3.34036082 36.9213913,3.83546392 L36.9213913,3.96252577 L34.6761971,3.69350515" id="Fill-8"></path>
						<polygon id="Fill-7" points="27.003942 7.90582474 34.2796754 7.90582474 34.2796754 6.40737113 27.003942 6.40737113"></polygon>
						<path d="M20.4692638,3.69350515 C20.5406377,3.03015464 20.824371,0.66943299 23.6528928,0.66943299 C25.9553623,0.66943299 26.6083014,2.18190722 26.6083014,3.41134021 C26.6083014,4.83881443 25.898087,5.64412371 24.6900174,6.8735567 C23.8802319,7.70778351 23.5251246,8.08896907 23.0986435,8.79525773 L26.6373797,8.79525773 L26.6373797,10.8308763 L20.2983188,10.8308763 C20.2842203,9.13525773 20.8675478,7.84886598 22.7576348,5.89912371 C23.5956174,5.03597938 24.3631072,4.21664948 24.3631072,3.32634021 C24.3631072,2.91623711 24.0934725,2.45005155 23.5815188,2.45005155 C22.7999304,2.45005155 22.714458,3.34036082 22.714458,3.83546392 L22.714458,3.96252577 L20.4692638,3.69350515" id="Fill-6"></path>
						<path d="M17.2459826,4.37262887 C17.2459826,2.67613402 16.8476986,2.37994845 16.3789217,2.37994845 C15.5682551,2.37994845 15.5832348,3.27025773 15.5832348,3.96252577 C15.5832348,5.33304124 15.8246725,5.82814433 16.3648232,5.82814433 C17.2177855,5.82814433 17.2459826,4.92293814 17.2459826,4.37262887 Z M15.6687072,8.32907216 C15.6969043,8.66819588 15.7392,9.29036082 16.3648232,9.29036082 C17.3878493,9.29036082 17.3164754,7.55180412 17.2741797,6.83149485 C16.6635362,7.42474227 15.8819478,7.42474227 15.7532986,7.42474227 C15.3409159,7.42474227 14.7302725,7.29768041 14.2614957,6.88757732 C13.4376116,6.16726804 13.3380406,4.88087629 13.3380406,4.21664948 C13.3380406,3.41134021 13.3380406,0.66943299 16.3366261,0.66943299 C19.5334725,0.66943299 19.5334725,3.84948454 19.5334725,5.84216495 C19.5334725,8.47103093 19.2779362,9.27634021 18.6382145,10.0106701 C17.7861333,10.9859794 16.7058319,11 16.2934493,11 C14.2042203,11 13.6217739,9.64350515 13.4226319,8.62613402 L15.6687072,8.32907216 L15.6687072,8.32907216 Z" id="Fill-4"></path>
						<path d="M9.34638841,4.69685567 C10.0715826,4.69685567 10.0997797,3.90556701 10.0997797,3.48231959 C10.0997797,3.21329897 10.0856812,2.33701031 9.30409275,2.33701031 C8.70666667,2.33701031 8.57889855,2.90221649 8.57889855,3.55242268 C8.57889855,3.97654639 8.65027246,4.69685567 9.34638841,4.69685567 Z M9.33228986,9.33242268 C10.2275478,9.33242268 10.1993507,8.27298969 10.1993507,7.7778866 C10.1993507,7.42474227 10.2275478,6.36530928 9.34638841,6.36530928 C8.56568116,6.36530928 8.46522899,7.21268041 8.46522899,7.80680412 C8.46522899,8.32907216 8.45113043,9.33242268 9.33228986,9.33242268 Z M12.4445449,7.93386598 C12.4445449,10.0106701 11.2655536,11 9.37458551,11 C7.05889855,11 6.22003478,9.68556701 6.22003478,7.84886598 C6.22003478,6.19530928 7.30033623,5.61608247 7.65544348,5.41804124 C7.28623768,5.17793814 6.47645217,4.65479381 6.47645217,3.38329897 C6.47645217,1.65876289 7.49947826,0.66943299 9.2899942,0.66943299 C11.748429,0.66943299 12.2031072,2.32298969 12.2031072,3.27025773 C12.2031072,3.86350515 12.0612406,4.88087629 10.9518609,5.41804124 C12.4445449,6.15237113 12.4445449,7.46768041 12.4445449,7.93386598 L12.4445449,7.93386598 Z" id="Fill-3"></path>
						<path d="M5.14149565,0.66943299 L5.14149565,10.8308763 L2.89718261,10.8308763 L2.89718261,3.89154639 C2.24336232,4.4006701 1.71731014,4.73979381 0.565634783,5.17793814 L0.565634783,3.10025773 C2.5129971,2.2528866 3.03904928,1.2635567 3.28048696,0.66943299 L5.14149565,0.66943299" id="Fill-1"></path>
					</g>
					<g id="art125" transform="translate(0.000000, 1.000000)">
						<path d="M36.1945043,18.0145876 C36.1945043,16.6931443 35.9680464,15.7064433 35.5142493,15.0562371 C35.0604522,14.4051546 34.3696232,14.0800515 33.4426435,14.0800515 C32.5139014,14.0800515 31.8239536,14.4402062 31.3710377,15.1613918 C30.9163594,15.881701 30.6899014,17.3135567 30.6899014,19.4569588 L30.6899014,24.0820103 L21.3725217,24.0820103 L21.3725217,46.6017526 C28.354829,35.203866 32.5482667,28.0691237 33.9449043,25.2089175 C35.4446377,22.1348969 36.1945043,19.7373711 36.1945043,18.0145876" id="Fill-14" fill="#AA7F32"></path>
						<path d="M36.1945043,18.0145876 C36.1945043,16.6931443 35.9680464,15.7064433 35.5142493,15.0562371 C35.0604522,14.4051546 34.3696232,14.0800515 33.4426435,14.0800515 C32.5139014,14.0800515 31.8239536,14.4402062 31.3710377,15.1613918 C30.9163594,15.881701 30.6899014,17.3135567 30.6899014,19.4569588 L30.6899014,24.0820103 L21.3725217,24.0820103 L21.3725217,46.6017526 C28.354829,35.203866 32.5482667,28.0691237 33.9449043,25.2089175 C35.4446377,22.1348969 36.1945043,19.7373711 36.1945043,18.0145876 Z" id="Stroke-15" stroke="#AA7F32" stroke-width="1.87281112"></path>
						<path d="M56.0857971,37.6653608 C55.5218551,37.6653608 55.0486725,37.8353608 54.6662493,38.1753608 C54.2838261,38.5162371 54.0371014,38.8816495 53.9260754,39.2724742 C53.8159304,39.6624227 53.7604174,40.5693814 53.7604174,41.9907216 L41.6788406,41.9907216 L41.8304,34.7683505 C39.7297159,38.1543299 36.866829,42.5147423 33.2258783,47.8714948 L41.5581217,47.8714948 L41.5581217,47.8478351 L53.7604174,47.8478351 L53.7604174,50.8815464 C53.7604174,54.0256701 53.8705623,56.2584536 54.0926145,57.5798969 C54.3137855,58.9013402 55.0786319,59.5620619 56.3880348,59.5620619 C56.991629,59.5620619 57.4797913,59.3719072 57.8525217,58.9915979 C58.2252522,58.6112887 58.4270377,58.2011856 58.4569971,57.7604124 C58.4869565,57.3196392 58.5222029,55.4075773 58.5627362,52.0224742 L58.5627362,42.3815464 C58.5627362,40.558866 58.3715246,39.3171649 57.9891014,38.6564433 C57.6057971,37.9957216 56.9722435,37.6653608 56.0857971,37.6653608" id="Fill-16" fill="#AA7F32"></path>
						<path d="M56.0857971,37.6653608 C55.5218551,37.6653608 55.0486725,37.8353608 54.6662493,38.1753608 C54.2838261,38.5162371 54.0371014,38.8816495 53.9260754,39.2724742 C53.8159304,39.6624227 53.7604174,40.5693814 53.7604174,41.9907216 L41.6788406,41.9907216 L41.8304,34.7683505 C39.7297159,38.1543299 36.866829,42.5147423 33.2258783,47.8714948 L41.5581217,47.8714948 L41.5581217,47.8478351 L53.7604174,47.8478351 L53.7604174,50.8815464 C53.7604174,54.0256701 53.8705623,56.2584536 54.0926145,57.5798969 C54.3137855,58.9013402 55.0786319,59.5620619 56.3880348,59.5620619 C56.991629,59.5620619 57.4797913,59.3719072 57.8525217,58.9915979 C58.2252522,58.6112887 58.4270377,58.2011856 58.4569971,57.7604124 C58.4869565,57.3196392 58.5222029,55.4075773 58.5627362,52.0224742 L58.5627362,42.3815464 C58.5627362,40.558866 58.3715246,39.3171649 57.9891014,38.6564433 C57.6057971,37.9957216 56.9722435,37.6653608 56.0857971,37.6653608 Z" id="Stroke-17" stroke="#AA7F32" stroke-width="1.87281112"></path>
						<path d="M70.7650319,50.731701 C70.7650319,54.1755155 70.5984928,56.7036082 70.2662957,58.3159794 C69.9340986,59.9274742 69.2247652,61.4197938 68.1374145,62.7911856 C67.0500638,64.1625773 65.5344696,65.2141237 63.591513,65.9449485 C61.6476754,66.6757732 59.2773565,67.0411856 56.4787942,67.0411856 C53.3374609,67.0411856 50.568858,66.4952577 48.1729855,65.4042784 C45.7762319,64.313299 44.074713,62.6860309 43.068429,60.5233505 C42.5423768,59.3938144 42.1573101,57.9347938 41.9061797,56.1611856 L19.7564754,56.1611856 L19.7635246,49.672268 L9.17022609,49.672268 L9.17022609,23.6000515 C9.17022609,19.8355155 9.07946667,17.5729381 8.89794783,16.8114433 C8.71731014,16.0508247 8.21857391,15.4751031 7.40262029,15.0842784 C6.58754783,14.6943299 4.76971594,14.4989175 1.95176812,14.4989175 L0.742817391,14.4989175 L0.742817391,8.8293299 C6.64217971,7.56659794 11.1228754,4.97103093 14.183142,1.04262887 L21.3725217,1.04262887 L21.3725217,12.6376804 C21.6351072,12.1653608 21.9223652,11.6939175 22.2633739,11.2259794 C23.3701101,9.70474227 24.8099246,8.55329897 26.5819362,7.77252577 C28.3539478,6.99087629 30.4784232,6.60092784 32.9553623,6.60092784 C37.8079072,6.60092784 41.4770551,7.79706186 43.9645681,10.1902062 C46.030887,12.1785052 47.2257391,14.6137113 47.5746783,17.4809278 L68.3788522,17.4809278 L68.3788522,25.2597423 L53.2467014,25.2597423 L53.2467014,33.5205155 C55.1394319,31.2973711 57.5758377,30.1862371 60.5559188,30.1862371 C63.9184232,30.1862371 66.4605681,31.1221134 68.1823536,32.9947423 C69.9041391,34.8673711 70.7650319,38.4662887 70.7650319,43.7923711 L70.7650319,50.731701 Z M71.8294725,39.7412887 C71.6347362,34.1996392 68.7392464,33.1480928 68.7392464,33.1480928 L68.7392464,0.228556701 L13.1680464,0.262731959 C9.5500058,5.87974227 0.0563942029,8.42623711 0.0563942029,8.42623711 L0.0563942029,15.5706186 L5.18650435,15.5706186 C8.70849855,15.4085052 8.32695652,18.7103608 8.32695652,18.7103608 L8.2317913,67.7413402 L52.1813797,67.7413402 C63.0707478,67.9551546 64.6894377,66.6302062 64.6894377,66.6302062 C68.5929739,65.588299 70.5773449,62.9015979 71.2584812,58.5823711 C72.0206841,53.7540206 71.8294725,48.3569588 71.8294725,48.3569588 C71.9123014,44.0824227 72.0206841,45.1383505 71.8294725,39.7412887 L71.8294725,39.7412887 Z" id="Fill-18" fill="#AA7F32"></path>
						<path d="M70.7650319,50.731701 C70.7650319,54.1755155 70.5984928,56.7036082 70.2662957,58.3159794 C69.9340986,59.9274742 69.2247652,61.4197938 68.1374145,62.7911856 C67.0500638,64.1625773 65.5344696,65.2141237 63.591513,65.9449485 C61.6476754,66.6757732 59.2773565,67.0411856 56.4787942,67.0411856 C53.3374609,67.0411856 50.568858,66.4952577 48.1729855,65.4042784 C45.7762319,64.313299 44.074713,62.6860309 43.068429,60.5233505 C42.5423768,59.3938144 42.1573101,57.9347938 41.9061797,56.1611856 L19.7564754,56.1611856 L19.7635246,49.672268 L9.17022609,49.672268 L9.17022609,23.6000515 C9.17022609,19.8355155 9.07946667,17.5729381 8.89794783,16.8114433 C8.71731014,16.0508247 8.21857391,15.4751031 7.40262029,15.0842784 C6.58754783,14.6943299 4.76971594,14.4989175 1.95176812,14.4989175 L0.742817391,14.4989175 L0.742817391,8.8293299 C6.64217971,7.56659794 11.1228754,4.97103093 14.183142,1.04262887 L21.3725217,1.04262887 L21.3725217,12.6376804 C21.6351072,12.1653608 21.9223652,11.6939175 22.2633739,11.2259794 C23.3701101,9.70474227 24.8099246,8.55329897 26.5819362,7.77252577 C28.3539478,6.99087629 30.4784232,6.60092784 32.9553623,6.60092784 C37.8079072,6.60092784 41.4770551,7.79706186 43.9645681,10.1902062 C46.030887,12.1785052 47.2257391,14.6137113 47.5746783,17.4809278 L68.3788522,17.4809278 L68.3788522,25.2597423 L53.2467014,25.2597423 L53.2467014,33.5205155 C55.1394319,31.2973711 57.5758377,30.1862371 60.5559188,30.1862371 C63.9184232,30.1862371 66.4605681,31.1221134 68.1823536,32.9947423 C69.9041391,34.8673711 70.7650319,38.4662887 70.7650319,43.7923711 L70.7650319,50.731701 Z M71.8294725,39.7412887 C71.6347362,34.1996392 68.7392464,33.1480928 68.7392464,33.1480928 L68.7392464,0.228556701 L13.1680464,0.262731959 C9.5500058,5.87974227 0.0563942029,8.42623711 0.0563942029,8.42623711 L0.0563942029,15.5706186 L5.18650435,15.5706186 C8.70849855,15.4085052 8.32695652,18.7103608 8.32695652,18.7103608 L8.2317913,67.7413402 L52.1813797,67.7413402 C63.0707478,67.9551546 64.6894377,66.6302062 64.6894377,66.6302062 C68.5929739,65.588299 70.5773449,62.9015979 71.2584812,58.5823711 C72.0206841,53.7540206 71.8294725,48.3569588 71.8294725,48.3569588 C71.9123014,44.0824227 72.0206841,45.1383505 71.8294725,39.7412887 Z" id="Stroke-19" stroke="#AA7F32" stroke-width="1.87281112"></path>
					</g>
					<g id="Rhode-Island" transform="translate(126.000000, 68.000000)" fill="#AA7F32">
						<path d="M161.704719,9.01876289 C161.704719,11.1691753 161.724986,12.7298454 161.746133,13.1154124 C161.7664,13.6227835 161.806052,14.4333505 161.969067,14.6568041 C162.235177,15.0414948 163.029983,15.4682474 164.641623,15.4682474 C166.721159,15.4682474 168.108104,15.0625258 169.332035,14.0074742 C170.637032,12.8919588 171.044128,11.0464948 171.044128,8.95829897 C171.044128,6.3828866 169.962945,4.71969072 169.087072,3.88809278 C167.210203,2.10396907 164.885704,1.86036082 163.295212,1.86036082 C162.887235,1.86036082 162.133843,1.92082474 161.969067,2.0014433 C161.785786,2.08293814 161.724986,2.18458763 161.724986,2.40716495 C161.704719,3.09680412 161.704719,4.86164948 161.704719,6.46262887 L161.704719,9.01876289 Z M159.155525,6.78860825 C159.155525,3.70582474 159.155525,3.13798969 159.114991,2.48953608 C159.073577,1.79902062 158.910562,1.47479381 158.238238,1.33283505 C158.075223,1.29164948 157.728046,1.27149485 157.443432,1.27149485 C157.218736,1.27149485 157.095374,1.23118557 157.095374,1.0892268 C157.095374,0.947268041 157.238122,0.906958763 157.544765,0.906958763 C158.625948,0.906958763 159.910678,0.96742268 160.48167,0.96742268 C161.113461,0.96742268 162.398191,0.906958763 163.621241,0.906958763 C166.170435,0.906958763 169.576997,0.906958763 171.7984,3.21948454 C172.817901,4.27365979 173.776603,5.95613402 173.776603,8.37030928 C173.776603,10.925567 172.696301,12.8718041 171.554319,14.0285052 C170.616765,14.9810309 168.494933,16.4207732 164.72269,16.4207732 C163.988684,16.4207732 163.152464,16.3603093 162.377925,16.2989691 C161.602504,16.2376289 160.888765,16.1780412 160.379455,16.1780412 C160.155641,16.1780412 159.706249,16.1780412 159.217206,16.1981959 C158.747548,16.1981959 158.217971,16.2376289 157.809113,16.2376289 C157.544765,16.2376289 157.402017,16.1780412 157.402017,16.0360825 C157.402017,15.934433 157.483084,15.8730928 157.728046,15.8730928 C158.033809,15.8730928 158.278771,15.8327835 158.462933,15.7924742 C158.87091,15.7109794 158.972243,15.2649485 159.054191,14.6769588 C159.155525,13.8252062 159.155525,12.2233505 159.155525,10.3568557 L159.155525,6.78860825 L159.155525,6.78860825 Z" id="Fill-43"></path>
						<path d="M141.59578,13.4799485 C141.637194,15.0625258 141.901542,15.5891753 142.309519,15.731134 C142.656696,15.8538144 143.043525,15.8730928 143.370435,15.8730928 C143.594249,15.8730928 143.71673,15.9134021 143.71673,16.0360825 C143.71673,16.1981959 143.533449,16.2376289 143.247954,16.2376289 C141.92269,16.2376289 141.105855,16.1780412 140.719907,16.1780412 C140.535745,16.1780412 139.577043,16.2376289 138.517009,16.2376289 C138.25178,16.2376289 138.067617,16.2183505 138.067617,16.0360825 C138.067617,15.9134021 138.19098,15.8730928 138.393646,15.8730928 C138.659757,15.8730928 139.026319,15.8538144 139.311814,15.7723196 C139.841391,15.6102062 139.92422,15.0213402 139.944487,13.2573711 L140.127768,1.25134021 C140.127768,0.846494845 140.188568,0.561701031 140.392116,0.561701031 C140.616812,0.561701031 140.800093,0.826340206 141.14727,1.19087629 C141.392232,1.45376289 144.492151,4.76 147.468707,7.70082474 C148.855652,9.0792268 151.609275,11.9998969 151.95469,12.3241237 L152.056904,12.3241237 L151.853357,3.21948454 C151.83309,1.98128866 151.648928,1.59659794 151.159884,1.39417526 C150.853241,1.27149485 150.364197,1.27149485 150.079583,1.27149485 C149.833739,1.27149485 149.753554,1.21103093 149.753554,1.0892268 C149.753554,0.927113402 149.976487,0.906958763 150.28313,0.906958763 C151.343165,0.906958763 152.322133,0.96742268 152.750377,0.96742268 C152.975072,0.96742268 153.74873,0.906958763 154.748846,0.906958763 C155.014075,0.906958763 155.217623,0.927113402 155.217623,1.0892268 C155.217623,1.21103093 155.095142,1.27149485 154.85018,1.27149485 C154.647513,1.27149485 154.483617,1.27149485 154.239536,1.33283505 C153.667664,1.49494845 153.504649,1.92082474 153.484383,3.05649485 L153.259687,15.8538144 C153.259687,16.2989691 153.17862,16.4821134 152.995339,16.4821134 C152.770643,16.4821134 152.525681,16.2586598 152.301867,16.0360825 C151.017136,14.8189175 148.407142,12.1620103 146.286191,10.0738144 C144.063026,7.88309278 141.799328,5.34798969 141.431884,4.96329897 L141.371965,4.96329897 L141.59578,13.4799485" id="Fill-42"></path>
						<path d="M131.154041,9.93097938 C131.255374,9.93097938 131.275641,9.87051546 131.255374,9.81005155 L129.419919,4.80118557 C129.399652,4.71969072 129.378504,4.61804124 129.318586,4.61804124 C129.256904,4.61804124 129.21549,4.71969072 129.195223,4.80118557 L127.320116,9.78902062 C127.298968,9.87051546 127.320116,9.93097938 127.401183,9.93097938 L131.154041,9.93097938 Z M126.994087,10.9457216 C126.890991,10.9457216 126.850458,10.9860309 126.809925,11.1078351 L125.709357,14.0074742 C125.504928,14.5148454 125.403594,15.0011856 125.403594,15.2447938 C125.403594,15.6102062 125.586875,15.8730928 126.218667,15.8730928 L126.524429,15.8730928 C126.769391,15.8730928 126.831072,15.9134021 126.831072,16.0360825 C126.831072,16.1981959 126.70771,16.2376289 126.483014,16.2376289 C125.830957,16.2376289 124.954203,16.1780412 124.32153,16.1780412 C124.097716,16.1780412 122.976,16.2376289 121.915965,16.2376289 C121.650736,16.2376289 121.528255,16.1981959 121.528255,16.0360825 C121.528255,15.9134021 121.609322,15.8730928 121.773217,15.8730928 C121.95738,15.8730928 122.241994,15.8538144 122.405009,15.8327835 C123.343443,15.7109794 123.731154,15.0213402 124.138249,14.0074742 L129.256904,1.27149485 C129.501867,0.683505155 129.623467,0.460927835 129.827896,0.460927835 C130.011177,0.460927835 130.133658,0.643195876 130.337206,1.10938144 C130.828012,2.22489691 134.090064,10.4988144 135.395061,13.5815979 C136.1696,15.4069072 136.761739,15.6908247 137.189101,15.7924742 C137.495745,15.8538144 137.801507,15.8730928 138.04647,15.8730928 C138.209484,15.8730928 138.310817,15.8932474 138.310817,16.0360825 C138.310817,16.1981959 138.127536,16.2376289 137.372383,16.2376289 C136.638377,16.2376289 135.15098,16.2376289 133.519072,16.1981959 C133.15251,16.1780412 132.907548,16.1780412 132.907548,16.0360825 C132.907548,15.9134021 132.989496,15.8730928 133.192162,15.8538144 C133.335791,15.8126289 133.478539,15.6303608 133.375443,15.3867526 L131.745299,11.0876804 C131.704765,10.9860309 131.643084,10.9457216 131.539988,10.9457216 L126.994087,10.9457216 L126.994087,10.9457216 Z" id="Fill-41"></path>
						<path d="M115.980475,10.3568557 C115.980475,12.9524227 115.980475,14.352732 116.408719,14.717268 C116.755014,15.0213402 117.285472,15.163299 118.875965,15.163299 C119.958029,15.163299 120.751954,15.1431443 121.262145,14.5954639 C121.507107,14.3325773 121.75207,13.763866 121.792603,13.3791753 C121.81287,13.1969072 121.853403,13.0751031 122.016417,13.0751031 C122.160046,13.0751031 122.179432,13.1758763 122.179432,13.4194845 C122.179432,13.6429381 122.037565,15.163299 121.874551,15.7512887 C121.75207,16.1981959 121.649855,16.2989691 120.588939,16.2989691 C119.120928,16.2989691 118.060893,16.2586598 117.142725,16.2376289 C116.225438,16.1981959 115.491432,16.1780412 114.655212,16.1780412 C114.430516,16.1780412 113.982887,16.1780412 113.492962,16.1981959 C113.024186,16.1981959 112.493728,16.2376289 112.085751,16.2376289 C111.821403,16.2376289 111.677774,16.1780412 111.677774,16.0360825 C111.677774,15.934433 111.759722,15.8730928 112.004684,15.8730928 C112.310446,15.8730928 112.554528,15.8327835 112.737809,15.7924742 C113.145786,15.7109794 113.248881,15.2649485 113.329948,14.6769588 C113.432162,13.8252062 113.432162,12.2233505 113.432162,10.3568557 L113.432162,6.78860825 C113.432162,3.70582474 113.432162,3.13798969 113.390748,2.48953608 C113.350214,1.79902062 113.1872,1.47479381 112.513994,1.33283505 C112.350099,1.29164948 112.106017,1.27149485 111.840788,1.27149485 C111.616093,1.27149485 111.494493,1.23118557 111.494493,1.0892268 C111.494493,0.947268041 111.637241,0.906958763 111.943003,0.906958763 C112.900823,0.906958763 114.185554,0.96742268 114.736278,0.96742268 C115.226203,0.96742268 116.714481,0.906958763 117.510168,0.906958763 C117.796545,0.906958763 117.938412,0.947268041 117.938412,1.0892268 C117.938412,1.23118557 117.81593,1.27149485 117.571849,1.27149485 C117.347154,1.27149485 117.021125,1.29164948 116.776162,1.33283505 C116.225438,1.43360825 116.062423,1.77886598 116.021009,2.48953608 C115.980475,3.13798969 115.980475,3.70582474 115.980475,6.78860825 L115.980475,10.3568557" id="Fill-40"></path>
						<path d="M100.440348,15.9948969 C100.114319,15.8538144 100.052638,15.7512887 100.052638,15.306134 C100.052638,14.1906186 100.134586,12.9734536 100.155733,12.6492268 C100.176,12.3442784 100.2368,12.121701 100.399814,12.121701 C100.583096,12.121701 100.603362,12.3039691 100.603362,12.4669588 C100.603362,12.7298454 100.68531,13.1557216 100.787525,13.5001031 C101.236035,15.0011856 102.438817,15.548866 103.703281,15.548866 C105.538736,15.548866 106.435757,14.3115464 106.435757,13.2372165 C106.435757,12.2435052 106.129994,11.311134 104.437287,9.99231959 L103.498852,9.26237113 C101.256301,7.5185567 100.481762,6.09896907 100.481762,4.45592784 C100.481762,2.22489691 102.35687,0.623041237 105.192441,0.623041237 C106.517704,0.623041237 107.374191,0.826340206 107.904649,0.96742268 C108.08793,1.00860825 108.189264,1.06907216 108.189264,1.21103093 C108.189264,1.47479381 108.108197,2.06278351 108.108197,3.64448454 C108.108197,4.09139175 108.046516,4.25350515 107.883501,4.25350515 C107.741635,4.25350515 107.679954,4.13170103 107.679954,3.88809278 C107.679954,3.70582474 107.57862,3.07664948 107.149496,2.54912371 C106.843733,2.1635567 106.252475,1.55628866 104.92633,1.55628866 C103.417786,1.55628866 102.500499,2.42819588 102.500499,3.64448454 C102.500499,4.57773196 102.969275,5.28752577 104.661983,6.56515464 L105.232974,6.99103093 C107.70022,8.83561856 108.576974,10.2359278 108.576974,12.1620103 C108.576974,13.3379897 108.128464,14.738299 106.660452,15.6908247 C105.640951,16.3401546 104.498968,16.5224227 103.417786,16.5224227 C102.23527,16.5224227 101.317101,16.3804639 100.440348,15.9948969" id="Fill-39"></path>
						<path d="M92.6288696,6.78860825 C92.6288696,3.70582474 92.6288696,3.13798969 92.5883362,2.48953608 C92.5478029,1.79902062 92.3442551,1.45376289 91.8948638,1.35298969 C91.6710493,1.29164948 91.4058203,1.27149485 91.160858,1.27149485 C90.9581913,1.27149485 90.834829,1.23118557 90.834829,1.06907216 C90.834829,0.947268041 90.9978435,0.906958763 91.3247536,0.906958763 C92.0992928,0.906958763 93.3840232,0.96742268 93.9752812,0.96742268 C94.4854725,0.96742268 95.6891362,0.906958763 96.4627942,0.906958763 C96.7289043,0.906958763 96.8919188,0.947268041 96.8919188,1.06907216 C96.8919188,1.23118557 96.7685565,1.27149485 96.5658899,1.27149485 C96.3614609,1.27149485 96.1984464,1.29164948 95.9534841,1.33283505 C95.4027594,1.43360825 95.2397449,1.77886598 95.1983304,2.48953608 C95.1577971,3.13798969 95.1577971,3.70582474 95.1577971,6.78860825 L95.1577971,10.3568557 C95.1577971,12.3241237 95.1577971,13.9259794 95.2397449,14.7978866 C95.3014261,15.345567 95.4441739,15.7109794 96.0556986,15.7924742 C96.3411942,15.8327835 96.7888232,15.8730928 97.0954667,15.8730928 C97.3192812,15.8730928 97.4214957,15.934433 97.4214957,16.0360825 C97.4214957,16.1780412 97.2584812,16.2376289 97.0346667,16.2376289 C95.6891362,16.2376289 94.4044058,16.1780412 93.8536812,16.1780412 C93.3840232,16.1780412 92.0992928,16.2376289 91.2842203,16.2376289 C91.0181101,16.2376289 90.8753623,16.1780412 90.8753623,16.0360825 C90.8753623,15.934433 90.9581913,15.8730928 91.2022725,15.8730928 C91.5080348,15.8730928 91.7521159,15.8327835 91.9362783,15.7924742 C92.3442551,15.7109794 92.4658551,15.3665979 92.5275362,14.777732 C92.6288696,13.9259794 92.6288696,12.3241237 92.6288696,10.3568557 L92.6288696,6.78860825" id="Fill-38"></path>
						<path d="M73.6222609,6.78860825 C73.6222609,3.70582474 73.6222609,3.13798969 73.5817275,2.48953608 C73.540313,1.79902062 73.3772986,1.47479381 72.7049739,1.33283505 C72.5410783,1.29164948 72.1956638,1.27149485 71.909287,1.27149485 C71.6845913,1.27149485 71.5629913,1.23118557 71.5629913,1.0892268 C71.5629913,0.947268041 71.704858,0.906958763 72.0115014,0.906958763 C72.5613449,0.906958763 73.1534841,0.927113402 73.6627942,0.927113402 C74.1932522,0.947268041 74.6629101,0.96742268 74.9475246,0.96742268 C75.6004638,0.96742268 79.6582029,0.96742268 80.045913,0.947268041 C80.4336232,0.906958763 80.7596522,0.866649485 80.9226667,0.826340206 C81.0248812,0.805309278 81.1473623,0.744845361 81.2495768,0.744845361 C81.3509101,0.744845361 81.3711768,0.826340206 81.3711768,0.927113402 C81.3711768,1.06907216 81.2689623,1.31268041 81.2081623,2.24505155 C81.1878957,2.44835052 81.1473623,3.34041237 81.1059478,3.58402062 C81.0856812,3.6856701 81.0451478,3.80659794 80.9024,3.80659794 C80.7596522,3.80659794 80.7182377,3.70582474 80.7182377,3.5235567 C80.7182377,3.38159794 80.6988522,3.03634021 80.5966377,2.79273196 C80.4538899,2.42819588 80.2494609,2.18458763 79.2308406,2.06278351 C78.8827826,2.02247423 76.7415652,1.98128866 76.3344696,1.98128866 C76.2322551,1.98128866 76.1917217,2.04262887 76.1917217,2.18458763 L76.1917217,7.31525773 C76.1917217,7.45721649 76.2119884,7.53871134 76.3344696,7.53871134 C76.7829797,7.53871134 79.1277449,7.53871134 79.5974029,7.49840206 C80.0864464,7.45721649 80.3922087,7.39675258 80.5754899,7.19345361 C80.7182377,7.03134021 80.8001855,6.92969072 80.9024,6.92969072 C80.9843478,6.92969072 81.0451478,6.97087629 81.0451478,7.09180412 C81.0451478,7.21360825 80.9632,7.53871134 80.8821333,8.57273196 C80.8618667,8.97845361 80.8001855,9.78902062 80.8001855,9.93097938 C80.8001855,10.0939691 80.8001855,10.3165464 80.6169043,10.3165464 C80.4741565,10.3165464 80.4336232,10.2359278 80.4336232,10.1342784 C80.4124754,9.93097938 80.4124754,9.66809278 80.3516754,9.40345361 C80.2494609,8.99860825 79.9648464,8.69453608 79.2096928,8.61391753 C78.8228638,8.57273196 76.8032464,8.55257732 76.3142029,8.55257732 C76.2119884,8.55257732 76.1917217,8.63319588 76.1917217,8.755 L76.1917217,10.3568557 C76.1917217,11.0464948 76.1705739,12.9129897 76.1917217,13.5001031 C76.2322551,14.9004124 76.5582841,15.2036082 78.6387014,15.2036082 C79.1691594,15.2036082 80.0256464,15.2036082 80.5552232,14.96 C81.0856812,14.717268 81.3306435,14.2913918 81.4733913,13.4606701 C81.5139246,13.2372165 81.5553391,13.1557216 81.698087,13.1557216 C81.8611014,13.1557216 81.8611014,13.3178351 81.8611014,13.521134 C81.8611014,13.9873196 81.698087,15.3665979 81.5949913,15.7723196 C81.4522435,16.2989691 81.2689623,16.2989691 80.4944232,16.2989691 C78.9647304,16.2989691 77.8430145,16.2586598 76.9662609,16.2376289 C76.0895072,16.1981959 75.4585971,16.1780412 74.8461913,16.1780412 C74.6214957,16.1780412 74.1729855,16.1780412 73.6830609,16.1981959 C73.2142841,16.1981959 72.6847072,16.2376289 72.2767304,16.2376289 C72.0115014,16.2376289 71.8678725,16.1780412 71.8678725,16.0360825 C71.8678725,15.934433 71.9507014,15.8730928 72.1956638,15.8730928 C72.5005449,15.8730928 72.7446261,15.8327835 72.9287884,15.7924742 C73.3367652,15.7109794 73.4389797,15.2649485 73.5200464,14.6769588 C73.6222609,13.8252062 73.6222609,12.2233505 73.6222609,10.3568557 L73.6222609,6.78860825" id="Fill-37"></path>
						<path d="M57.2864464,9.01876289 C57.2864464,11.1691753 57.306713,12.7298454 57.3269797,13.1154124 C57.3481275,13.6227835 57.3886609,14.4333505 57.5516754,14.6568041 C57.8169043,15.0414948 58.6125913,15.4682474 60.2233507,15.4682474 C62.302887,15.4682474 63.6898319,15.0625258 64.9128812,14.0074742 C66.2187594,12.8919588 66.6258551,11.0464948 66.6258551,8.95829897 C66.6258551,6.3828866 65.5455536,4.71969072 64.6679188,3.88809278 C62.7928116,2.10396907 60.4674319,1.86036082 58.8769391,1.86036082 C58.4689623,1.86036082 57.7146899,1.92082474 57.5516754,2.0014433 C57.367513,2.08293814 57.306713,2.18458763 57.306713,2.40716495 C57.2864464,3.09680412 57.2864464,4.86164948 57.2864464,6.46262887 L57.2864464,9.01876289 Z M54.7372522,6.78860825 C54.7372522,3.70582474 54.7372522,3.13798969 54.6967188,2.48953608 C54.6553043,1.79902062 54.493171,1.47479381 53.8199652,1.33283505 C53.6560696,1.29164948 53.3097739,1.27149485 53.0242783,1.27149485 C52.8004638,1.27149485 52.6779826,1.23118557 52.6779826,1.0892268 C52.6779826,0.947268041 52.8207304,0.906958763 53.1264928,0.906958763 C54.2067942,0.906958763 55.4924058,0.96742268 56.0633971,0.96742268 C56.6951884,0.96742268 57.9799188,0.906958763 59.2029681,0.906958763 C61.7521623,0.906958763 65.1578435,0.906958763 67.3801275,3.21948454 C68.4005101,4.27365979 69.3583304,5.95613402 69.3583304,8.37030928 C69.3583304,10.925567 68.2771478,12.8718041 67.1360464,14.0285052 C66.1976116,14.9810309 64.0766609,16.4207732 60.3044174,16.4207732 C59.5695304,16.4207732 58.7341913,16.3603093 57.958771,16.2989691 C57.1842319,16.2376289 56.4704928,16.1780412 55.9603014,16.1780412 C55.736487,16.1780412 55.2879768,16.1780412 54.7989333,16.1981959 C54.3292754,16.1981959 53.7988174,16.2376289 53.3917217,16.2376289 C53.1264928,16.2376289 52.9837449,16.1780412 52.9837449,16.0360825 C52.9837449,15.934433 53.0648116,15.8730928 53.3097739,15.8730928 C53.6155362,15.8730928 53.8604986,15.8327835 54.0437797,15.7924742 C54.4517565,15.7109794 54.553971,15.2649485 54.6359188,14.6769588 C54.7372522,13.8252062 54.7372522,12.2233505 54.7372522,10.3568557 L54.7372522,6.78860825 L54.7372522,6.78860825 Z" id="Fill-36"></path>
						<path d="M48.0880232,8.95829897 C48.0880232,4.41561856 45.4577623,1.59659794 42.1128812,1.59659794 C39.7681159,1.59659794 37.0964406,2.89438144 37.0964406,7.9435567 C37.0964406,12.1620103 39.442087,15.5076804 43.3561971,15.5076804 C44.7836754,15.5076804 48.0880232,14.8189175 48.0880232,8.95829897 Z M34.2820174,8.57273196 C34.2820174,5.10438144 36.5871304,0.623041237 42.7041391,0.623041237 C47.7822609,0.623041237 50.9429797,3.56386598 50.9429797,8.20731959 C50.9429797,12.8516495 47.6800464,16.5224227 42.5005913,16.5224227 C36.6479304,16.5224227 34.2820174,12.1620103 34.2820174,8.57273196 L34.2820174,8.57273196 Z" id="Fill-35"></path>
						<path d="M27.9790841,7.35556701 C28.0407652,7.35556701 28.1024464,7.31525773 28.1024464,7.21360825 L28.1024464,6.78860825 C28.1024464,3.70582474 28.1024464,3.13798969 28.0610319,2.48953608 C28.0196174,1.79902062 27.8566029,1.47479381 27.1842783,1.33283505 C27.0212638,1.29164948 26.674087,1.27149485 26.3885913,1.27149485 C26.1638957,1.27149485 26.0422957,1.23118557 26.0422957,1.0892268 C26.0422957,0.947268041 26.1841623,0.906958763 26.4705391,0.906958763 C27.5711072,0.906958763 28.8558377,0.96742268 29.4065623,0.96742268 C29.896487,0.96742268 31.1812174,0.906958763 31.9760232,0.906958763 C32.2624,0.906958763 32.4042667,0.947268041 32.4042667,1.0892268 C32.4042667,1.23118557 32.2817855,1.27149485 32.0377043,1.27149485 C31.8746899,1.27149485 31.6905275,1.29164948 31.4455652,1.33283505 C30.8948406,1.43360825 30.7318261,1.77886598 30.6912928,2.48953608 C30.6507594,3.13798969 30.6507594,3.70582474 30.6507594,6.78860825 L30.6507594,10.3568557 C30.6507594,12.2233505 30.6507594,13.8252062 30.7529739,14.6971134 C30.8137739,15.2649485 30.9362551,15.7109794 31.5486609,15.7924742 C31.8332754,15.8327835 32.2817855,15.8730928 32.588429,15.8730928 C32.8122435,15.8730928 32.914458,15.934433 32.914458,16.0360825 C32.914458,16.1780412 32.7514435,16.2376289 32.5064812,16.2376289 C31.1812174,16.2376289 29.896487,16.1780412 29.3254957,16.1780412 C28.8558377,16.1780412 27.5711072,16.2376289 26.7763014,16.2376289 C26.4908058,16.2376289 26.348058,16.1780412 26.348058,16.0360825 C26.348058,15.934433 26.4300058,15.8730928 26.674087,15.8730928 C26.9798493,15.8730928 27.2248116,15.8327835 27.4080928,15.7924742 C27.8160696,15.7109794 27.9182841,15.2649485 27.9993507,14.6769588 C28.1024464,13.8252062 28.1024464,12.2233505 28.1024464,10.3568557 L28.1024464,8.57273196 C28.1024464,8.49123711 28.0407652,8.45092784 27.9790841,8.45092784 L20.1896348,8.45092784 C20.1288348,8.45092784 20.0671536,8.47108247 20.0671536,8.57273196 L20.0671536,10.3568557 C20.0671536,12.2233505 20.0671536,13.8252062 20.1693681,14.6971134 C20.2301681,15.2649485 20.3526493,15.7109794 20.9641739,15.7924742 C21.2496696,15.8327835 21.6981797,15.8730928 22.003942,15.8730928 C22.2286377,15.8730928 22.3308522,15.934433 22.3308522,16.0360825 C22.3308522,16.1780412 22.1678377,16.2376289 21.9228754,16.2376289 C20.5976116,16.2376289 19.3128812,16.1780412 18.7410087,16.1780412 C18.273113,16.1780412 16.9875014,16.2376289 16.172429,16.2376289 C15.9072,16.2376289 15.7644522,16.1780412 15.7644522,16.0360825 C15.7644522,15.934433 15.8455188,15.8730928 16.0904812,15.8730928 C16.3962435,15.8730928 16.6412058,15.8327835 16.824487,15.7924742 C17.2333449,15.7109794 17.3346783,15.2649485 17.4166261,14.6769588 C17.5179594,13.8252062 17.5179594,12.2233505 17.5179594,10.3568557 L17.5179594,6.78860825 C17.5179594,3.70582474 17.5179594,3.13798969 17.4774261,2.48953608 C17.4368928,1.79902062 17.2729971,1.47479381 16.6006725,1.33283505 C16.437658,1.29164948 16.0904812,1.27149485 15.8049855,1.27149485 C15.581171,1.27149485 15.4586899,1.23118557 15.4586899,1.0892268 C15.4586899,0.947268041 15.6014377,0.906958763 15.8869333,0.906958763 C16.9875014,0.906958763 18.273113,0.96742268 18.8229565,0.96742268 C19.3128812,0.96742268 20.5976116,0.906958763 21.3932986,0.906958763 C21.677913,0.906958763 21.8206609,0.947268041 21.8206609,1.0892268 C21.8206609,1.23118557 21.6981797,1.27149485 21.4532174,1.27149485 C21.2902029,1.27149485 21.1069217,1.29164948 20.8628406,1.33283505 C20.3121159,1.43360825 20.1482203,1.77886598 20.1085681,2.48953608 C20.0671536,3.13798969 20.0671536,3.70582474 20.0671536,6.78860825 L20.0671536,7.21360825 C20.0671536,7.31525773 20.1288348,7.35556701 20.1896348,7.35556701 L27.9790841,7.35556701" id="Fill-34"></path>
						<path d="M4.52614493,8.39046392 C4.52614493,8.61391753 4.56755942,8.69453608 4.71030725,8.755 C5.13855072,8.89695876 5.75095652,8.95829897 6.26026667,8.95829897 C7.07533913,8.95829897 7.34144928,8.87680412 7.70801159,8.61391753 C8.31953623,8.16701031 8.9107942,7.23376289 8.9107942,5.5714433 C8.9107942,2.69195876 6.99427246,1.86036082 5.79148986,1.86036082 C5.28129855,1.86036082 4.91385507,1.88051546 4.71030725,1.94185567 C4.56755942,1.98128866 4.52614493,2.06278351 4.52614493,2.22489691 L4.52614493,8.39046392 Z M2.12057971,6.78860825 C2.12057971,3.70582474 2.12057971,3.13798969 2.08004638,2.48953608 C2.03863188,1.79902062 1.87561739,1.47479381 1.20329275,1.33283505 C1.04027826,1.29164948 0.693101449,1.27149485 0.407605797,1.27149485 C0.182910145,1.27149485 0.0613101449,1.23118557 0.0613101449,1.0892268 C0.0613101449,0.947268041 0.203176812,0.906958763 0.50982029,0.906958763 C1.59012174,0.906958763 2.87485217,0.96742268 3.30309565,0.96742268 C3.99656812,0.96742268 5.54652754,0.906958763 6.17831884,0.906958763 C7.46304928,0.906958763 8.82972754,1.02876289 9.93117681,1.77886598 C10.5021681,2.1635567 11.3172406,3.19845361 11.3172406,4.55670103 C11.3172406,6.05778351 10.6845681,7.43706186 8.62617971,9.10025773 C10.440487,11.3715979 11.8476986,13.1758763 13.0504812,14.4333505 C14.1924638,15.6102062 15.0286841,15.7512887 15.3353275,15.8126289 C15.559142,15.8538144 15.7424232,15.8730928 15.9054377,15.8730928 C16.0693333,15.8730928 16.1504,15.934433 16.1504,16.0360825 C16.1504,16.1981959 16.0076522,16.2376289 15.7626899,16.2376289 L13.8259014,16.2376289 C12.6830377,16.2376289 12.1737275,16.1368557 11.6432696,15.8538144 C10.7673971,15.3867526 9.99197681,14.4333505 8.8499942,12.8718041 C8.03404058,11.7562887 7.09648696,10.3778866 6.83125797,10.0738144 C6.72904348,9.95113402 6.60656232,9.93097938 6.46469565,9.93097938 L4.69004058,9.89154639 C4.58782609,9.89154639 4.52614493,9.93097938 4.52614493,10.0536598 L4.52614493,10.336701 C4.52614493,12.2233505 4.52614493,13.8252062 4.62924058,14.6769588 C4.69004058,15.2649485 4.81252174,15.7109794 5.42404638,15.7924742 C5.73068986,15.8327835 6.17831884,15.8730928 6.42328116,15.8730928 C6.58629565,15.8730928 6.66824348,15.934433 6.66824348,16.0360825 C6.66824348,16.1780412 6.52461449,16.2376289 6.26026667,16.2376289 C5.07686957,16.2376289 3.5692058,16.1780412 3.26256232,16.1780412 C2.87485217,16.1780412 1.59012174,16.2376289 0.775049275,16.2376289 C0.50982029,16.2376289 0.366191304,16.1780412 0.366191304,16.0360825 C0.366191304,15.934433 0.44813913,15.8730928 0.693101449,15.8730928 C0.998863768,15.8730928 1.24382609,15.8327835 1.42710725,15.7924742 C1.83508406,15.7109794 1.93729855,15.2649485 2.01836522,14.6769588 C2.12057971,13.8252062 2.12057971,12.2233505 2.12057971,10.3568557 L2.12057971,6.78860825 L2.12057971,6.78860825 Z" id="Fill-33"></path>
					</g>
					<g id="Of" transform="translate(88.000000, 68.000000)" fill="#AA7F32">
						<path d="M23.8869797,10.3568557 C23.8869797,12.3039691 23.8869797,13.8252062 23.988313,14.6769588 C24.0499942,15.2649485 24.1724754,15.7109794 24.784,15.7924742 C25.0694957,15.8327835 25.518887,15.8730928 25.8035014,15.8730928 C26.0687304,15.8730928 26.1497971,15.934433 26.1497971,16.0360825 C26.1497971,16.1780412 26.0079304,16.2376289 25.7021681,16.2376289 C24.4174377,16.2376289 23.1327072,16.1780412 22.6022493,16.1780412 C22.0717913,16.1780412 20.7870609,16.2376289 20.0125217,16.2376289 C19.7270261,16.2376289 19.5842783,16.1981959 19.5842783,16.0360825 C19.5842783,15.934433 19.6653449,15.8730928 19.8900406,15.8730928 C20.1958029,15.8730928 20.4407652,15.8327835 20.6240464,15.7924742 C21.0320232,15.7109794 21.1342377,15.2649485 21.2153043,14.6769588 C21.3175188,13.8252062 21.3175188,12.3039691 21.3175188,10.3568557 L21.3175188,6.78860825 C21.3175188,3.70582474 21.3175188,3.13798969 21.2761043,2.48953608 C21.235571,1.79902062 21.0725565,1.47479381 20.4002319,1.33283505 C20.2363362,1.29164948 19.8900406,1.27149485 19.6045449,1.27149485 C19.4009971,1.27149485 19.2573681,1.23118557 19.2573681,1.10938144 C19.2573681,0.947268041 19.4203826,0.906958763 19.7270261,0.906958763 C20.2574841,0.906958763 20.848742,0.927113402 21.3783188,0.927113402 C21.9087768,0.947268041 22.3775536,0.96742268 22.6630493,0.96742268 C23.4375884,0.96742268 27.5772754,0.96742268 28.0469333,0.947268041 C28.4337623,0.927113402 28.6787246,0.927113402 28.8831536,0.866649485 C29.0056348,0.826340206 29.1069681,0.744845361 29.2091826,0.744845361 C29.2911304,0.744845361 29.3519304,0.826340206 29.3519304,0.927113402 C29.3519304,1.06907216 29.2497159,1.31268041 29.1889159,1.8393299 C29.1686493,2.04262887 29.1281159,3.23876289 29.0867014,3.48237113 C29.0664348,3.64448454 29.0250203,3.76716495 28.8831536,3.76716495 C28.7404058,3.76716495 28.6989913,3.66463918 28.6787246,3.44118557 C28.6787246,3.27907216 28.6787246,2.95484536 28.5562435,2.67180412 C28.4143768,2.38701031 27.9852522,2.08293814 27.210713,2.06278351 L24.0702609,2.0014433 C23.9477797,2.0014433 23.8869797,2.06278351 23.8869797,2.28623711 L23.8869797,7.35556701 C23.8869797,7.47737113 23.9072464,7.53871134 24.0297275,7.53871134 L26.6397217,7.5185567 C26.9860174,7.5185567 27.271513,7.5185567 27.5578899,7.49840206 C27.9447188,7.47737113 28.2310957,7.39675258 28.4337623,7.13298969 C28.5359768,7.01030928 28.5773913,6.92969072 28.6989913,6.92969072 C28.7809391,6.92969072 28.8214725,6.99103093 28.8214725,7.11283505 C28.8214725,7.23376289 28.7201391,7.74113402 28.658458,8.37030928 C28.6179246,8.77603093 28.5773913,9.70840206 28.5773913,9.85036082 C28.5773913,10.0326289 28.5773913,10.2359278 28.3729623,10.2359278 C28.2504812,10.2359278 28.2099478,10.0939691 28.2099478,9.95113402 C28.2099478,9.81005155 28.1694145,9.5664433 28.0874667,9.32371134 C27.9852522,9.03891753 27.680371,8.67350515 27.0476986,8.5928866 C26.5375072,8.53242268 24.3760232,8.53242268 24.0297275,8.53242268 C23.927513,8.53242268 23.8869797,8.57273196 23.8869797,8.71469072 L23.8869797,10.3568557" id="F"></path>
						<path d="M14.1986319,8.95829897 C14.1986319,4.41561856 11.568371,1.59659794 8.22348986,1.59659794 C5.87872464,1.59659794 3.20704928,2.89438144 3.20704928,7.9435567 C3.20704928,12.1620103 5.55269565,15.5076804 9.46768696,15.5076804 C10.8951652,15.5076804 14.1986319,14.8189175 14.1986319,8.95829897 Z M0.393507246,8.57273196 C0.393507246,5.10438144 2.69773913,0.623041237 8.81474783,0.623041237 C13.8928696,0.623041237 17.0544696,3.56386598 17.0544696,8.20731959 C17.0544696,12.8516495 13.7915362,16.5224227 8.6112,16.5224227 C2.75853913,16.5224227 0.393507246,12.1620103 0.393507246,8.57273196 L0.393507246,8.57273196 Z" id="O"></path>
					</g>
					<g id="University" transform="translate(86.000000, 29.000000)" fill="#AA7F32">
						<path d="M203.124267,16.8588144 C203.124267,15.1614433 202.808812,14.4691753 202.398191,13.5587113 C202.17702,13.0565979 197.942168,6.14268041 196.837194,4.50840206 C196.047675,3.3464433 195.256394,2.56041237 194.657206,2.21515464 C194.245704,1.99520619 193.708197,1.80680412 193.329299,1.80680412 C193.076406,1.80680412 192.854354,1.74371134 192.854354,1.5228866 C192.854354,1.33448454 193.076406,1.24072165 193.456186,1.24072165 C194.024533,1.24072165 196.393971,1.33448454 197.436383,1.33448454 C198.100777,1.33448454 199.396081,1.24072165 200.817391,1.24072165 C201.133728,1.24072165 201.292336,1.33448454 201.292336,1.5228866 C201.292336,1.71216495 201.070284,1.74371134 200.597101,1.86989691 C200.312487,1.9321134 200.154759,2.18360825 200.154759,2.43510309 C200.154759,2.68659794 200.312487,3.06340206 200.533658,3.50329897 C200.976,4.44618557 205.400301,12.0181959 205.905206,12.898866 C206.221542,12.1443814 210.20262,5.23134021 210.644962,4.25690722 C210.961299,3.56551546 211.087304,3.03185567 211.087304,2.62350515 C211.087304,2.30979381 210.961299,1.96365979 210.423791,1.83747423 C210.139177,1.77525773 209.854562,1.71216495 209.854562,1.5228866 C209.854562,1.30381443 210.013171,1.24072165 210.39207,1.24072165 C211.434481,1.24072165 212.446052,1.33448454 213.361577,1.33448454 C214.057693,1.33448454 216.143397,1.24072165 216.742586,1.24072165 C217.090643,1.24072165 217.311814,1.30381443 217.311814,1.49221649 C217.311814,1.71216495 217.059803,1.80680412 216.711745,1.80680412 C216.39629,1.80680412 215.794458,1.9321134 215.321275,2.18360825 C214.657762,2.49819588 214.310586,2.875 213.61447,3.72324742 C212.572058,4.97984536 208.149519,12.3652062 207.58029,13.7164433 C207.107107,14.847732 207.107107,15.8212887 207.107107,16.8588144 L207.107107,19.4351031 C207.107107,19.9372165 207.107107,21.2577835 207.20051,22.5783505 C207.263954,23.4888144 207.547687,24.1802062 208.495814,24.3055155 C208.938157,24.3686082 209.633391,24.431701 210.076614,24.431701 C210.423791,24.431701 210.5824,24.5245876 210.5824,24.6823196 C210.5824,24.9031443 210.329507,24.9977835 209.918887,24.9977835 C207.927467,24.9977835 205.936928,24.9031443 205.083965,24.9031443 C204.294446,24.9031443 202.303026,24.9977835 201.133728,24.9977835 C200.691386,24.9977835 200.438493,24.9338144 200.438493,24.6823196 C200.438493,24.5245876 200.597101,24.431701 200.944278,24.431701 C201.38662,24.431701 201.7664,24.3686082 202.049252,24.3055155 C202.681925,24.1802062 202.96742,23.4888144 203.029983,22.5783505 C203.124267,21.2577835 203.124267,19.9372165 203.124267,19.4351031 L203.124267,16.8588144" id="Y"></path>
						<path d="M180.248487,3.00118557 L175.541333,3.12649485 C173.707641,3.18958763 172.949843,3.3464433 172.47578,4.03783505 C172.159443,4.50840206 172.001716,4.88608247 171.938272,5.13670103 C171.876591,5.38819588 171.780545,5.51438144 171.591096,5.51438144 C171.370806,5.51438144 171.307362,5.35752577 171.307362,5.01139175 C171.307362,4.50840206 171.907432,1.64907216 171.969994,1.39757732 C172.065159,0.989226804 172.159443,0.800824742 172.349774,0.800824742 C172.602667,0.800824742 172.919003,1.11453608 173.707641,1.17762887 C174.625809,1.27139175 175.825067,1.33448454 176.868359,1.33448454 L189.380823,1.33448454 C190.392394,1.33448454 191.086748,1.24072165 191.560812,1.17762887 C192.034875,1.08298969 192.288649,1.0207732 192.414655,1.0207732 C192.634945,1.0207732 192.667548,1.20917526 192.667548,1.68061856 C192.667548,2.34046392 192.572383,4.50840206 192.572383,5.32597938 C192.540661,5.64056701 192.478099,5.82896907 192.288649,5.82896907 C192.034875,5.82896907 191.972313,5.6721134 191.940591,5.19979381 L191.90887,4.85453608 C191.845426,4.03783505 190.991583,3.15804124 188.180684,3.09494845 L184.198725,3.00118557 L184.198725,15.8843814 C184.198725,18.7752577 184.198725,21.2577835 184.357333,22.6081443 C184.450736,23.4888144 184.641067,24.1802062 185.589194,24.3055155 C186.032417,24.3686082 186.726771,24.431701 187.199954,24.431701 C187.548893,24.431701 187.705739,24.5245876 187.705739,24.6823196 C187.705739,24.9031443 187.452846,24.9977835 187.106551,24.9977835 C185.019965,24.9977835 183.029426,24.9031443 182.144742,24.9031443 C181.418667,24.9031443 179.428128,24.9977835 178.163664,24.9977835 C177.752162,24.9977835 177.531872,24.9031443 177.531872,24.6823196 C177.531872,24.5245876 177.657878,24.431701 178.037658,24.431701 C178.510841,24.431701 178.889739,24.3686082 179.175235,24.3055155 C179.807907,24.1802062 179.995594,23.4888144 180.090759,22.5783505 C180.248487,21.2577835 180.248487,18.7752577 180.248487,15.8843814 L180.248487,3.00118557" id="T"></path>
						<path d="M161.764406,10.3532474 C161.764406,5.57659794 161.764406,4.69680412 161.700962,3.69170103 C161.6384,2.62350515 161.322064,2.08896907 160.62771,1.9321134 C160.279652,1.83747423 159.869913,1.80680412 159.490133,1.80680412 C159.173797,1.80680412 158.984348,1.74371134 158.984348,1.49221649 C158.984348,1.30381443 159.237241,1.24072165 159.743026,1.24072165 C160.944046,1.24072165 162.934586,1.33448454 163.850991,1.33448454 C164.64051,1.33448454 166.505043,1.24072165 167.705183,1.24072165 C168.116684,1.24072165 168.369577,1.30381443 168.369577,1.49221649 C168.369577,1.74371134 168.179246,1.80680412 167.863791,1.80680412 C167.547455,1.80680412 167.294562,1.83747423 166.915664,1.90056701 C166.062701,2.05829897 165.809809,2.59195876 165.746365,3.69170103 C165.682922,4.69680412 165.682922,5.57659794 165.682922,10.3532474 L165.682922,15.8843814 C165.682922,18.9321134 165.682922,21.4146392 165.809809,22.765 C165.904093,23.615 166.126145,24.1802062 167.073391,24.3055155 C167.514852,24.3686082 168.210968,24.431701 168.685913,24.431701 C169.032209,24.431701 169.191699,24.5245876 169.191699,24.6823196 C169.191699,24.9031443 168.937925,24.9977835 168.589867,24.9977835 C166.505043,24.9977835 164.513623,24.9031443 163.660661,24.9031443 C162.934586,24.9031443 160.944046,24.9977835 159.679583,24.9977835 C159.268081,24.9977835 159.047791,24.9031443 159.047791,24.6823196 C159.047791,24.5245876 159.173797,24.431701 159.553577,24.431701 C160.026759,24.431701 160.405658,24.3686082 160.691154,24.3055155 C161.322064,24.1802062 161.511513,23.6447938 161.607559,22.7343299 C161.764406,21.4146392 161.764406,18.9321134 161.764406,15.8843814 L161.764406,10.3532474" id="I"></path>
						<path d="M141.638725,24.6201031 C141.132939,24.4001546 141.037774,24.2424227 141.037774,23.5519072 C141.037774,21.8229897 141.16378,19.9372165 141.196383,19.4351031 C141.228104,18.9645361 141.322388,18.6175258 141.575281,18.6175258 C141.859896,18.6175258 141.891617,18.900567 141.891617,19.1520619 C141.891617,19.5604124 142.017623,20.221134 142.175351,20.7547938 C142.870586,23.0795876 144.735119,23.9287113 146.693936,23.9287113 C149.537438,23.9287113 150.928788,22.012268 150.928788,20.345567 C150.928788,18.8068041 150.454725,17.3600515 147.832394,15.318299 L146.378481,14.1878866 C142.902307,11.4854124 141.702168,9.28505155 141.702168,6.73943299 C141.702168,3.28335052 144.608232,0.800824742 149.001693,0.800824742 C151.054794,0.800824742 152.38182,1.11453608 153.203942,1.33448454 C153.487675,1.39757732 153.646284,1.49221649 153.646284,1.71216495 C153.646284,2.12051546 153.520278,3.03185567 153.520278,5.48371134 C153.520278,6.17510309 153.424232,6.42484536 153.171339,6.42484536 C152.951049,6.42484536 152.855884,6.2364433 152.855884,5.86051546 C152.855884,5.57659794 152.698157,4.60304124 152.033762,3.78634021 C151.56058,3.18958763 150.644174,2.24670103 148.591072,2.24670103 C146.252475,2.24670103 144.830284,3.59793814 144.830284,5.48371134 C144.830284,6.92783505 145.556359,8.02845361 148.179571,10.0079897 L149.064255,10.6678351 C152.887606,13.5271649 154.246354,15.6951031 154.246354,18.6806186 C154.246354,20.503299 153.551119,22.6712371 151.276846,24.1477835 C149.696046,25.1546392 147.926678,25.4368041 146.252475,25.4368041 C144.418783,25.4368041 142.997472,25.2168557 141.638725,24.6201031" id="S"></path>
						<path d="M123.186365,12.8357732 C123.186365,13.1819072 123.249809,13.3072165 123.47098,13.4018557 C124.134493,13.6218041 125.08262,13.7164433 125.872139,13.7164433 C127.136603,13.7164433 127.546342,13.5902577 128.115571,13.1819072 C129.063699,12.4905155 129.979223,11.0455155 129.979223,8.46835052 C129.979223,4.00716495 127.009716,2.71814433 125.146064,2.71814433 C124.355664,2.71814433 123.787316,2.74969072 123.47098,2.84345361 C123.249809,2.90654639 123.186365,3.03185567 123.186365,3.28335052 L123.186365,12.8357732 Z M119.45818,10.3532474 C119.45818,5.57659794 119.45818,4.69680412 119.394736,3.69170103 C119.331293,2.62350515 119.0784,2.12051546 118.035988,1.90056701 C117.783977,1.83747423 117.245588,1.80680412 116.803246,1.80680412 C116.45607,1.80680412 116.26662,1.74371134 116.26662,1.5228866 C116.26662,1.30381443 116.487791,1.24072165 116.961855,1.24072165 C118.636939,1.24072165 120.626597,1.33448454 121.29011,1.33448454 C122.365125,1.33448454 124.766284,1.24072165 125.746133,1.24072165 C127.736672,1.24072165 129.854099,1.43 131.560023,2.59195876 C132.445588,3.18958763 133.709171,4.7914433 133.709171,6.89716495 C133.709171,9.22195876 132.728441,11.3592268 129.536881,13.9363918 C132.349542,17.4546907 134.530412,20.2518041 136.394945,22.1997938 C138.163432,24.0233505 139.459617,24.2424227 139.933681,24.3370619 C140.281739,24.4001546 140.565472,24.431701 140.818365,24.431701 C141.071258,24.431701 141.197264,24.5245876 141.197264,24.6823196 C141.197264,24.9338144 140.976093,24.9977835 140.598075,24.9977835 L137.595965,24.9977835 C135.825716,24.9977835 135.036197,24.8400515 134.214957,24.4001546 C132.855328,23.6772165 131.655188,22.1997938 129.884939,19.7803608 C128.621357,18.0523196 127.167443,15.9150515 126.756823,15.4436082 C126.599977,15.2560825 126.409646,15.2245361 126.188475,15.2245361 L123.439258,15.1614433 C123.28153,15.1614433 123.186365,15.2245361 123.186365,15.4129381 L123.186365,15.8528351 C123.186365,18.7752577 123.186365,21.2577835 123.344974,22.5783505 C123.439258,23.4888144 123.629588,24.1802062 124.576835,24.3055155 C125.050899,24.3686082 125.746133,24.431701 126.125032,24.431701 C126.377925,24.431701 126.50393,24.5245876 126.50393,24.6823196 C126.50393,24.9031443 126.283641,24.9977835 125.872139,24.9977835 C124.039328,24.9977835 121.701612,24.9031443 121.228429,24.9031443 C120.626597,24.9031443 118.636939,24.9977835 117.372475,24.9977835 C116.961855,24.9977835 116.739803,24.9031443 116.739803,24.6823196 C116.739803,24.5245876 116.86669,24.431701 117.245588,24.431701 C117.720533,24.431701 118.099432,24.3686082 118.383165,24.3055155 C119.015838,24.1802062 119.173565,23.4888144 119.300452,22.5783505 C119.45818,21.2577835 119.45818,18.7752577 119.45818,15.8843814 L119.45818,10.3532474 L119.45818,10.3532474 Z" id="R"></path>
						<path d="M99.8893913,10.3532474 C99.8893913,5.57659794 99.8893913,4.69680412 99.826829,3.69170103 C99.7633855,2.62350515 99.5104928,2.12051546 98.4680812,1.90056701 C98.2151884,1.83747423 97.6776812,1.80680412 97.2353391,1.80680412 C96.8881623,1.80680412 96.698713,1.74371134 96.698713,1.5228866 C96.698713,1.30381443 96.9190029,1.24072165 97.3930667,1.24072165 C98.246029,1.24072165 99.1624348,1.27139175 99.9528348,1.27139175 C100.774075,1.30381443 101.501032,1.33448454 101.943374,1.33448454 C102.954945,1.33448454 109.242899,1.33448454 109.843849,1.30381443 C110.443919,1.24072165 110.948823,1.17762887 111.201716,1.11453608 C111.359443,1.08298969 111.548893,0.989226804 111.707501,0.989226804 C111.865229,0.989226804 111.896951,1.11453608 111.896951,1.27139175 C111.896951,1.49221649 111.738342,1.86989691 111.644939,3.31489691 C111.612336,3.62860825 111.548893,5.01139175 111.48633,5.38819588 C111.454609,5.54592784 111.392046,5.73520619 111.169994,5.73520619 C110.948823,5.73520619 110.886261,5.57659794 110.886261,5.29443299 C110.886261,5.07448454 110.853658,4.53994845 110.69593,4.16314433 C110.474759,3.59793814 110.158423,3.22025773 108.579386,3.03185567 C108.041878,2.96876289 104.723432,2.90654639 104.092522,2.90654639 C103.933913,2.90654639 103.871351,3.00118557 103.871351,3.22025773 L103.871351,11.1708247 C103.871351,11.3907732 103.902191,11.5169588 104.092522,11.5169588 C104.786875,11.5169588 108.420777,11.5169588 109.147733,11.453866 C109.90553,11.3907732 110.379594,11.296134 110.664209,10.9824227 C110.886261,10.7300515 111.012267,10.5731959 111.169994,10.5731959 C111.296881,10.5731959 111.392046,10.6371649 111.392046,10.825567 C111.392046,11.0139691 111.265159,11.5169588 111.139154,13.1188144 C111.106551,13.7471134 111.012267,15.0037113 111.012267,15.2245361 C111.012267,15.4760309 111.012267,15.8212887 110.727652,15.8212887 C110.506481,15.8212887 110.443919,15.6951031 110.443919,15.5382474 C110.411316,15.2245361 110.411316,14.8153093 110.317032,14.4069588 C110.158423,13.7786598 109.716962,13.3072165 108.547664,13.1819072 C107.947594,13.1188144 104.818597,13.087268 104.0608,13.087268 C103.902191,13.087268 103.871351,13.2134536 103.871351,13.4018557 L103.871351,15.8843814 C103.871351,16.9534536 103.839629,19.8443299 103.871351,20.7547938 C103.933913,22.922732 104.439699,23.393299 107.662099,23.393299 C108.48422,23.393299 109.811246,23.393299 110.633368,23.0164948 C111.454609,22.640567 111.833507,21.9798454 112.054678,20.691701 C112.118122,20.345567 112.181565,20.221134 112.402736,20.221134 C112.654748,20.221134 112.654748,20.4717526 112.654748,20.7863402 C112.654748,21.5092784 112.402736,23.6447938 112.244128,24.2739691 C112.023838,25.0906701 111.738342,25.0906701 110.537322,25.0906701 C108.167884,25.0906701 106.430238,25.0284536 105.07149,24.9977835 C103.712742,24.9338144 102.732893,24.9031443 101.784765,24.9031443 C101.437588,24.9031443 100.742354,24.9031443 99.9836754,24.9338144 C99.2576,24.9338144 98.4363594,24.9977835 97.803687,24.9977835 C97.3930667,24.9977835 97.1718957,24.9031443 97.1718957,24.6823196 C97.1718957,24.5245876 97.2987826,24.431701 97.6776812,24.431701 C98.1517449,24.431701 98.5306435,24.3686082 98.815258,24.3055155 C99.4470493,24.1802062 99.6047768,23.4888144 99.7316638,22.5783505 C99.8893913,21.2577835 99.8893913,18.7752577 99.8893913,15.8843814 L99.8893913,10.3532474" id="E"></path>
						<path d="M73.1488464,4.32 C72.4210087,2.59195876 71.8843826,2.24670103 70.7468058,1.9321134 C70.272742,1.80680412 69.7678377,1.80680412 69.5149449,1.80680412 C69.2294493,1.80680412 69.1351652,1.71216495 69.1351652,1.5228866 C69.1351652,1.27139175 69.4832232,1.24072165 69.957287,1.24072165 C71.6314899,1.24072165 73.4325797,1.33448454 74.5384348,1.33448454 C75.3288348,1.33448454 76.8453101,1.24072165 78.425229,1.24072165 C78.8041275,1.24072165 79.1513043,1.30381443 79.1513043,1.5228866 C79.1513043,1.74371134 78.9627362,1.80680412 78.6781217,1.80680412 C78.1723362,1.80680412 77.6982725,1.83747423 77.4453797,2.02675258 C77.2242087,2.18360825 77.1299246,2.4035567 77.1299246,2.68659794 C77.1299246,3.09494845 77.413658,3.97474227 77.856,5.10603093 L83.2909913,19.371134 L83.4178783,19.371134 C84.7757449,15.9150515 88.8837101,5.79742268 89.6423884,3.72324742 C89.8001159,3.31489691 89.9270029,2.84345361 89.9270029,2.56041237 C89.9270029,2.30979381 89.8001159,2.05829897 89.5163826,1.96365979 C89.1374841,1.83747423 88.6625391,1.80680412 88.2519188,1.80680412 C87.9673043,1.80680412 87.7144116,1.77525773 87.7144116,1.55530928 C87.7144116,1.30381443 87.9990261,1.24072165 88.5990957,1.24072165 C90.1790145,1.24072165 91.5069217,1.33448454 91.917542,1.33448454 C92.4550493,1.33448454 93.9398029,1.24072165 94.8879304,1.24072165 C95.2985507,1.24072165 95.5514435,1.30381443 95.5514435,1.5228866 C95.5514435,1.74371134 95.3619942,1.80680412 95.045658,1.80680412 C94.7293217,1.80680412 94.0658087,1.80680412 93.4974609,2.18360825 C93.0859594,2.46664948 92.6127768,3.00118557 91.7598145,5.01139175 C90.5279536,7.96536082 89.6741101,9.66185567 87.9673043,13.5271649 C85.9459246,18.1145361 84.4602899,21.5408247 83.7659362,23.111134 C82.9438145,24.9338144 82.7543652,25.4368041 82.311142,25.4368041 C81.9005217,25.4368041 81.7119536,24.9977835 81.1110029,23.5194845 L73.1488464,4.32" id="V"></path>
						<path d="M61.3730319,10.3532474 C61.3730319,5.57659794 61.3730319,4.69680412 61.3095884,3.69170103 C61.2470261,2.62350515 60.931571,2.08896907 60.2363362,1.9321134 C59.8882783,1.83747423 59.477658,1.80680412 59.0978783,1.80680412 C58.7824232,1.80680412 58.5929739,1.74371134 58.5929739,1.49221649 C58.5929739,1.30381443 58.8458667,1.24072165 59.3516522,1.24072165 C60.5517913,1.24072165 62.5423304,1.33448454 63.4587362,1.33448454 C64.2482551,1.33448454 66.1136696,1.24072165 67.3138087,1.24072165 C67.724429,1.24072165 67.9773217,1.30381443 67.9773217,1.49221649 C67.9773217,1.74371134 67.7878725,1.80680412 67.4715362,1.80680412 C67.1560812,1.80680412 66.9031884,1.83747423 66.5242899,1.90056701 C65.6704464,2.05829897 65.4184348,2.59195876 65.3549913,3.69170103 C65.2915478,4.69680412 65.2915478,5.57659794 65.2915478,10.3532474 L65.2915478,15.8843814 C65.2915478,18.9321134 65.2915478,21.4146392 65.4184348,22.765 C65.5127188,23.615 65.7338899,24.1802062 66.6811362,24.3055155 C67.1234783,24.3686082 67.8195942,24.431701 68.293658,24.431701 C68.6408348,24.431701 68.7994435,24.5245876 68.7994435,24.6823196 C68.7994435,24.9031443 68.5465507,24.9977835 68.1984928,24.9977835 C66.1136696,24.9977835 64.1222493,24.9031443 63.269287,24.9031443 C62.5423304,24.9031443 60.5517913,24.9977835 59.2882087,24.9977835 C58.8767072,24.9977835 58.6555362,24.9031443 58.6555362,24.6823196 C58.6555362,24.5245876 58.7824232,24.431701 59.1613217,24.431701 C59.6353855,24.431701 60.0142841,24.3686082 60.2988986,24.3055155 C60.931571,24.1802062 61.1201391,23.6447938 61.2153043,22.7343299 C61.3730319,21.4146392 61.3730319,18.9321134 61.3730319,15.8843814 L61.3730319,10.3532474" id="I1"></path>
						<path d="M33.6209159,20.7232474 C33.6852406,23.1742268 34.0958609,23.9918041 34.7276522,24.2108763 C35.2642783,24.4001546 35.865229,24.431701 36.3701333,24.431701 C36.7181913,24.431701 36.9076406,24.4947938 36.9076406,24.6823196 C36.9076406,24.9338144 36.6230261,24.9977835 36.1815652,24.9977835 C34.1267014,24.9977835 32.8631188,24.9031443 32.2621681,24.9031443 C31.9784348,24.9031443 30.4936812,24.9977835 28.8503188,24.9977835 C28.4388174,24.9977835 28.1550841,24.9653608 28.1550841,24.6823196 C28.1550841,24.4947938 28.3445333,24.431701 28.6608696,24.431701 C29.0714899,24.431701 29.6398377,24.4001546 30.0821797,24.2739691 C30.9043014,24.0233505 31.0303072,23.111134 31.062029,20.3779897 L31.3466435,1.77525773 C31.3466435,1.14608247 31.4409275,0.706185567 31.7572638,0.706185567 C32.1044406,0.706185567 32.3890551,1.11453608 32.9265623,1.68061856 C33.3054609,2.08896907 38.1086609,7.21175258 42.7215304,11.7684536 C44.8697971,13.9039691 49.136371,18.4291237 49.6729971,18.9321134 L49.8307246,18.9321134 L49.5152696,4.82298969 C49.4835478,2.90654639 49.1989333,2.30979381 48.4402551,1.99520619 C47.9670725,1.80680412 47.2083942,1.80680412 46.7660522,1.80680412 C46.3871536,1.80680412 46.2602667,1.71216495 46.2602667,1.5228866 C46.2602667,1.27139175 46.6083246,1.24072165 47.0823884,1.24072165 C48.7257507,1.24072165 50.2413449,1.33448454 50.9057391,1.33448454 C51.2529159,1.33448454 52.4539362,1.24072165 54.0021333,1.24072165 C54.4127536,1.24072165 54.7290899,1.27139175 54.7290899,1.5228866 C54.7290899,1.71216495 54.5396406,1.80680412 54.160742,1.80680412 C53.8444058,1.80680412 53.591513,1.80680412 53.2126145,1.90056701 C52.3270493,2.15206186 52.0750377,2.81190722 52.0433159,4.57149485 L51.695258,24.4001546 C51.695258,25.0906701 51.5692522,25.3745876 51.2846377,25.3745876 C50.9365797,25.3745876 50.5576812,25.0284536 50.2105043,24.6823196 C48.2199652,22.7974227 44.1754435,18.6806186 40.8887188,15.4436082 C37.4442667,12.0506186 33.9372522,8.12221649 33.3680232,7.52546392 L33.2737391,7.52546392 L33.6209159,20.7232474" id="N"></path>
						<path d="M3.97342609,10.3532474 C3.97342609,5.57659794 3.97342609,4.69680412 3.91086377,3.69170103 C3.84742029,2.62350515 3.59452754,2.12051546 2.55211594,1.90056701 C2.29922319,1.83747423 1.76171594,1.80680412 1.31937391,1.80680412 C0.972197101,1.80680412 0.781866667,1.74371134 0.781866667,1.5228866 C0.781866667,1.30381443 1.00303768,1.24072165 1.47710145,1.24072165 C3.15218551,1.24072165 5.14272464,1.33448454 6.09085217,1.33448454 C6.84953043,1.33448454 8.84006957,1.24072165 9.97764638,1.24072165 C10.4517101,1.24072165 10.6728812,1.30381443 10.6728812,1.5228866 C10.6728812,1.74371134 10.4834319,1.80680412 10.1670957,1.80680412 C9.81903768,1.80680412 9.62958841,1.83747423 9.25068986,1.90056701 C8.39684638,2.05829897 8.14483478,2.59195876 8.0813913,3.69170103 C8.01794783,4.69680412 8.01794783,5.57659794 8.01794783,10.3532474 L8.01794783,14.7530928 C8.01794783,19.3089175 8.93435362,21.2253608 10.4834319,22.4837113 C11.904742,23.6447938 13.3586551,23.7709794 14.4327884,23.7709794 C15.823258,23.7709794 17.5291826,23.3310825 18.7936464,22.0753608 C20.5312928,20.345567 20.6255768,17.5186598 20.6255768,14.2816495 L20.6255768,10.3532474 C20.6255768,5.57659794 20.6255768,4.69680412 20.5621333,3.69170103 C20.499571,2.62350515 20.2466783,2.12051546 19.2042667,1.90056701 C18.9513739,1.83747423 18.4138667,1.80680412 18.0658087,1.80680412 C17.7186319,1.80680412 17.5291826,1.74371134 17.5291826,1.5228866 C17.5291826,1.30381443 17.7503536,1.24072165 18.1926957,1.24072165 C19.8043362,1.24072165 21.7948754,1.33448454 21.8265971,1.33448454 C22.2054957,1.33448454 24.1960348,1.24072165 25.4287768,1.24072165 C25.8711188,1.24072165 26.0922899,1.30381443 26.0922899,1.5228866 C26.0922899,1.74371134 25.9028406,1.80680412 25.5230609,1.80680412 C25.1758841,1.80680412 24.9864348,1.83747423 24.6075362,1.90056701 C23.7536928,2.05829897 23.5008,2.59195876 23.4373565,3.69170103 C23.3747942,4.69680412 23.3747942,5.57659794 23.3747942,10.3532474 L23.3747942,13.7164433 C23.3747942,17.2031959 23.0276174,20.9116495 20.3726841,23.1742268 C18.1292522,25.0906701 15.8549797,25.4368041 13.8009971,25.4368041 C12.125913,25.4368041 9.09296232,25.3421649 6.78608696,23.2679897 C5.17444638,21.8229897 3.97342609,19.4981959 3.97342609,14.9414948 L3.97342609,10.3532474" id="U"></path>
					</g>
					<g id="The" transform="translate(86.000000, 0.000000)" fill="#AA7F32">
						<path d="M38.0046841,6.46175258 C38.0046841,3.34829897 38.0046841,2.77520619 37.9641507,2.11974227 C37.9227362,1.42309278 37.7579594,1.09536082 37.0785855,0.952525773 C36.9129275,0.911340206 36.5639884,0.890309278 36.2749681,0.890309278 C36.0485101,0.890309278 35.9251478,0.849123711 35.9251478,0.70628866 C35.9251478,0.563453608 36.069658,0.522268041 36.3780638,0.522268041 C36.9340754,0.522268041 37.5315014,0.54242268 38.0460986,0.54242268 C38.5818435,0.563453608 39.0550261,0.583608247 39.3431652,0.583608247 C40.0022725,0.583608247 44.1005449,0.583608247 44.4926609,0.563453608 C44.8830145,0.522268041 45.2125681,0.481082474 45.3773449,0.439896907 C45.4804406,0.419742268 45.6046841,0.358402062 45.7068986,0.358402062 C45.8099942,0.358402062 45.831142,0.439896907 45.831142,0.54242268 C45.831142,0.686134021 45.7271652,0.931494845 45.6654841,1.87350515 C45.6452174,2.0785567 45.6046841,2.97938144 45.5632696,3.22561856 C45.5430029,3.32814433 45.5007072,3.45082474 45.3570783,3.45082474 C45.2125681,3.45082474 45.1720348,3.34829897 45.1720348,3.16427835 C45.1720348,3.02056701 45.1517681,2.67268041 45.0477913,2.4264433 C44.9041623,2.05840206 44.697971,1.81304124 43.6687768,1.68948454 C43.3180754,1.64829897 41.1557101,1.60798969 40.7442087,1.60798969 C40.641113,1.60798969 40.5996986,1.6693299 40.5996986,1.81304124 L40.5996986,6.99365979 C40.5996986,7.13737113 40.6199652,7.21886598 40.7442087,7.21886598 C41.1971246,7.21886598 43.5656812,7.21886598 44.0397449,7.17768041 C44.5331942,7.13737113 44.8424812,7.07603093 45.0275246,6.87097938 C45.1720348,6.7071134 45.2539826,6.60458763 45.3570783,6.60458763 C45.4390261,6.60458763 45.5007072,6.6457732 45.5007072,6.76845361 C45.5007072,6.89113402 45.4187594,7.21886598 45.3359304,8.26340206 C45.3165449,8.67350515 45.2539826,9.49283505 45.2539826,9.6356701 C45.2539826,9.79953608 45.2539826,10.0247423 45.0689391,10.0247423 C44.924429,10.0247423 44.8830145,9.94324742 44.8830145,9.83984536 C44.8627478,9.6356701 44.8627478,9.36927835 44.8010667,9.1028866 C44.697971,8.69365979 44.4089507,8.38695876 43.647629,8.30371134 C43.2563942,8.26340206 41.2182725,8.24324742 40.723942,8.24324742 C40.6199652,8.24324742 40.5996986,8.32474227 40.5996986,8.44742268 L40.5996986,10.0650515 C40.5996986,10.761701 40.5794319,12.6457216 40.5996986,13.2398454 C40.641113,14.6524227 40.9706667,14.9608763 43.0713507,14.9608763 C43.6070957,14.9608763 44.471513,14.9608763 45.007258,14.7146392 C45.5430029,14.4692784 45.7897275,14.0390206 45.9342377,13.1995361 C45.974771,12.9743299 46.0161855,12.8919588 46.1606957,12.8919588 C46.3245913,12.8919588 46.3245913,13.0558247 46.3245913,13.2608763 C46.3245913,13.7314433 46.1606957,15.123866 46.0576,15.5339691 C45.9130899,16.0667526 45.7271652,16.0667526 44.9455768,16.0667526 C43.4009043,16.0667526 42.2686145,16.025567 41.3821681,16.0045361 C40.4974841,15.9633505 39.8586435,15.9431959 39.2409507,15.9431959 C39.0144928,15.9431959 38.5615768,15.9431959 38.0672464,15.9633505 C37.5931826,15.9633505 37.0574377,16.0045361 36.6459362,16.0045361 C36.3780638,16.0045361 36.2335536,15.9431959 36.2335536,15.8003608 C36.2335536,15.6978351 36.3163826,15.6364948 36.5639884,15.6364948 C36.8723942,15.6364948 37.1191188,15.5953093 37.3050435,15.5541237 C37.7165449,15.4726289 37.8196406,15.0222165 37.9024696,14.4272165 C38.0046841,13.5675773 38.0046841,11.9499485 38.0046841,10.0650515 L38.0046841,6.46175258" id="Fill-46"></path>
						<path d="M28.552487,7.03484536 C28.6141681,7.03484536 28.6758493,6.99365979 28.6758493,6.89113402 L28.6758493,6.46175258 C28.6758493,3.34829897 28.6758493,2.77520619 28.6344348,2.11974227 C28.5930203,1.42309278 28.4291246,1.09536082 27.7488696,0.952525773 C27.5840928,0.911340206 27.2342725,0.890309278 26.9461333,0.890309278 C26.7196754,0.890309278 26.5954319,0.849123711 26.5954319,0.70628866 C26.5954319,0.563453608 26.7408232,0.522268041 27.0280812,0.522268041 C28.1401043,0.522268041 29.4380522,0.583608247 29.9940638,0.583608247 C30.4883942,0.583608247 31.7854609,0.522268041 32.5881971,0.522268041 C32.8772174,0.522268041 33.0208464,0.563453608 33.0208464,0.70628866 C33.0208464,0.849123711 32.8974841,0.890309278 32.6507594,0.890309278 C32.4859826,0.890309278 32.300058,0.911340206 32.0533333,0.952525773 C31.4973217,1.05417526 31.3325449,1.40293814 31.2911304,2.11974227 C31.2497159,2.77520619 31.2497159,3.34829897 31.2497159,6.46175258 L31.2497159,10.0650515 C31.2497159,11.9499485 31.2497159,13.5675773 31.3536928,14.4482474 C31.4144928,15.0222165 31.5387362,15.4726289 32.1555478,15.5541237 C32.4445681,15.5953093 32.8974841,15.6364948 33.206771,15.6364948 C33.433229,15.6364948 33.5363246,15.6978351 33.5363246,15.8003608 C33.5363246,15.9431959 33.3715478,16.0045361 33.123942,16.0045361 C31.7854609,16.0045361 30.4883942,15.9431959 29.9112348,15.9431959 C29.4380522,15.9431959 28.1401043,16.0045361 27.3373681,16.0045361 C27.049229,16.0045361 26.9047188,15.9431959 26.9047188,15.8003608 C26.9047188,15.6978351 26.9875478,15.6364948 27.2342725,15.6364948 C27.5426783,15.6364948 27.7902841,15.5953093 27.9753275,15.5541237 C28.3877101,15.4726289 28.4908058,15.0222165 28.5727536,14.4272165 C28.6758493,13.5675773 28.6758493,11.9499485 28.6758493,10.0650515 L28.6758493,8.26340206 C28.6758493,8.18190722 28.6141681,8.14072165 28.552487,8.14072165 L20.6854957,8.14072165 C20.6238145,8.14072165 20.5621333,8.16175258 20.5621333,8.26340206 L20.5621333,10.0650515 C20.5621333,11.9499485 20.5621333,13.5675773 20.665229,14.4482474 C20.726029,15.0222165 20.8502725,15.4726289 21.4679652,15.5541237 C21.7561043,15.5953093 22.2090203,15.6364948 22.5183072,15.6364948 C22.7447652,15.6364948 22.8478609,15.6978351 22.8478609,15.8003608 C22.8478609,15.9431959 22.6830841,16.0045361 22.4354783,16.0045361 C21.0969971,16.0045361 19.7999304,15.9431959 19.2236522,15.9431959 C18.7495884,15.9431959 17.4525217,16.0045361 16.6286377,16.0045361 C16.3607652,16.0045361 16.2171362,15.9431959 16.2171362,15.8003608 C16.2171362,15.6978351 16.2990841,15.6364948 16.5458087,15.6364948 C16.8550957,15.6364948 17.1027014,15.5953093 17.2877449,15.5541237 C17.6992464,15.4726289 17.802342,15.0222165 17.885171,14.4272165 C17.9882667,13.5675773 17.9882667,11.9499485 17.9882667,10.0650515 L17.9882667,6.46175258 C17.9882667,3.34829897 17.9882667,2.77520619 17.9468522,2.11974227 C17.9054377,1.42309278 17.7406609,1.09536082 17.061287,0.952525773 C16.8965101,0.911340206 16.5458087,0.890309278 16.2576696,0.890309278 C16.0312116,0.890309278 15.9078493,0.849123711 15.9078493,0.70628866 C15.9078493,0.563453608 16.0523594,0.522268041 16.3396174,0.522268041 C17.4525217,0.522268041 18.7495884,0.583608247 19.3056,0.583608247 C19.7999304,0.583608247 21.0969971,0.522268041 21.9006145,0.522268041 C22.1887536,0.522268041 22.3332638,0.563453608 22.3332638,0.70628866 C22.3332638,0.849123711 22.2090203,0.890309278 21.9622957,0.890309278 C21.7975188,0.890309278 21.6115942,0.911340206 21.3648696,0.952525773 C20.8097391,1.05417526 20.6440812,1.40293814 20.6035478,2.11974227 C20.5621333,2.77520619 20.5621333,3.34829897 20.5621333,6.46175258 L20.5621333,6.89113402 C20.5621333,6.99365979 20.6238145,7.03484536 20.6854957,7.03484536 L28.552487,7.03484536" id="Fill-45"></path>
						<path d="M6.10495072,1.6693299 L3.03675362,1.75082474 C1.84190145,1.79201031 1.34845217,1.89453608 1.03916522,2.34494845 C0.832973913,2.65164948 0.729878261,2.8978866 0.689344928,3.06175258 C0.647930435,3.22561856 0.586249275,3.3071134 0.462886957,3.3071134 C0.318376812,3.3071134 0.276962319,3.20458763 0.276962319,2.97938144 C0.276962319,2.65164948 0.668197101,0.788659794 0.709611594,0.623917526 C0.771292754,0.358402062 0.832973913,0.234845361 0.956336232,0.234845361 C1.12111304,0.234845361 1.32730435,0.439896907 1.84190145,0.481082474 C2.43932754,0.54242268 3.2217971,0.583608247 3.90117101,0.583608247 L12.0571826,0.583608247 C12.7162899,0.583608247 13.1692058,0.522268041 13.4776116,0.481082474 C13.7860174,0.419742268 13.9507942,0.378556701 14.0336232,0.378556701 C14.1772522,0.378556701 14.1984,0.502113402 14.1984,0.808814433 C14.1984,1.23907216 14.1367188,2.65164948 14.1367188,3.18443299 C14.115571,3.38948454 14.0750377,3.51216495 13.9507942,3.51216495 C13.7860174,3.51216495 13.7446029,3.40963918 13.7243362,3.10293814 L13.7040696,2.87773196 C13.6626551,2.34494845 13.1066435,1.77185567 11.2738319,1.72979381 L8.67881739,1.6693299 L8.67881739,10.0650515 C8.67881739,11.9499485 8.67881739,13.5675773 8.7827942,14.4482474 C8.8435942,15.0222165 8.96783768,15.4726289 9.58464928,15.5541237 C9.87366957,15.5953093 10.3265855,15.6364948 10.6358725,15.6364948 C10.8623304,15.6364948 10.9654261,15.6978351 10.9654261,15.8003608 C10.9654261,15.9431959 10.8006493,16.0045361 10.5741913,16.0045361 C9.21456232,16.0045361 7.91749565,15.9431959 7.34033623,15.9431959 C6.86715362,15.9431959 5.5692058,16.0045361 4.74532174,16.0045361 C4.47833043,16.0045361 4.33382029,15.9431959 4.33382029,15.8003608 C4.33382029,15.6978351 4.41664928,15.6364948 4.66337391,15.6364948 C4.97177971,15.6364948 5.21938551,15.5953093 5.40442899,15.5541237 C5.81681159,15.4726289 5.94017391,15.0222165 6.00185507,14.4272165 C6.10495072,13.5675773 6.10495072,11.9499485 6.10495072,10.0650515 L6.10495072,1.6693299" id="Fill-44"></path>
						</g>
				</g>
			</g>
			<rect id="bg-rect" x="0" y="0" width="305" height="85" />
    </g>
  </a>
</svg>