<?xml version="1.0" encoding="UTF-8" standalone="no"?>
<!DOCTYPE svg PUBLIC "-//W3C//DTD SVG 1.1//EN" "http://www.w3.org/Graphics/SVG/1.1/DTD/svg11.dtd">
<svg xmlns="http://www.w3.org/2000/svg" xmlns:xl="http://www.w3.org/1999/xlink" version="1.1" viewBox="0 0 321 170" width="321pt" height="170pt" xmlns:dc="http://purl.org/dc/elements/1.1/"><metadata> Produced by OmniGraffle 6.5.3 <dc:date>2016-05-16 13:46:47 +0000</dc:date></metadata><defs/><g stroke="none" stroke-opacity="1" stroke-dasharray="none" fill="none" fill-opacity="1"><title>Canvas 1</title><g><title>Layer 1</title><path d="M 4.2308 45.0184 C 4.2308 39.5204 4.2308 38.5094 4.1588 37.3514 C 4.0868 36.1224 3.7968 35.5434 2.6038 35.2904 C 2.3148 35.2184 1.6998 35.1824 1.1928 35.1824 C .7958 35.1824 .5788 35.1104 .5788 34.8564 C .5788 34.6034 .8318 34.5314 1.3738 34.5314 C 3.2908 34.5314 5.5688 34.6394 6.6538 34.6394 C 7.5218 34.6394 9.8008 34.5314 11.1018 34.5314 C 11.6438 34.5314 11.8978 34.6034 11.8978 34.8564 C 11.8978 35.1104 11.6808 35.1824 11.3188 35.1824 C 10.9208 35.1824 10.7048 35.2184 10.2698 35.2904 C 9.2938 35.4714 9.0038 36.0864 8.9318 37.3514 C 8.8588 38.5094 8.8588 39.5204 8.8588 45.0184 L 8.8588 50.0814 C 8.8588 55.3254 9.9078 57.5314 11.6808 58.9784 C 13.3078 60.3144 14.9708 60.4604 16.2008 60.4604 C 17.7928 60.4604 19.7448 59.9544 21.1918 58.5084 C 23.1808 56.5184 23.2888 53.2644 23.2888 49.5394 L 23.2888 45.0184 C 23.2888 39.5204 23.2888 38.5094 23.2158 37.3514 C 23.1438 36.1224 22.8538 35.5434 21.6608 35.2904 C 21.3718 35.2184 20.7568 35.1824 20.3588 35.1824 C 19.9618 35.1824 19.7448 35.1104 19.7448 34.8564 C 19.7448 34.6034 19.9988 34.5314 20.5038 34.5314 C 22.3488 34.5314 24.6268 34.6394 24.6628 34.6394 C 25.0968 34.6394 27.3748 34.5314 28.7858 34.5314 C 29.2908 34.5314 29.5448 34.6034 29.5448 34.8564 C 29.5448 35.1104 29.3278 35.1824 28.8938 35.1824 C 28.4958 35.1824 28.2798 35.2184 27.8448 35.2904 C 26.8688 35.4714 26.5798 36.0864 26.5068 37.3514 C 26.4358 38.5094 26.4358 39.5204 26.4358 45.0184 L 26.4358 48.8884 C 26.4358 52.9014 26.0368 57.1694 22.9998 59.7734 C 20.4318 61.9784 17.8278 62.3764 15.4778 62.3764 C 13.5618 62.3764 10.0898 62.2674 7.4498 59.8814 C 5.6048 58.2184 4.2308 55.5424 4.2308 50.2984 Z" fill="#01204f"/><path d="M 38.1617 56.9527 C 38.2337 59.7727 38.7047 60.7137 39.4267 60.9667 C 40.0427 61.1837 40.7287 61.2197 41.3077 61.2197 C 41.7067 61.2197 41.9227 61.2927 41.9227 61.5077 C 41.9227 61.7967 41.5977 61.8717 41.0917 61.8717 C 38.7407 61.8717 37.2937 61.7627 36.6067 61.7627 C 36.2807 61.7627 34.5817 61.8717 32.7017 61.8717 C 32.2307 61.8717 31.9057 61.8347 31.9057 61.5077 C 31.9057 61.2927 32.1227 61.2197 32.4847 61.2197 C 32.9547 61.2197 33.6057 61.1837 34.1117 61.0387 C 35.0517 60.7497 35.1957 59.6997 35.2327 56.5547 L 35.5587 35.1467 C 35.5587 34.4227 35.6667 33.9167 36.0277 33.9167 C 36.4257 33.9167 36.7517 34.3867 37.3667 35.0377 C 37.7997 35.5077 43.2967 41.4027 48.5767 46.6457 C 51.0357 49.1047 55.9177 54.3117 56.5327 54.8907 L 56.7127 54.8907 L 56.3517 38.6547 C 56.3157 36.4487 55.9897 35.7617 55.1217 35.3987 C 54.5807 35.1827 53.7117 35.1827 53.2047 35.1827 C 52.7727 35.1827 52.6277 35.0737 52.6277 34.8557 C 52.6277 34.5677 53.0247 34.5307 53.5677 34.5307 C 55.4477 34.5307 57.1837 34.6397 57.9427 34.6397 C 58.3407 34.6397 59.7157 34.5307 61.4877 34.5307 C 61.9567 34.5307 62.3187 34.5677 62.3187 34.8557 C 62.3187 35.0737 62.1017 35.1827 61.6687 35.1827 C 61.3067 35.1827 61.0177 35.1827 60.5837 35.2907 C 59.5697 35.5797 59.2807 36.3387 59.2447 38.3647 L 58.8467 61.1837 C 58.8467 61.9787 58.7027 62.3047 58.3767 62.3047 C 57.9787 62.3047 57.5447 61.9067 57.1477 61.5077 C 54.8697 59.3397 50.2407 54.6017 46.4797 50.8757 C 42.5367 46.9707 38.5237 42.4507 37.8727 41.7637 L 37.7637 41.7637 Z" fill="#01204f"/><path d="M 69.9231 45.0184 C 69.9231 39.5204 69.9231 38.5094 69.8511 37.3514 C 69.7791 36.1224 69.4171 35.5074 68.6211 35.3264 C 68.2241 35.2184 67.7541 35.1824 67.3191 35.1824 C 66.9571 35.1824 66.7411 35.1104 66.7411 34.8204 C 66.7411 34.6034 67.0311 34.5314 67.6101 34.5314 C 68.9821 34.5314 71.2611 34.6394 72.3101 34.6394 C 73.2141 34.6394 75.3471 34.5314 76.7221 34.5314 C 77.1921 34.5314 77.4801 34.6034 77.4801 34.8204 C 77.4801 35.1104 77.2641 35.1824 76.9021 35.1824 C 76.5411 35.1824 76.2511 35.2184 75.8181 35.2904 C 74.8411 35.4714 74.5521 36.0864 74.4791 37.3514 C 74.4071 38.5094 74.4071 39.5204 74.4071 45.0184 L 74.4071 51.3834 C 74.4071 54.8914 74.4071 57.7484 74.5521 59.3024 C 74.6611 60.2804 74.9131 60.9304 75.9981 61.0744 C 76.5041 61.1474 77.3011 61.2194 77.8431 61.2194 C 78.2411 61.2194 78.4221 61.3274 78.4221 61.5084 C 78.4221 61.7624 78.1321 61.8704 77.7341 61.8704 C 75.3471 61.8704 73.0691 61.7624 72.0921 61.7624 C 71.2611 61.7624 68.9821 61.8704 67.5361 61.8704 C 67.0661 61.8704 66.8131 61.7624 66.8131 61.5084 C 66.8131 61.3274 66.9571 61.2194 67.3911 61.2194 C 67.9341 61.2194 68.3681 61.1474 68.6931 61.0744 C 69.4171 60.9304 69.6341 60.3144 69.7421 59.2664 C 69.9231 57.7484 69.9231 54.8914 69.9231 51.3834 Z" fill="#01204f"/><path d="M 83.3994 38.0753 C 82.5664 36.0863 81.9524 35.6883 80.6514 35.3273 C 80.1084 35.1833 79.5294 35.1833 79.2404 35.1833 C 78.9144 35.1833 78.8054 35.0743 78.8054 34.8563 C 78.8054 34.5673 79.2034 34.5303 79.7474 34.5303 C 81.6624 34.5303 83.7244 34.6393 84.9914 34.6393 C 85.8944 34.6393 87.6304 34.5303 89.4384 34.5303 C 89.8714 34.5303 90.2704 34.6043 90.2704 34.8563 C 90.2704 35.1093 90.0524 35.1833 89.7274 35.1833 C 89.1484 35.1833 88.6064 35.2183 88.3174 35.4353 C 88.0644 35.6163 87.9554 35.8693 87.9554 36.1943 C 87.9554 36.6653 88.2814 37.6773 88.7874 38.9793 L 95.0084 55.3963 L 95.1524 55.3963 C 96.7074 51.4183 101.4084 39.7743 102.2764 37.3873 C 102.4564 36.9183 102.6014 36.3763 102.6014 36.0493 C 102.6014 35.7623 102.4564 35.4723 102.1314 35.3623 C 101.6974 35.2183 101.1554 35.1833 100.6854 35.1833 C 100.3594 35.1833 100.0694 35.1463 100.0694 34.8933 C 100.0694 34.6043 100.3954 34.5303 101.0824 34.5303 C 102.8914 34.5303 104.4094 34.6393 104.8794 34.6393 C 105.4954 34.6393 107.1944 34.5303 108.2794 34.5303 C 108.7494 34.5303 109.0384 34.6043 109.0384 34.8563 C 109.0384 35.1093 108.8214 35.1833 108.4594 35.1833 C 108.0984 35.1833 107.3384 35.1833 106.6874 35.6163 C 106.2174 35.9413 105.6764 36.5573 104.6994 38.8703 C 103.2894 42.2693 102.3124 44.2233 100.3594 48.6713 C 98.0454 53.9503 96.3454 57.8933 95.5504 59.7003 C 94.6094 61.7973 94.3924 62.3773 93.8864 62.3773 C 93.4164 62.3773 93.1994 61.8713 92.5124 60.1713 Z" fill="#01204f"/><path d="M 114.0039 45.0184 C 114.0039 39.5204 114.0039 38.5094 113.9319 37.3514 C 113.8599 36.1224 113.5699 35.5434 112.3769 35.2904 C 112.0879 35.2184 111.4719 35.1824 110.9659 35.1824 C 110.5689 35.1824 110.3519 35.1104 110.3519 34.8564 C 110.3519 34.6034 110.6049 34.5314 111.1459 34.5314 C 112.1229 34.5314 113.1719 34.5664 114.0759 34.5664 C 115.0169 34.6034 115.8479 34.6394 116.3539 34.6394 C 117.5119 34.6394 124.7089 34.6394 125.3959 34.6034 C 126.0829 34.5314 126.6609 34.4594 126.9499 34.3874 C 127.1309 34.3504 127.3479 34.2424 127.5289 34.2424 C 127.7099 34.2424 127.7449 34.3874 127.7449 34.5664 C 127.7449 34.8204 127.5649 35.2554 127.4569 36.9174 C 127.4199 37.2794 127.3479 38.8704 127.2759 39.3044 C 127.2399 39.4854 127.1679 39.7024 126.9149 39.7024 C 126.6609 39.7024 126.5899 39.5204 126.5899 39.1954 C 126.5899 38.9424 126.5519 38.3284 126.3709 37.8934 C 126.1179 37.2434 125.7569 36.8094 123.9489 36.5924 C 123.3329 36.5194 119.5359 36.4484 118.8139 36.4484 C 118.6319 36.4484 118.5599 36.5564 118.5599 36.8094 L 118.5599 45.9584 C 118.5599 46.2114 118.5969 46.3574 118.8139 46.3574 C 119.6089 46.3574 123.7679 46.3574 124.5989 46.2834 C 125.4669 46.2114 126.0099 46.1034 126.3359 45.7414 C 126.5899 45.4524 126.7329 45.2714 126.9149 45.2714 C 127.0599 45.2714 127.1679 45.3444 127.1679 45.5624 C 127.1679 45.7784 127.0219 46.3574 126.8779 48.2004 C 126.8409 48.9234 126.7329 50.3704 126.7329 50.6234 C 126.7329 50.9134 126.7329 51.3114 126.4079 51.3114 C 126.1549 51.3114 126.0829 51.1664 126.0829 50.9854 C 126.0459 50.6234 126.0459 50.1534 125.9379 49.6834 C 125.7569 48.9604 125.2509 48.4174 123.9139 48.2734 C 123.2259 48.2004 119.6449 48.1644 118.7769 48.1644 C 118.5969 48.1644 118.5599 48.3094 118.5599 48.5264 L 118.5599 51.3834 C 118.5599 52.6134 118.5249 55.9404 118.5599 56.9884 C 118.6319 59.4844 119.2109 60.0254 122.8999 60.0254 C 123.8399 60.0254 125.3589 60.0254 126.2999 59.5914 C 127.2399 59.1574 127.6729 58.3984 127.9259 56.9154 C 127.9989 56.5184 128.0709 56.3744 128.3239 56.3744 C 128.6139 56.3744 128.6139 56.6634 128.6139 57.0254 C 128.6139 57.8574 128.3239 60.3144 128.1429 61.0394 C 127.8909 61.9784 127.5649 61.9784 126.1899 61.9784 C 123.4789 61.9784 121.4889 61.9074 119.9339 61.8704 C 118.3789 61.7974 117.2579 61.7624 116.1729 61.7624 C 115.7749 61.7624 114.9799 61.7624 114.1119 61.7974 C 113.2809 61.7974 112.3399 61.8704 111.6169 61.8704 C 111.1459 61.8704 110.8939 61.7624 110.8939 61.5084 C 110.8939 61.3274 111.0379 61.2194 111.4719 61.2194 C 112.0139 61.2194 112.4489 61.1474 112.7739 61.0744 C 113.4969 60.9304 113.6779 60.1354 113.8229 59.0874 C 114.0039 57.5674 114.0039 54.7104 114.0039 51.3834 Z" fill="#01204f"/><path d="M 140.6664 47.8754 C 140.6664 48.2734 140.7384 48.4174 140.9914 48.5264 C 141.7514 48.7794 142.8354 48.8884 143.7404 48.8884 C 145.1874 48.8884 145.6564 48.7424 146.3084 48.2734 C 147.3934 47.4774 148.4414 45.8144 148.4414 42.8494 C 148.4414 37.7144 145.0414 36.2314 142.9094 36.2314 C 142.0054 36.2314 141.3544 36.2664 140.9914 36.3754 C 140.7384 36.4484 140.6664 36.5924 140.6664 36.8824 Z M 136.3994 45.0184 C 136.3994 39.5204 136.3994 38.5084 136.3264 37.3514 C 136.2544 36.1224 135.9654 35.5434 134.7714 35.2904 C 134.4834 35.2174 133.8674 35.1824 133.3614 35.1824 C 132.9644 35.1824 132.7464 35.1104 132.7464 34.8564 C 132.7464 34.6034 133.0004 34.5314 133.5414 34.5314 C 135.4594 34.5314 137.7364 34.6394 138.4974 34.6394 C 139.7274 34.6394 142.4744 34.5314 143.5964 34.5314 C 145.8744 34.5314 148.2984 34.7484 150.2494 36.0864 C 151.2634 36.7734 152.7084 38.6184 152.7084 41.0404 C 152.7084 43.7164 151.5874 46.1764 147.9354 49.1404 C 151.1534 53.1914 153.6494 56.4094 155.7834 58.6514 C 157.8074 60.7494 159.2894 61.0024 159.8334 61.1114 C 160.2314 61.1834 160.5564 61.2194 160.8464 61.2194 C 161.1354 61.2194 161.2794 61.3274 161.2794 61.5084 C 161.2794 61.7974 161.0264 61.8704 160.5934 61.8704 L 157.1574 61.8704 C 155.1324 61.8704 154.2284 61.6904 153.2874 61.1834 C 151.7324 60.3514 150.3584 58.6514 148.3324 55.8674 C 146.8874 53.8784 145.2224 51.4184 144.7524 50.8764 C 144.5724 50.6604 144.3554 50.6234 144.1024 50.6234 L 140.9554 50.5514 C 140.7754 50.5514 140.6664 50.6234 140.6664 50.8414 L 140.6664 51.3464 C 140.6664 54.7104 140.6664 57.5674 140.8474 59.0874 C 140.9554 60.1354 141.1734 60.9304 142.2584 61.0744 C 142.8004 61.1474 143.5964 61.2194 144.0294 61.2194 C 144.3184 61.2194 144.4624 61.3274 144.4624 61.5084 C 144.4624 61.7624 144.2114 61.8704 143.7404 61.8704 C 141.6434 61.8704 138.9674 61.7624 138.4254 61.7624 C 137.7364 61.7624 135.4594 61.8704 134.0134 61.8704 C 133.5414 61.8704 133.2884 61.7624 133.2884 61.5084 C 133.2884 61.3274 133.4344 61.2194 133.8674 61.2194 C 134.4104 61.2194 134.8434 61.1474 135.1684 61.0744 C 135.8934 60.9304 136.0734 60.1354 136.2194 59.0874 C 136.3994 57.5674 136.3994 54.7104 136.3994 51.3834 Z" fill="#01204f"/><path d="M 161.7842 61.4366 C 161.2052 61.1836 161.0962 61.0026 161.0962 60.2076 C 161.0962 58.2176 161.2412 56.0476 161.2782 55.4696 C 161.3152 54.9286 161.4222 54.5296 161.7122 54.5296 C 162.0382 54.5296 162.0732 54.8546 162.0732 55.1436 C 162.0732 55.6136 162.2182 56.3736 162.3982 56.9886 C 163.1942 59.6646 165.3292 60.6416 167.5702 60.6416 C 170.8242 60.6416 172.4172 58.4356 172.4172 56.5176 C 172.4172 54.7466 171.8732 53.0816 168.8722 50.7326 L 167.2082 49.4306 C 163.2312 46.3216 161.8562 43.7896 161.8562 40.8606 C 161.8562 36.8816 165.1832 34.0246 170.2112 34.0246 C 172.5612 34.0246 174.0792 34.3866 175.0202 34.6396 C 175.3462 34.7126 175.5262 34.8206 175.5262 35.0746 C 175.5262 35.5436 175.3822 36.5926 175.3822 39.4136 C 175.3822 40.2096 175.2722 40.4976 174.9832 40.4976 C 174.7302 40.4976 174.6232 40.2816 174.6232 39.8476 C 174.6232 39.5216 174.4422 38.4016 173.6812 37.4606 C 173.1402 36.7736 172.0912 35.6886 169.7402 35.6886 C 167.0642 35.6886 165.4362 37.2436 165.4362 39.4136 C 165.4362 41.0766 166.2682 42.3426 169.2702 44.6206 L 170.2832 45.3806 C 174.6582 48.6716 176.2132 51.1656 176.2132 54.6016 C 176.2132 56.6986 175.4182 59.1946 172.8152 60.8936 C 171.0062 62.0526 168.9812 62.3776 167.0642 62.3776 C 164.9662 62.3776 163.3392 62.1246 161.7842 61.4366 Z" fill="#01204f"/><path d="M 184.8181 45.0184 C 184.8181 39.5204 184.8181 38.5094 184.7461 37.3514 C 184.6741 36.1224 184.3121 35.5074 183.5161 35.3264 C 183.1191 35.2184 182.6491 35.1824 182.2151 35.1824 C 181.8521 35.1824 181.6361 35.1104 181.6361 34.8204 C 181.6361 34.6034 181.9261 34.5314 182.5051 34.5314 C 183.8791 34.5314 186.1571 34.6394 187.2061 34.6394 C 188.1101 34.6394 190.2421 34.5314 191.6171 34.5314 C 192.0881 34.5314 192.3761 34.6034 192.3761 34.8204 C 192.3761 35.1104 192.1591 35.1824 191.7981 35.1824 C 191.4361 35.1824 191.1461 35.2184 190.7131 35.2904 C 189.7371 35.4714 189.4471 36.0864 189.3741 37.3514 C 189.3021 38.5094 189.3021 39.5204 189.3021 45.0184 L 189.3021 51.3834 C 189.3021 54.8914 189.3021 57.7484 189.4471 59.3024 C 189.5561 60.2804 189.8091 60.9304 190.8951 61.0744 C 191.3991 61.1474 192.1961 61.2194 192.7391 61.2194 C 193.1361 61.2194 193.3181 61.3274 193.3181 61.5084 C 193.3181 61.7624 193.0271 61.8704 192.6291 61.8704 C 190.2421 61.8704 187.9641 61.7624 186.9871 61.7624 C 186.1571 61.7624 183.8791 61.8704 182.4311 61.8704 C 181.9611 61.8704 181.7081 61.7624 181.7081 61.5084 C 181.7081 61.3274 181.8521 61.2194 182.2871 61.2194 C 182.8291 61.2194 183.2631 61.1474 183.5891 61.0744 C 184.3121 60.9304 184.5291 60.3144 184.6381 59.2664 C 184.8181 57.7484 184.8181 54.8914 184.8181 51.3834 Z" fill="#01204f"/><path d="M 205.9727 36.5568 L 200.5847 36.7008 C 198.4867 36.7728 197.6197 36.9548 197.0767 37.7498 C 196.7137 38.2928 196.5347 38.7258 196.4617 39.0148 C 196.3907 39.3038 196.2807 39.4488 196.0647 39.4488 C 195.8117 39.4488 195.7397 39.2688 195.7397 38.8698 C 195.7397 38.2928 196.4257 35.0018 196.4977 34.7128 C 196.6067 34.2418 196.7137 34.0248 196.9327 34.0248 C 197.2217 34.0248 197.5837 34.3868 198.4867 34.4598 C 199.5367 34.5668 200.9097 34.6388 202.1027 34.6388 L 216.4247 34.6388 C 217.5817 34.6388 218.3767 34.5308 218.9187 34.4598 C 219.4607 34.3498 219.7517 34.2788 219.8957 34.2788 C 220.1487 34.2788 220.1857 34.4948 220.1857 35.0378 C 220.1857 35.7968 220.0767 38.2928 220.0767 39.2328 C 220.0397 39.5948 219.9677 39.8108 219.7517 39.8108 C 219.4607 39.8108 219.3897 39.6308 219.3537 39.0878 L 219.3167 38.6898 C 219.2447 37.7498 218.2677 36.7378 215.0507 36.6658 L 210.4937 36.5568 L 210.4937 51.3838 C 210.4937 54.7098 210.4937 57.5668 210.6737 59.1218 C 210.7817 60.1348 210.9997 60.9308 212.0847 61.0748 C 212.5917 61.1468 213.3857 61.2198 213.9277 61.2198 C 214.3277 61.2198 214.5067 61.3268 214.5067 61.5088 C 214.5067 61.7628 214.2177 61.8708 213.8207 61.8708 C 211.4327 61.8708 209.1547 61.7628 208.1417 61.7628 C 207.3117 61.7628 205.0337 61.8708 203.5857 61.8708 C 203.1157 61.8708 202.8627 61.7628 202.8627 61.5088 C 202.8627 61.3268 203.0067 61.2198 203.4417 61.2198 C 203.9837 61.2198 204.4177 61.1468 204.7437 61.0748 C 205.4677 60.9308 205.6837 60.1348 205.7917 59.0868 C 205.9727 57.5668 205.9727 54.7098 205.9727 51.3838 Z" fill="#01204f"/><path d="M 232.1532 52.5045 C 232.1532 50.5515 231.7932 49.7555 231.3212 48.7075 C 231.0692 48.1295 226.2222 40.1725 224.9572 38.2915 C 224.0542 36.9545 223.1482 36.0495 222.4622 35.6525 C 221.9922 35.3995 221.3762 35.1815 220.9432 35.1815 C 220.6532 35.1815 220.4002 35.1095 220.4002 34.8555 C 220.4002 34.6395 220.6532 34.5305 221.0882 34.5305 C 221.7382 34.5305 224.4512 34.6395 225.6442 34.6395 C 226.4042 34.6395 227.8862 34.5305 229.5122 34.5305 C 229.8752 34.5305 230.0562 34.6395 230.0562 34.8555 C 230.0562 35.0745 229.8022 35.1095 229.2612 35.2555 C 228.9342 35.3265 228.7542 35.6155 228.7542 35.9055 C 228.7542 36.1945 228.9342 36.6295 229.1872 37.1355 C 229.6942 38.2205 234.7572 46.9345 235.3352 47.9475 C 235.6982 47.0805 240.2542 39.1235 240.7592 38.0025 C 241.1222 37.2075 241.2662 36.5925 241.2662 36.1225 C 241.2662 35.7605 241.1222 35.3625 240.5082 35.2185 C 240.1822 35.1465 239.8552 35.0745 239.8552 34.8555 C 239.8552 34.6035 240.0372 34.5305 240.4712 34.5305 C 241.6642 34.5305 242.8212 34.6395 243.8692 34.6395 C 244.6672 34.6395 247.0522 34.5305 247.7392 34.5305 C 248.1372 34.5305 248.3902 34.6035 248.3902 34.8205 C 248.3902 35.0745 248.1012 35.1815 247.7032 35.1815 C 247.3422 35.1815 246.6542 35.3265 246.1122 35.6155 C 245.3522 35.9785 244.9552 36.4115 244.1592 37.3875 C 242.9652 38.8345 237.9032 47.3325 237.2522 48.8875 C 236.7102 50.1915 236.7102 51.3115 236.7102 52.5045 L 236.7102 55.4705 C 236.7102 56.0475 236.7102 57.5675 236.8182 59.0865 C 236.8912 60.1345 237.2162 60.9305 238.3012 61.0745 C 238.8062 61.1475 239.6032 61.2195 240.1092 61.2195 C 240.5082 61.2195 240.6882 61.3275 240.6882 61.5075 C 240.6882 61.7615 240.3992 61.8715 239.9292 61.8715 C 237.6512 61.8715 235.3722 61.7615 234.3962 61.7615 C 233.4922 61.7615 231.2142 61.8715 229.8752 61.8715 C 229.3682 61.8715 229.0792 61.7975 229.0792 61.5075 C 229.0792 61.3275 229.2612 61.2195 229.6582 61.2195 C 230.1642 61.2195 230.5992 61.1475 230.9232 61.0745 C 231.6472 60.9305 231.9732 60.1345 232.0442 59.0865 C 232.1532 57.5675 232.1532 56.0475 232.1532 55.4705 Z" fill="#01204f"/><path d="M 18.2216 88.2952 C 18.2216 83.0672 15.2116 79.8232 11.3826 79.8232 C 8.6996 79.8232 5.6426 81.3162 5.6426 87.1272 C 5.6426 91.9832 8.3266 95.8332 12.8076 95.8332 C 14.4416 95.8332 18.2216 95.0402 18.2216 88.2952 M 2.4216 87.8512 C 2.4216 83.8602 5.0596 78.7022 12.0606 78.7022 C 17.8716 78.7022 21.4896 82.0872 21.4896 87.4312 C 21.4896 92.7762 17.7556 97.0002 11.8266 97.0002 C 5.1286 97.0002 2.4216 91.9832 2.4216 87.8512" fill="#01204f"/><path d="M 29.3101 89.9053 C 29.3101 92.1453 29.3101 93.8963 29.4271 94.8763 C 29.4961 95.5543 29.6361 96.0663 30.3361 96.1603 C 30.6641 96.2073 31.1771 96.2533 31.5031 96.2533 C 31.8081 96.2533 31.9001 96.3233 31.9001 96.4403 C 31.9001 96.6033 31.7371 96.6733 31.3871 96.6733 C 29.9161 96.6733 28.4461 96.6033 27.8401 96.6033 C 27.2331 96.6033 25.7621 96.6733 24.8751 96.6733 C 24.5491 96.6733 24.3861 96.6273 24.3861 96.4403 C 24.3861 96.3233 24.4781 96.2533 24.7361 96.2533 C 25.0861 96.2533 25.3661 96.2073 25.5751 96.1603 C 26.0421 96.0663 26.1591 95.5543 26.2531 94.8763 C 26.3701 93.8963 26.3701 92.1453 26.3701 89.9053 L 26.3701 85.7983 C 26.3701 82.2513 26.3701 81.5963 26.3231 80.8503 C 26.2761 80.0563 26.0891 79.6823 25.3191 79.5203 C 25.1331 79.4733 24.7361 79.4493 24.4081 79.4493 C 24.1751 79.4493 24.0111 79.4033 24.0111 79.2623 C 24.0111 79.0763 24.1981 79.0303 24.5491 79.0303 C 25.1561 79.0303 25.8321 79.0533 26.4391 79.0533 C 27.0461 79.0763 27.5821 79.1003 27.9101 79.1003 C 28.7961 79.1003 33.5331 79.1003 34.0711 79.0763 C 34.5141 79.0533 34.7941 79.0533 35.0271 78.9833 C 35.1681 78.9363 35.2851 78.8423 35.4001 78.8423 C 35.4941 78.8423 35.5641 78.9363 35.5641 79.0533 C 35.5641 79.2153 35.4471 79.4963 35.3771 80.1033 C 35.3551 80.3363 35.3081 81.7133 35.2611 81.9933 C 35.2381 82.1803 35.1911 82.3203 35.0271 82.3203 C 34.8641 82.3203 34.8171 82.2043 34.7941 81.9463 C 34.7941 81.7603 34.7941 81.3873 34.6541 81.0613 C 34.4911 80.7323 34.0011 80.3833 33.1131 80.3593 L 29.5211 80.2903 C 29.3801 80.2903 29.3101 80.3593 29.3101 80.6173 L 29.3101 86.4513 C 29.3101 86.5923 29.3331 86.6613 29.4741 86.6613 L 32.4601 86.6383 C 32.8571 86.6383 33.1841 86.6383 33.5101 86.6143 C 33.9541 86.5923 34.2811 86.4983 34.5141 86.1943 C 34.6301 86.0543 34.6771 85.9613 34.8171 85.9613 C 34.9121 85.9613 34.9581 86.0313 34.9581 86.1713 C 34.9581 86.3103 34.8411 86.8943 34.7701 87.6183 C 34.7241 88.0853 34.6771 89.1593 34.6771 89.3223 C 34.6771 89.5323 34.6771 89.7653 34.4441 89.7653 C 34.3041 89.7653 34.2571 89.6023 34.2571 89.4383 C 34.2571 89.2753 34.2101 88.9943 34.1181 88.7153 C 34.0011 88.3883 33.6511 87.9683 32.9271 87.8753 C 32.3431 87.8043 29.8691 87.8043 29.4741 87.8043 C 29.3571 87.8043 29.3101 87.8513 29.3101 88.0153 Z" fill="#01204f"/><path d="M 50.6424 87.6416 C 50.6424 87.8986 50.6894 87.9916 50.8534 88.0616 C 51.3424 88.2256 52.0444 88.2946 52.6264 88.2946 C 53.5604 88.2946 53.8634 88.2016 54.2844 87.8986 C 54.9834 87.3846 55.6604 86.3106 55.6604 84.3976 C 55.6604 81.0836 53.4674 80.1266 52.0894 80.1266 C 51.5064 80.1266 51.0864 80.1496 50.8534 80.2206 C 50.6894 80.2666 50.6424 80.3606 50.6424 80.5466 Z M 47.8894 85.7986 C 47.8894 82.2506 47.8894 81.5966 47.8424 80.8496 C 47.7954 80.0556 47.6094 79.6826 46.8394 79.5196 C 46.6524 79.4726 46.2554 79.4496 45.9284 79.4496 C 45.6714 79.4496 45.5314 79.4026 45.5314 79.2406 C 45.5314 79.0766 45.6954 79.0296 46.0454 79.0296 C 47.2824 79.0296 48.7524 79.0996 49.2424 79.0996 C 50.0364 79.0996 51.8104 79.0296 52.5324 79.0296 C 54.0044 79.0296 55.5684 79.1706 56.8274 80.0326 C 57.4814 80.4756 58.4144 81.6666 58.4144 83.2306 C 58.4144 84.9576 57.6904 86.5446 55.3344 88.4586 C 57.4114 91.0726 59.0214 93.1486 60.3974 94.5956 C 61.7054 95.9506 62.6614 96.1126 63.0134 96.1836 C 63.2694 96.2306 63.4784 96.2526 63.6654 96.2526 C 63.8524 96.2526 63.9454 96.3236 63.9454 96.4406 C 63.9454 96.6276 63.7814 96.6736 63.5014 96.6736 L 61.2854 96.6736 C 59.9774 96.6736 59.3944 96.5566 58.7874 96.2306 C 57.7844 95.6926 56.8974 94.5956 55.5904 92.7996 C 54.6574 91.5156 53.5824 89.9286 53.2804 89.5786 C 53.1634 89.4376 53.0234 89.4146 52.8594 89.4146 L 50.8304 89.3696 C 50.7134 89.3696 50.6424 89.4146 50.6424 89.5556 L 50.6424 89.8816 C 50.6424 92.0526 50.6424 93.8966 50.7604 94.8766 C 50.8304 95.5536 50.9694 96.0656 51.6694 96.1596 C 52.0204 96.2066 52.5324 96.2526 52.8124 96.2526 C 53.0004 96.2526 53.0934 96.3236 53.0934 96.4406 C 53.0934 96.6036 52.9294 96.6736 52.6264 96.6736 C 51.2724 96.6736 49.5464 96.6036 49.1954 96.6036 C 48.7524 96.6036 47.2824 96.6736 46.3484 96.6736 C 46.0454 96.6736 45.8814 96.6036 45.8814 96.4406 C 45.8814 96.3236 45.9754 96.2526 46.2554 96.2526 C 46.6054 96.2526 46.8854 96.2066 47.0954 96.1596 C 47.5624 96.0656 47.6794 95.5536 47.7714 94.8766 C 47.8894 93.8966 47.8894 92.0526 47.8894 89.9056 Z" fill="#01204f"/><path d="M 77.4831 86.4511 C 77.5541 86.4511 77.6241 86.4041 77.6241 86.2871 L 77.6241 85.7981 C 77.6241 82.2511 77.6241 81.5961 77.5771 80.8501 C 77.5301 80.0561 77.3431 79.6821 76.5731 79.5201 C 76.3871 79.4731 75.9901 79.4491 75.6631 79.4491 C 75.4061 79.4491 75.2661 79.4031 75.2661 79.2391 C 75.2661 79.0761 75.4291 79.0301 75.7561 79.0301 C 77.0161 79.0301 78.4861 79.1001 79.1171 79.1001 C 79.6771 79.1001 81.1481 79.0301 82.0571 79.0301 C 82.3851 79.0301 82.5481 79.0761 82.5481 79.2391 C 82.5481 79.4031 82.4071 79.4491 82.1281 79.4491 C 81.9411 79.4491 81.7311 79.4731 81.4511 79.5201 C 80.8201 79.6351 80.6341 80.0331 80.5871 80.8501 C 80.5411 81.5961 80.5411 82.2511 80.5411 85.7981 L 80.5411 89.9051 C 80.5411 92.0531 80.5411 93.8961 80.6571 94.8991 C 80.7281 95.5541 80.8671 96.0661 81.5681 96.1601 C 81.8941 96.2071 82.4071 96.2531 82.7581 96.2531 C 83.0151 96.2531 83.1321 96.3231 83.1321 96.4411 C 83.1321 96.6041 82.9441 96.6731 82.6641 96.6731 C 81.1481 96.6731 79.6771 96.6041 79.0241 96.6041 C 78.4861 96.6041 77.0161 96.6731 76.1071 96.6731 C 75.7791 96.6731 75.6161 96.6041 75.6161 96.4411 C 75.6161 96.3231 75.7101 96.2531 75.9901 96.2531 C 76.3401 96.2531 76.6201 96.2071 76.8301 96.1601 C 77.2961 96.0661 77.4131 95.5541 77.5071 94.8771 C 77.6241 93.8961 77.6241 92.0531 77.6241 89.9051 L 77.6241 87.8511 C 77.6241 87.7581 77.5541 87.7121 77.4831 87.7121 L 68.5681 87.7121 C 68.4981 87.7121 68.4281 87.7351 68.4281 87.8511 L 68.4281 89.9051 C 68.4281 92.0531 68.4281 93.8961 68.5451 94.8991 C 68.6151 95.5541 68.7551 96.0661 69.4541 96.1601 C 69.7821 96.2071 70.2951 96.2531 70.6441 96.2531 C 70.9021 96.2531 71.0191 96.3231 71.0191 96.4411 C 71.0191 96.6041 70.8321 96.6731 70.5521 96.6731 C 69.0351 96.6731 67.5641 96.6041 66.9111 96.6041 C 66.3741 96.6041 64.9041 96.6731 63.9711 96.6731 C 63.6671 96.6731 63.5041 96.6041 63.5041 96.4411 C 63.5041 96.3231 63.5961 96.2531 63.8771 96.2531 C 64.2271 96.2531 64.5071 96.2071 64.7181 96.1601 C 65.1841 96.0661 65.3011 95.5541 65.3951 94.8771 C 65.5111 93.8961 65.5111 92.0531 65.5111 89.9051 L 65.5111 85.7981 C 65.5111 82.2511 65.5111 81.5961 65.4641 80.8501 C 65.4181 80.0561 65.2301 79.6821 64.4601 79.5201 C 64.2741 79.4731 63.8771 79.4491 63.5511 79.4491 C 63.2941 79.4491 63.1541 79.4031 63.1541 79.2391 C 63.1541 79.0761 63.3171 79.0301 63.6431 79.0301 C 64.9041 79.0301 66.3741 79.1001 67.0051 79.1001 C 67.5641 79.1001 69.0351 79.0301 69.9451 79.0301 C 70.2711 79.0301 70.4351 79.0761 70.4351 79.2391 C 70.4351 79.4031 70.2951 79.4491 70.0151 79.4491 C 69.8291 79.4491 69.6181 79.4731 69.3391 79.5201 C 68.7081 79.6351 68.5211 80.0331 68.4751 80.8501 C 68.4281 81.5961 68.4281 82.2511 68.4281 85.7981 L 68.4281 86.2871 C 68.4281 86.4041 68.4981 86.4511 68.5681 86.4511 Z" fill="#01204f"/><path d="M 100.4969 88.2952 C 100.4969 83.0672 97.4869 79.8232 93.6579 79.8232 C 90.9749 79.8232 87.9179 81.3162 87.9179 87.1272 C 87.9179 91.9832 90.6019 95.8332 95.0829 95.8332 C 96.7159 95.8332 100.4969 95.0402 100.4969 88.2952 M 84.6959 87.8512 C 84.6959 83.8602 87.3349 78.7022 94.3359 78.7022 C 100.1469 78.7022 103.7649 82.0872 103.7649 87.4312 C 103.7649 92.7762 100.0299 97.0002 94.1019 97.0002 C 87.4039 97.0002 84.6959 91.9832 84.6959 87.8512" fill="#01204f"/><path d="M 111.0245 88.3645 C 111.0245 90.8395 111.0485 92.6355 111.0715 93.0795 C 111.0955 93.6635 111.1415 94.5955 111.3275 94.8535 C 111.6305 95.2965 112.5415 95.7865 114.3865 95.7865 C 116.7655 95.7865 118.3525 95.3195 119.7535 94.1075 C 121.2475 92.8225 121.7135 90.6985 121.7135 88.2945 C 121.7135 85.3315 120.4765 83.4175 119.4725 82.4605 C 117.3265 80.4065 114.6655 80.1265 112.8445 80.1265 C 112.3785 80.1265 111.5155 80.1965 111.3275 80.2895 C 111.1185 80.3825 111.0485 80.4995 111.0485 80.7575 C 111.0245 81.5495 111.0245 83.5805 111.0245 85.4245 Z M 108.1065 85.7985 C 108.1065 82.2505 108.1065 81.5965 108.0595 80.8505 C 108.0145 80.0555 107.8275 79.6825 107.0565 79.5205 C 106.8705 79.4735 106.4735 79.4495 106.1465 79.4495 C 105.8905 79.4495 105.7495 79.4025 105.7495 79.2395 C 105.7495 79.0765 105.9135 79.0295 106.2635 79.0295 C 107.5005 79.0295 108.9705 79.0995 109.6245 79.0995 C 110.3475 79.0995 111.8175 79.0295 113.2175 79.0295 C 116.1355 79.0295 120.0335 79.0295 122.5775 81.6905 C 123.7445 82.9045 124.8405 84.8405 124.8405 87.6185 C 124.8405 90.5595 123.6035 92.7995 122.2975 94.1295 C 121.2235 95.2265 118.7955 96.8825 114.4785 96.8825 C 113.6375 96.8825 112.6815 96.8145 111.7945 96.7435 C 110.9075 96.6735 110.0905 96.6035 109.5075 96.6035 C 109.2515 96.6035 108.7375 96.6035 108.1775 96.6275 C 107.6405 96.6275 107.0335 96.6735 106.5665 96.6735 C 106.2635 96.6735 106.1005 96.6035 106.1005 96.4415 C 106.1005 96.3235 106.1925 96.2535 106.4735 96.2535 C 106.8235 96.2535 107.1035 96.2065 107.3135 96.1595 C 107.7805 96.0655 107.8975 95.5535 107.9915 94.8755 C 108.1065 93.8965 108.1065 92.0535 108.1065 89.9055 Z" fill="#01204f"/><path d="M 129.721 85.798 C 129.721 82.25 129.721 81.597 129.674 80.851 C 129.627 80.055 129.441 79.682 128.671 79.52 C 128.483 79.473 128.087 79.449 127.76 79.449 C 127.504 79.449 127.363 79.403 127.363 79.24 C 127.363 79.076 127.526 79.029 127.878 79.029 C 128.506 79.029 129.183 79.052 129.767 79.052 C 130.373 79.076 130.911 79.1 131.237 79.1 C 131.985 79.1 136.628 79.1 137.072 79.076 C 137.516 79.029 137.889 78.982 138.076 78.936 C 138.192 78.912 138.332 78.843 138.45 78.843 C 138.565 78.843 138.589 78.936 138.589 79.052 C 138.589 79.216 138.472 79.496 138.403 80.57 C 138.379 80.804 138.332 81.83 138.285 82.11 C 138.262 82.227 138.216 82.367 138.052 82.367 C 137.889 82.367 137.842 82.25 137.842 82.041 C 137.842 81.877 137.819 81.481 137.703 81.2 C 137.539 80.78 137.306 80.499 136.139 80.36 C 135.742 80.313 133.291 80.266 132.825 80.266 C 132.707 80.266 132.66 80.337 132.66 80.499 L 132.66 86.404 C 132.66 86.568 132.684 86.661 132.825 86.661 C 133.338 86.661 136.022 86.661 136.56 86.615 C 137.119 86.568 137.468 86.498 137.679 86.264 C 137.842 86.078 137.936 85.962 138.052 85.962 C 138.145 85.962 138.216 86.009 138.216 86.148 C 138.216 86.288 138.123 86.661 138.03 87.852 C 138.006 88.319 137.936 89.252 137.936 89.415 C 137.936 89.602 137.936 89.859 137.726 89.859 C 137.563 89.859 137.516 89.766 137.516 89.648 C 137.492 89.415 137.492 89.111 137.421 88.808 C 137.306 88.341 136.979 87.991 136.116 87.899 C 135.672 87.852 133.362 87.828 132.801 87.828 C 132.684 87.828 132.66 87.922 132.66 88.062 L 132.66 89.905 C 132.66 90.698 132.637 92.846 132.66 93.522 C 132.707 95.133 133.081 95.483 135.462 95.483 C 136.069 95.483 137.048 95.483 137.656 95.203 C 138.262 94.924 138.542 94.433 138.706 93.476 C 138.753 93.219 138.8 93.126 138.962 93.126 C 139.149 93.126 139.149 93.312 139.149 93.546 C 139.149 94.083 138.962 95.67 138.846 96.137 C 138.682 96.743 138.472 96.743 137.586 96.743 C 135.835 96.743 134.552 96.696 133.548 96.673 C 132.545 96.627 131.822 96.603 131.121 96.603 C 130.864 96.603 130.351 96.603 129.791 96.627 C 129.254 96.627 128.648 96.673 128.18 96.673 C 127.878 96.673 127.713 96.603 127.713 96.441 C 127.713 96.323 127.807 96.253 128.087 96.253 C 128.437 96.253 128.716 96.207 128.927 96.161 C 129.394 96.067 129.51 95.553 129.603 94.877 C 129.721 93.896 129.721 92.053 129.721 89.905 Z" fill="#01204f"/><path d="M 151.4733 85.798 C 151.4733 82.25 151.4733 81.597 151.4263 80.851 C 151.3803 80.055 151.1473 79.66 150.6333 79.543 C 150.3773 79.473 150.0733 79.449 149.7923 79.449 C 149.5603 79.449 149.4193 79.403 149.4193 79.216 C 149.4193 79.076 149.6063 79.029 149.9803 79.029 C 150.8673 79.029 152.3373 79.1 153.0143 79.1 C 153.5973 79.1 154.9753 79.029 155.8613 79.029 C 156.1653 79.029 156.3523 79.076 156.3523 79.216 C 156.3523 79.403 156.2113 79.449 155.9793 79.449 C 155.7443 79.449 155.5583 79.473 155.2773 79.52 C 154.6473 79.636 154.4603 80.033 154.4133 80.851 C 154.3673 81.597 154.3673 82.25 154.3673 85.798 L 154.3673 89.905 C 154.3673 92.169 154.3673 94.013 154.4603 95.016 C 154.5313 95.646 154.6943 96.067 155.3953 96.161 C 155.7213 96.207 156.2343 96.253 156.5853 96.253 C 156.8403 96.253 156.9583 96.323 156.9583 96.441 C 156.9583 96.603 156.7723 96.673 156.5143 96.673 C 154.9753 96.673 153.5043 96.603 152.8753 96.603 C 152.3373 96.603 150.8673 96.673 149.9333 96.673 C 149.6303 96.673 149.4663 96.603 149.4663 96.441 C 149.4663 96.323 149.5603 96.253 149.8393 96.253 C 150.1903 96.253 150.4703 96.207 150.6803 96.161 C 151.1473 96.067 151.2873 95.67 151.3563 94.992 C 151.4733 94.013 151.4733 92.169 151.4733 89.905 Z" fill="#01204f"/><path d="M 160.4132 96.3937 C 160.0402 96.2297 159.9692 96.1137 159.9692 95.6007 C 159.9692 94.3167 160.0632 92.9157 160.0872 92.5427 C 160.1102 92.1927 160.1802 91.9357 160.3662 91.9357 C 160.5772 91.9357 160.5992 92.1457 160.5992 92.3327 C 160.5992 92.6367 160.6932 93.1257 160.8102 93.5217 C 161.3242 95.2497 162.7002 95.8797 164.1472 95.8797 C 166.2482 95.8797 167.2752 94.4567 167.2752 93.2197 C 167.2752 92.0757 166.9242 91.0027 164.9872 89.4857 L 163.9142 88.6457 C 161.3472 86.6387 160.4602 85.0047 160.4602 83.1147 C 160.4602 80.5457 162.6062 78.7027 165.8512 78.7027 C 167.3682 78.7027 168.3492 78.9357 168.9552 79.0997 C 169.1652 79.1467 169.2812 79.2157 169.2812 79.3797 C 169.2812 79.6837 169.1892 80.3597 169.1892 82.1797 C 169.1892 82.6937 169.1182 82.8797 168.9312 82.8797 C 168.7692 82.8797 168.6982 82.7407 168.6982 82.4597 C 168.6982 82.2507 168.5822 81.5267 168.0912 80.9197 C 167.7412 80.4767 167.0642 79.7767 165.5472 79.7767 C 163.8212 79.7767 162.7712 80.7807 162.7712 82.1797 C 162.7712 83.2547 163.3072 84.0697 165.2452 85.5417 L 165.8982 86.0307 C 168.7222 88.1547 169.7252 89.7657 169.7252 91.9827 C 169.7252 93.3367 169.2122 94.9467 167.5322 96.0427 C 166.3652 96.7907 165.0582 96.9997 163.8212 96.9997 C 162.4672 96.9997 161.4162 96.8377 160.4132 96.3937 Z" fill="#01204f"/><path d="M 178.1979 89.9053 C 178.1979 92.8913 178.1979 94.5033 178.6889 94.9233 C 179.0849 95.2723 179.6919 95.4363 181.5109 95.4363 C 182.7509 95.4363 183.6589 95.4123 184.2429 94.7833 C 184.5229 94.4793 184.8029 93.8263 184.8499 93.3833 C 184.8729 93.1733 184.9199 93.0323 185.1059 93.0323 C 185.2709 93.0323 185.2929 93.1493 185.2929 93.4293 C 185.2929 93.6863 185.1299 95.4363 184.9439 96.1133 C 184.8029 96.6273 184.6869 96.7443 183.4729 96.7443 C 181.7929 96.7443 180.5789 96.6973 179.5289 96.6733 C 178.4779 96.6273 177.6379 96.6033 176.6819 96.6033 C 176.4249 96.6033 175.9119 96.6033 175.3509 96.6273 C 174.8149 96.6273 174.2079 96.6733 173.7399 96.6733 C 173.4379 96.6733 173.2739 96.6033 173.2739 96.4403 C 173.2739 96.3233 173.3669 96.2533 173.6479 96.2533 C 173.9979 96.2533 174.2769 96.2073 174.4869 96.1603 C 174.9539 96.0663 175.0719 95.5543 175.1649 94.8763 C 175.2819 93.8963 175.2819 92.0533 175.2819 89.9053 L 175.2819 85.7983 C 175.2819 82.2513 175.2819 81.5963 175.2349 80.8503 C 175.1879 80.0563 175.0009 79.6823 174.2309 79.5203 C 174.0439 79.4733 173.7639 79.4493 173.4599 79.4493 C 173.2039 79.4493 173.0639 79.4033 173.0639 79.2393 C 173.0639 79.0763 173.2279 79.0303 173.5779 79.0303 C 174.6739 79.0303 176.1439 79.1003 176.7749 79.1003 C 177.3349 79.1003 179.0379 79.0303 179.9489 79.0303 C 180.2759 79.0303 180.4389 79.0763 180.4389 79.2393 C 180.4389 79.4033 180.2989 79.4493 180.0199 79.4493 C 179.7619 79.4493 179.3889 79.4733 179.1089 79.5203 C 178.4779 79.6353 178.2919 80.0333 178.2449 80.8503 C 178.1979 81.5963 178.1979 82.2513 178.1979 85.7983 Z" fill="#01204f"/><path d="M 195.5636 89.4148 C 195.6806 89.4148 195.7036 89.3448 195.6806 89.2748 L 193.5796 83.5108 C 193.5556 83.4168 193.5326 83.3008 193.4626 83.3008 C 193.3936 83.3008 193.3466 83.4168 193.3226 83.5108 L 191.1756 89.2508 C 191.1526 89.3448 191.1756 89.4148 191.2686 89.4148 Z M 190.8026 90.5828 C 190.6846 90.5828 190.6376 90.6298 190.5926 90.7698 L 189.3326 94.1068 C 189.0986 94.6898 188.9826 95.2498 188.9826 95.5298 C 188.9826 95.9498 189.1926 96.2538 189.9146 96.2538 L 190.2646 96.2538 C 190.5456 96.2538 190.6166 96.2998 190.6166 96.4408 C 190.6166 96.6278 190.4756 96.6728 190.2176 96.6728 C 189.4716 96.6728 188.4686 96.6038 187.7446 96.6038 C 187.4876 96.6038 186.2046 96.6728 184.9916 96.6728 C 184.6876 96.6728 184.5476 96.6278 184.5476 96.4408 C 184.5476 96.2998 184.6406 96.2538 184.8276 96.2538 C 185.0386 96.2538 185.3646 96.2308 185.5506 96.2078 C 186.6246 96.0658 187.0686 95.2728 187.5336 94.1068 L 193.3936 79.4488 C 193.6736 78.7728 193.8126 78.5168 194.0466 78.5168 C 194.2556 78.5168 194.3956 78.7258 194.6296 79.2628 C 195.1906 80.5468 198.9256 90.0678 200.4166 93.6158 C 201.3046 95.7168 201.9816 96.0428 202.4706 96.1608 C 202.8226 96.2308 203.1706 96.2538 203.4526 96.2538 C 203.6386 96.2538 203.7546 96.2768 203.7546 96.4408 C 203.7546 96.6278 203.5456 96.6728 202.6816 96.6728 C 201.8406 96.6728 200.1376 96.6728 198.2706 96.6278 C 197.8506 96.6038 197.5706 96.6038 197.5706 96.4408 C 197.5706 96.2998 197.6646 96.2538 197.8966 96.2308 C 198.0616 96.1838 198.2236 95.9728 198.1066 95.6928 L 196.2406 90.7458 C 196.1936 90.6298 196.1226 90.5828 196.0066 90.5828 Z" fill="#01204f"/><path d="M 207.5147 93.4992 C 207.5617 95.3192 207.8647 95.9272 208.3317 96.0892 C 208.7287 96.2302 209.1717 96.2532 209.5447 96.2532 C 209.8017 96.2532 209.9417 96.3002 209.9417 96.4412 C 209.9417 96.6272 209.7317 96.6732 209.4047 96.6732 C 207.8877 96.6732 206.9537 96.6032 206.5117 96.6032 C 206.3007 96.6032 205.2037 96.6732 203.9907 96.6732 C 203.6867 96.6732 203.4767 96.6502 203.4767 96.4412 C 203.4767 96.3002 203.6177 96.2532 203.8497 96.2532 C 204.1527 96.2532 204.5747 96.2302 204.9007 96.1362 C 205.5067 95.9502 205.6007 95.2722 205.6247 93.2432 L 205.8337 79.4262 C 205.8337 78.9592 205.9037 78.6322 206.1367 78.6322 C 206.3947 78.6322 206.6037 78.9362 207.0007 79.3562 C 207.2817 79.6592 210.8277 83.4642 214.2357 86.8482 C 215.8237 88.4352 218.9747 91.7952 219.3697 92.1682 L 219.4867 92.1682 L 219.2537 81.6902 C 219.2297 80.2662 219.0207 79.8232 218.4597 79.5892 C 218.1097 79.4492 217.5497 79.4492 217.2227 79.4492 C 216.9427 79.4492 216.8497 79.3802 216.8497 79.2392 C 216.8497 79.0532 217.1057 79.0302 217.4567 79.0302 C 218.6707 79.0302 219.7907 79.1002 220.2797 79.1002 C 220.5377 79.1002 221.4227 79.0302 222.5667 79.0302 C 222.8717 79.0302 223.1037 79.0532 223.1037 79.2392 C 223.1037 79.3802 222.9647 79.4492 222.6837 79.4492 C 222.4517 79.4492 222.2637 79.4492 221.9837 79.5202 C 221.3307 79.7062 221.1437 80.1972 221.1207 81.5042 L 220.8637 96.2302 C 220.8637 96.7432 220.7707 96.9532 220.5607 96.9532 C 220.3037 96.9532 220.0237 96.6962 219.7677 96.4412 C 218.2977 95.0392 215.3097 91.9822 212.8817 89.5792 C 210.3387 87.0592 207.7467 84.1402 207.3267 83.6972 L 207.2577 83.6972 Z" fill="#01204f"/><path d="M 230.5286 88.3645 C 230.5286 90.8395 230.5526 92.6355 230.5756 93.0795 C 230.5996 93.6635 230.6456 94.5955 230.8316 94.8535 C 231.1346 95.2965 232.0446 95.7865 233.8906 95.7865 C 236.2696 95.7865 237.8566 95.3195 239.2576 94.1075 C 240.7516 92.8225 241.2176 90.6985 241.2176 88.2945 C 241.2176 85.3315 239.9806 83.4175 238.9766 82.4605 C 236.8296 80.4065 234.1696 80.1265 232.3486 80.1265 C 231.8826 80.1265 231.0196 80.1965 230.8316 80.2895 C 230.6216 80.3825 230.5526 80.4995 230.5526 80.7575 C 230.5286 81.5495 230.5286 83.5805 230.5286 85.4245 Z M 227.6106 85.7985 C 227.6106 82.2505 227.6106 81.5965 227.5636 80.8505 C 227.5176 80.0555 227.3306 79.6825 226.5606 79.5205 C 226.3746 79.4735 225.9776 79.4495 225.6506 79.4495 C 225.3946 79.4495 225.2536 79.4025 225.2536 79.2395 C 225.2536 79.0765 225.4166 79.0295 225.7676 79.0295 C 227.0046 79.0295 228.4746 79.0995 229.1286 79.0995 C 229.8516 79.0995 231.3216 79.0295 232.7216 79.0295 C 235.6396 79.0295 239.5376 79.0295 242.0816 81.6905 C 243.2466 82.9045 244.3446 84.8405 244.3446 87.6185 C 244.3446 90.5595 243.1076 92.7995 241.8016 94.1295 C 240.7276 95.2265 238.2996 96.8825 233.9826 96.8825 C 233.1416 96.8825 232.1856 96.8145 231.2986 96.7435 C 230.4106 96.6735 229.5946 96.6035 229.0116 96.6035 C 228.7556 96.6035 228.2416 96.6035 227.6816 96.6275 C 227.1446 96.6275 226.5376 96.6735 226.0706 96.6735 C 225.7676 96.6735 225.6046 96.6035 225.6046 96.4415 C 225.6046 96.3235 225.6966 96.2535 225.9776 96.2535 C 226.3276 96.2535 226.6076 96.2065 226.8176 96.1595 C 227.2846 96.0655 227.4016 95.5535 227.4956 94.8755 C 227.6106 93.8965 227.6106 92.0535 227.6106 89.9055 Z" fill="#01204f"/><path d="M 6.67 1.65 L 3.159 1.744 C 1.791 1.792 1.226 1.91 .873 2.428 C .637 2.782 .519 3.064 .472 3.252 C .425 3.441 .353 3.536 .212 3.536 C .046 3.536 -14210855e-21 3.418 -14210855e-21 3.158 C -14210855e-21 2.782 .448 .636 .495 .447 C .566 .142 .637 -15987212e-21 .778 -15987212e-21 C .966 -15987212e-21 1.202 .236 1.791 .283 C 2.474 .354 3.37 .401 4.148 .401 L 13.482 .401 C 14.236 .401 14.755 .331 15.108 .283 C 15.462 .212 15.649 .165 15.744 .165 C 15.909 .165 15.932 .307 15.932 .66 C 15.932 1.155 15.862 2.782 15.862 3.394 C 15.838 3.629 15.791 3.771 15.649 3.771 C 15.462 3.771 15.414 3.653 15.391 3.3 L 15.367 3.04 C 15.32 2.428 14.684 1.768 12.585 1.721 L 9.616 1.65 L 9.616 11.312 C 9.616 13.482 9.616 15.343 9.734 16.357 C 9.805 17.017 9.946 17.535 10.653 17.629 C 10.983 17.677 11.502 17.724 11.855 17.724 C 12.114 17.724 12.233 17.794 12.233 17.913 C 12.233 18.077 12.044 18.148 11.784 18.148 C 10.229 18.148 8.744 18.077 8.084 18.077 C 7.542 18.077 6.057 18.148 5.114 18.148 C 4.808 18.148 4.644 18.077 4.644 17.913 C 4.644 17.794 4.738 17.724 5.02 17.724 C 5.374 17.724 5.656 17.677 5.868 17.629 C 6.339 17.535 6.481 17.017 6.552 16.333 C 6.67 15.343 6.67 13.482 6.67 11.312 Z" fill="#01204f"/><path d="M 32.3605 7.8249 C 32.4315 7.8249 32.5025 7.7769 32.5025 7.6599 L 32.5025 7.1649 C 32.5025 3.5819 32.5025 2.9219 32.4545 2.1679 C 32.4075 1.3669 32.2185 .9899 31.4405 .8249 C 31.2525 .7779 30.8525 .7539 30.5225 .7539 C 30.2635 .7539 30.1215 .7069 30.1215 .5419 C 30.1215 .3779 30.2865 .3309 30.6165 .3309 C 31.8895 .3309 33.3745 .4009 34.0105 .4009 C 34.5765 .4009 36.0605 .3309 36.9795 .3309 C 37.3105 .3309 37.4745 .3779 37.4745 .5419 C 37.4745 .7069 37.3345 .7539 37.0515 .7539 C 36.8625 .7539 36.6495 .7779 36.3675 .8249 C 35.7305 .9429 35.5425 1.3429 35.4955 2.1679 C 35.4475 2.9219 35.4475 3.5819 35.4475 7.1649 L 35.4475 11.3119 C 35.4475 13.4819 35.4475 15.3429 35.5665 16.3569 C 35.6365 17.0169 35.7785 17.5349 36.4845 17.6289 C 36.8155 17.6769 37.3345 17.7239 37.6865 17.7239 C 37.9465 17.7239 38.0645 17.7939 38.0645 17.9129 C 38.0645 18.0769 37.8755 18.1479 37.5925 18.1479 C 36.0605 18.1479 34.5765 18.0769 33.9155 18.0769 C 33.3745 18.0769 31.8895 18.1479 30.9705 18.1479 C 30.6395 18.1479 30.4745 18.0769 30.4745 17.9129 C 30.4745 17.7939 30.5695 17.7239 30.8525 17.7239 C 31.2045 17.7239 31.4885 17.6769 31.7005 17.6289 C 32.1715 17.5349 32.2895 17.0169 32.3845 16.3329 C 32.5025 15.3429 32.5025 13.4819 32.5025 11.3119 L 32.5025 9.2389 C 32.5025 9.1449 32.4315 9.0969 32.3605 9.0969 L 23.3575 9.0969 C 23.2865 9.0969 23.2155 9.1209 23.2155 9.2389 L 23.2155 11.3119 C 23.2155 13.4819 23.2155 15.3429 23.3335 16.3569 C 23.4045 17.0169 23.5455 17.5349 24.2525 17.6289 C 24.5825 17.6769 25.1005 17.7239 25.4545 17.7239 C 25.7145 17.7239 25.8315 17.7939 25.8315 17.9129 C 25.8315 18.0769 25.6435 18.1479 25.3605 18.1479 C 23.8285 18.1479 22.3435 18.0769 21.6835 18.0769 C 21.1405 18.0769 19.6565 18.1479 18.7145 18.1479 C 18.4075 18.1479 18.2425 18.0769 18.2425 17.9129 C 18.2425 17.7939 18.3365 17.7239 18.6195 17.7239 C 18.9735 17.7239 19.2565 17.6769 19.4685 17.6289 C 19.9395 17.5349 20.0575 17.0169 20.1525 16.3329 C 20.2705 15.3429 20.2705 13.4819 20.2705 11.3119 L 20.2705 7.1649 C 20.2705 3.5819 20.2705 2.9219 20.2235 2.1679 C 20.1755 1.3669 19.9875 .9899 19.2095 .8249 C 19.0205 .7779 18.6195 .7539 18.2895 .7539 C 18.0315 .7539 17.8895 .7069 17.8895 .5419 C 17.8895 .3779 18.0535 .3309 18.3835 .3309 C 19.6565 .3309 21.1405 .4009 21.7785 .4009 C 22.3435 .4009 23.8285 .3309 24.7485 .3309 C 25.0775 .3309 25.2425 .3779 25.2425 .5419 C 25.2425 .7069 25.1005 .7539 24.8185 .7539 C 24.6295 .7539 24.4175 .7779 24.1355 .8249 C 23.4985 .9429 23.3105 1.3429 23.2635 2.1679 C 23.2155 2.9219 23.2155 3.5819 23.2155 7.1649 L 23.2155 7.6599 C 23.2155 7.7769 23.2865 7.8249 23.3575 7.8249 Z" fill="#01204f"/><path d="M 43.1785 7.1652 C 43.1785 3.5832 43.1785 2.9232 43.1315 2.1682 C 43.0845 1.3682 42.8955 .9902 42.1175 .8252 C 41.9295 .7772 41.5295 .7532 41.1995 .7532 C 40.9395 .7532 40.7985 .7062 40.7985 .5422 C 40.7985 .3772 40.9635 .3302 41.3165 .3302 C 41.9535 .3302 42.6365 .3542 43.2265 .3542 C 43.8385 .3772 44.3805 .4012 44.7105 .4012 C 45.4645 .4012 50.1555 .4012 50.6025 .3772 C 51.0505 .3302 51.4275 .2832 51.6165 .2352 C 51.7345 .2122 51.8765 .1412 51.9945 .1412 C 52.1125 .1412 52.1345 .2352 52.1345 .3542 C 52.1345 .5192 52.0175 .8012 51.9465 1.8862 C 51.9235 2.1222 51.8765 3.1582 51.8285 3.4412 C 51.8055 3.5592 51.7575 3.7012 51.5925 3.7012 C 51.4275 3.7012 51.3805 3.5832 51.3805 3.3712 C 51.3805 3.2052 51.3565 2.8052 51.2395 2.5222 C 51.0745 2.0982 50.8385 1.8152 49.6605 1.6732 C 49.2585 1.6262 46.7845 1.5792 46.3135 1.5792 C 46.1955 1.5792 46.1485 1.6502 46.1485 1.8152 L 46.1485 7.7772 C 46.1485 7.9432 46.1715 8.0372 46.3135 8.0372 C 46.8315 8.0372 49.5425 8.0372 50.0845 7.9902 C 50.6495 7.9432 51.0035 7.8722 51.2155 7.6362 C 51.3805 7.4482 51.4745 7.3302 51.5925 7.3302 C 51.6875 7.3302 51.7575 7.3782 51.7575 7.5192 C 51.7575 7.6602 51.6635 8.0372 51.5685 9.2392 C 51.5455 9.7112 51.4745 10.6542 51.4745 10.8182 C 51.4745 11.0062 51.4745 11.2662 51.2635 11.2662 C 51.0985 11.2662 51.0505 11.1722 51.0505 11.0532 C 51.0265 10.8182 51.0265 10.5122 50.9565 10.2052 C 50.8385 9.7342 50.5075 9.3812 49.6375 9.2862 C 49.1885 9.2392 46.8555 9.2152 46.2905 9.2152 C 46.1715 9.2152 46.1485 9.3102 46.1485 9.4512 L 46.1485 11.3132 C 46.1485 12.1152 46.1245 14.2832 46.1485 14.9662 C 46.1955 16.5922 46.5735 16.9462 48.9775 16.9462 C 49.5905 16.9462 50.5805 16.9462 51.1925 16.6642 C 51.8055 16.3802 52.0885 15.8862 52.2525 14.9192 C 52.2995 14.6602 52.3475 14.5652 52.5125 14.5652 C 52.7005 14.5652 52.7005 14.7542 52.7005 14.9902 C 52.7005 15.5322 52.5125 17.1342 52.3945 17.6052 C 52.2285 18.2192 52.0175 18.2192 51.1215 18.2192 C 49.3535 18.2192 48.0585 18.1722 47.0435 18.1482 C 46.0305 18.1012 45.2995 18.0772 44.5925 18.0772 C 44.3345 18.0772 43.8155 18.0772 43.2495 18.1012 C 42.7075 18.1012 42.0945 18.1482 41.6235 18.1482 C 41.3165 18.1482 41.1525 18.0772 41.1525 17.9132 C 41.1525 17.7942 41.2465 17.7242 41.5295 17.7242 C 41.8825 17.7242 42.1645 17.6782 42.3775 17.6292 C 42.8485 17.5352 42.9665 17.0162 43.0605 16.3332 C 43.1785 15.3432 43.1785 13.4822 43.1785 11.3132 Z" fill="#01204f"/></g></g></svg>
