<?xml version="1.0" encoding="UTF-8" standalone="no"?>
<svg width="209px" height="85px" viewBox="0 0 209 85" version="1.1" xmlns="http://www.w3.org/2000/svg" xmlns:xlink="http://www.w3.org/1999/xlink">
	<g>
			<path id="UNIVERSITY" fill="#C4960C" d="M32.3605,35.225 L32.452,35.225 C33.001,35.8045 36.3865,39.5255 39.711,42.8195 C42.883,45.961 46.787,49.9565 48.7085,51.7865 C49.044,52.122 49.41,52.4575 49.7455,52.4575 C50.02,52.4575 50.142,52.183 50.142,51.512 L50.4775,32.2665 C50.508,30.5585 50.752,29.918 51.606,29.674 C51.972,29.5825 52.216,29.5825 52.521,29.5825 C52.887,29.5825 53.07,29.491 53.07,29.308 C53.07,29.064 52.765,29.0335 52.3685,29.0335 C50.874,29.0335 49.715,29.125 49.3795,29.125 C48.739,29.125 47.275,29.0335 45.689,29.0335 C45.2315,29.0335 44.896,29.064 44.896,29.308 C44.896,29.491 45.018,29.5825 45.384,29.5825 C45.811,29.5825 46.543,29.5825 47.0005,29.7655 C47.7325,30.0705 48.007,30.65 48.0375,32.5105 L48.3425,46.205 L48.19,46.205 C47.6715,45.717 43.554,41.325 41.48,39.251 C37.027,34.8285 32.391,29.9485 32.025,29.552 C31.5065,29.003 31.232,28.6065 30.8965,28.6065 C30.5915,28.6065 30.5,29.0335 30.5,29.6435 L30.2255,47.608 C30.195,50.2615 30.073,51.146 29.28,51.39 C28.853,51.512 28.304,51.5425 27.9075,51.5425 C27.6025,51.5425 27.4195,51.6035 27.4195,51.7865 C27.4195,52.061 27.694,52.0915 28.0905,52.0915 C29.6765,52.0915 31.11,52 31.3845,52 C31.964,52 33.184,52.0915 35.1665,52.0915 C35.5935,52.0915 35.868,52.0305 35.868,51.7865 C35.868,51.6035 35.685,51.5425 35.3495,51.5425 C34.8615,51.5425 34.282,51.512 33.7635,51.329 C33.1535,51.1155 32.757,50.3225 32.696,47.9435 L32.3605,35.225 L32.3605,35.225 Z M59.8715,43.2465 C59.8715,46.205 59.8715,48.6145 59.719,49.8955 C59.6275,50.78 59.4445,51.2985 58.8345,51.4205 C58.56,51.4815 58.194,51.5425 57.7365,51.5425 C57.3705,51.5425 57.2485,51.634 57.2485,51.7865 C57.2485,52 57.462,52.0915 57.8585,52.0915 C59.0785,52.0915 61,52 61.7015,52 C62.525,52 64.4465,52.0915 66.4595,52.0915 C66.795,52.0915 67.039,52 67.039,51.7865 C67.039,51.634 66.8865,51.5425 66.551,51.5425 C66.0935,51.5425 65.4225,51.4815 64.9955,51.4205 C64.0805,51.2985 63.867,50.7495 63.7755,49.926 C63.6535,48.6145 63.6535,46.205 63.6535,43.2465 L63.6535,37.8785 C63.6535,33.2425 63.6535,32.3885 63.7145,31.4125 C63.7755,30.345 64.0195,29.8265 64.843,29.674 C65.209,29.613 65.453,29.5825 65.758,29.5825 C66.063,29.5825 66.246,29.5215 66.246,29.2775 C66.246,29.0945 66.002,29.0335 65.6055,29.0335 C64.4465,29.0335 62.647,29.125 61.8845,29.125 C61,29.125 59.0785,29.0335 57.9195,29.0335 C57.4315,29.0335 57.1875,29.0945 57.1875,29.2775 C57.1875,29.5215 57.3705,29.5825 57.6755,29.5825 C58.0415,29.5825 58.438,29.613 58.7735,29.7045 C59.4445,29.857 59.7495,30.3755 59.8105,31.4125 C59.8715,32.3885 59.8715,33.2425 59.8715,37.8785 L59.8715,43.2465 L59.8715,43.2465 Z M78.5375,50.658 C79.117,52.0915 79.3,52.5185 79.6965,52.5185 C80.1235,52.5185 80.3065,52.0305 81.0995,50.2615 C81.7705,48.7365 83.204,45.412 85.156,40.959 C86.803,37.2075 87.6265,35.5605 88.816,32.6935 C89.6395,30.7415 90.097,30.223 90.4935,29.9485 C91.0425,29.5825 91.683,29.5825 91.988,29.5825 C92.293,29.5825 92.476,29.5215 92.476,29.308 C92.476,29.0945 92.232,29.0335 91.8355,29.0335 C90.9205,29.0335 89.487,29.125 88.9685,29.125 C88.572,29.125 87.291,29.0335 85.766,29.0335 C85.1865,29.0335 84.912,29.0945 84.912,29.3385 C84.912,29.552 85.156,29.5825 85.4305,29.5825 C85.827,29.5825 86.2845,29.613 86.6505,29.735 C86.925,29.8265 87.047,30.0705 87.047,30.3145 C87.047,30.589 86.925,31.0465 86.7725,31.443 C86.0405,33.456 82.0755,43.277 80.764,46.632 L80.642,46.632 L75.396,32.785 C74.969,31.687 74.6945,30.833 74.6945,30.4365 C74.6945,30.162 74.786,29.9485 74.9995,29.796 C75.2435,29.613 75.701,29.5825 76.189,29.5825 C76.4635,29.5825 76.6465,29.5215 76.6465,29.308 C76.6465,29.0945 76.311,29.0335 75.945,29.0335 C74.42,29.0335 72.956,29.125 72.1935,29.125 C71.126,29.125 69.3875,29.0335 67.771,29.0335 C67.3135,29.0335 66.978,29.064 66.978,29.308 C66.978,29.491 67.0695,29.5825 67.344,29.5825 C67.588,29.5825 68.076,29.5825 68.5335,29.7045 C69.6315,30.0095 70.15,30.345 70.8515,32.0225 L78.5375,50.658 L78.5375,50.658 Z M95.7395,43.2465 C95.7395,46.0525 95.7395,48.462 95.587,49.743 C95.465,50.6275 95.3125,51.2985 94.7025,51.4205 C94.428,51.4815 94.062,51.5425 93.6045,51.5425 C93.2385,51.5425 93.1165,51.634 93.1165,51.7865 C93.1165,52 93.33,52.0915 93.7265,52.0915 C94.3365,52.0915 95.1295,52.0305 95.831,52.0305 C96.563,52 97.234,52 97.5695,52 C98.4845,52 99.43,52.0305 100.7415,52.0915 C102.053,52.122 103.7305,52.183 106.018,52.183 C107.177,52.183 107.4515,52.183 107.665,51.39 C107.8175,50.78 108.0615,48.706 108.0615,48.0045 C108.0615,47.6995 108.0615,47.4555 107.8175,47.4555 C107.604,47.4555 107.543,47.5775 107.482,47.913 C107.2685,49.1635 106.9025,49.804 106.1095,50.17 C105.3165,50.536 104.0355,50.536 103.2425,50.536 C100.1315,50.536 99.6435,50.0785 99.5825,47.974 C99.552,47.0895 99.5825,44.2835 99.5825,43.2465 L99.5825,40.837 C99.5825,40.654 99.613,40.532 99.7655,40.532 C100.4975,40.532 103.517,40.5625 104.0965,40.6235 C105.225,40.7455 105.652,41.203 105.8045,41.813 C105.896,42.2095 105.896,42.606 105.9265,42.911 C105.9265,43.0635 105.9875,43.1855 106.201,43.1855 C106.4755,43.1855 106.4755,42.85 106.4755,42.606 C106.4755,42.3925 106.567,41.1725 106.5975,40.5625 C106.7195,39.007 106.8415,38.519 106.8415,38.336 C106.8415,38.153 106.75,38.092 106.628,38.092 C106.4755,38.092 106.3535,38.2445 106.14,38.4885 C105.8655,38.7935 105.408,38.885 104.676,38.946 C103.9745,39.007 100.467,39.007 99.796,39.007 C99.613,39.007 99.5825,38.885 99.5825,38.6715 L99.5825,30.955 C99.5825,30.7415 99.6435,30.65 99.796,30.65 C100.406,30.65 103.6085,30.711 104.127,30.772 C105.652,30.955 105.957,31.321 106.1705,31.87 C106.323,32.236 106.3535,32.7545 106.3535,32.968 C106.3535,33.2425 106.4145,33.395 106.628,33.395 C106.8415,33.395 106.9025,33.212 106.933,33.0595 C106.994,32.6935 107.055,31.3515 107.0855,31.0465 C107.177,29.6435 107.3295,29.2775 107.3295,29.064 C107.3295,28.9115 107.299,28.7895 107.1465,28.7895 C106.994,28.7895 106.811,28.881 106.6585,28.9115 C106.4145,28.9725 105.9265,29.0335 105.347,29.0945 C104.7675,29.125 98.698,29.125 97.722,29.125 C97.295,29.125 96.5935,29.0945 95.8005,29.064 C95.038,29.064 94.1535,29.0335 93.33,29.0335 C92.8725,29.0335 92.659,29.0945 92.659,29.308 C92.659,29.5215 92.842,29.5825 93.1775,29.5825 C93.6045,29.5825 94.123,29.613 94.367,29.674 C95.3735,29.8875 95.6175,30.3755 95.6785,31.4125 C95.7395,32.3885 95.7395,33.2425 95.7395,37.8785 L95.7395,43.2465 L95.7395,43.2465 Z M140.8185,52.5185 C142.435,52.5185 144.143,52.244 145.668,51.268 C147.864,49.8345 148.535,47.73 148.535,45.961 C148.535,43.0635 147.2235,40.959 143.533,38.1835 L142.679,37.543 C140.1475,35.6215 139.446,34.554 139.446,33.151 C139.446,31.321 140.8185,30.0095 143.0755,30.0095 C145.058,30.0095 145.9425,30.9245 146.4,31.504 C147.0405,32.297 147.193,33.2425 147.193,33.517 C147.193,33.883 147.2845,34.066 147.498,34.066 C147.742,34.066 147.8335,33.822 147.8335,33.151 C147.8335,30.772 147.9555,29.8875 147.9555,29.491 C147.9555,29.2775 147.803,29.186 147.5285,29.125 C146.7355,28.9115 145.4545,28.6065 143.472,28.6065 C139.2325,28.6065 136.4265,31.016 136.4265,34.371 C136.4265,36.8415 137.5855,38.9765 140.9405,41.5995 L142.3435,42.6975 C144.875,44.68 145.3325,46.083 145.3325,47.5775 C145.3325,49.194 143.9905,51.0545 141.2455,51.0545 C139.3545,51.0545 137.555,50.231 136.884,47.974 C136.7315,47.4555 136.6095,46.815 136.6095,46.4185 C136.6095,46.1745 136.579,45.9 136.3045,45.9 C136.0605,45.9 135.969,46.2355 135.9385,46.693 C135.908,47.181 135.786,49.011 135.786,50.6885 C135.786,51.3595 135.8775,51.512 136.3655,51.7255 C137.677,52.305 139.0495,52.5185 140.8185,52.5185 L140.8185,52.5185 L140.8185,52.5185 Z M173.6365,43.2465 C173.6365,46.0525 173.6365,48.462 173.484,49.743 C173.3925,50.6275 173.2095,51.2985 172.5995,51.4205 C172.325,51.4815 171.959,51.5425 171.5015,51.5425 C171.1355,51.5425 171.0135,51.634 171.0135,51.7865 C171.0135,52 171.227,52.0915 171.6235,52.0915 C172.8435,52.0915 174.765,52 175.4665,52 C176.3205,52 178.242,52.0915 180.255,52.0915 C180.5905,52.0915 180.8345,52 180.8345,51.7865 C180.8345,51.634 180.682,51.5425 180.3465,51.5425 C179.889,51.5425 179.218,51.4815 178.791,51.4205 C177.876,51.2985 177.693,50.6275 177.6015,49.7735 C177.449,48.462 177.449,46.0525 177.449,43.2465 L177.449,30.7415 L181.292,30.833 C184.0065,30.894 184.83,31.748 184.891,32.541 L184.9215,32.8765 C184.952,33.334 185.013,33.4865 185.257,33.4865 C185.44,33.4865 185.501,33.3035 185.5315,32.9985 C185.5315,32.2055 185.623,30.101 185.623,29.4605 C185.623,29.003 185.5925,28.82 185.379,28.82 C185.257,28.82 185.013,28.881 184.5555,28.9725 C184.098,29.0335 183.427,29.125 182.451,29.125 L170.373,29.125 C169.3665,29.125 168.2075,29.064 167.323,28.9725 C166.5605,28.9115 166.2555,28.6065 166.0115,28.6065 C165.8285,28.6065 165.737,28.7895 165.6455,29.186 C165.5845,29.43 165.005,32.2055 165.005,32.6935 C165.005,33.029 165.066,33.1815 165.2795,33.1815 C165.4625,33.1815 165.554,33.0595 165.615,32.8155 C165.676,32.5715 165.8285,32.2055 166.1335,31.748 C166.591,31.077 167.323,30.9245 169.092,30.8635 L173.6365,30.7415 L173.6365,43.2465 L173.6365,43.2465 Z M194.651,46.693 C194.651,47.181 194.651,48.462 194.5595,49.743 C194.4985,50.6275 194.224,51.2985 193.614,51.4205 C193.3395,51.4815 192.9735,51.5425 192.5465,51.5425 C192.211,51.5425 192.0585,51.634 192.0585,51.7865 C192.0585,52.0305 192.3025,52.0915 192.7295,52.0915 C193.858,52.0915 195.7795,52 196.542,52 C197.3655,52 199.287,52.0915 201.2085,52.0915 C201.605,52.0915 201.849,52 201.849,51.7865 C201.849,51.634 201.6965,51.5425 201.361,51.5425 C200.934,51.5425 200.263,51.4815 199.836,51.4205 C198.921,51.2985 198.6465,50.6275 198.5855,49.743 C198.494,48.462 198.494,47.181 198.494,46.693 L198.494,44.192 C198.494,43.1855 198.494,42.24 198.9515,41.142 C199.5005,39.8305 203.7705,32.663 204.777,31.443 C205.448,30.6195 205.7835,30.2535 206.424,29.9485 C206.8815,29.7045 207.461,29.5825 207.766,29.5825 C208.1015,29.5825 208.3455,29.491 208.3455,29.2775 C208.3455,29.0945 208.132,29.0335 207.7965,29.0335 C207.217,29.0335 205.204,29.125 204.533,29.125 C203.6485,29.125 202.6725,29.0335 201.666,29.0335 C201.3,29.0335 201.1475,29.0945 201.1475,29.308 C201.1475,29.491 201.422,29.552 201.6965,29.613 C202.215,29.735 202.337,30.0705 202.337,30.3755 C202.337,30.772 202.215,31.2905 201.91,31.9615 C201.483,32.907 197.64,39.617 197.335,40.349 C196.847,39.495 192.577,32.1445 192.15,31.2295 C191.9365,30.8025 191.784,30.4365 191.784,30.1925 C191.784,29.9485 191.9365,29.7045 192.211,29.6435 C192.6685,29.5215 192.882,29.491 192.882,29.308 C192.882,29.125 192.7295,29.0335 192.4245,29.0335 C191.052,29.0335 189.8015,29.125 189.161,29.125 C188.1545,29.125 185.867,29.0335 185.318,29.0335 C184.952,29.0335 184.7385,29.125 184.7385,29.308 C184.7385,29.5215 184.952,29.5825 185.196,29.5825 C185.562,29.5825 186.0805,29.7655 186.477,29.979 C187.0565,30.3145 187.819,31.077 188.5815,32.2055 C189.649,33.7915 193.736,40.5015 193.9495,40.9895 C194.346,41.874 194.651,42.545 194.651,44.192 L194.651,46.693 L194.651,46.693 Z"></path>
			<path id="U-R-I" fill="#F0E7B9" d="M3.6905,42.3315 C3.6905,46.754 4.8495,49.011 6.405,50.414 C8.6315,52.427 11.5595,52.5185 13.176,52.5185 C15.1585,52.5185 17.3545,52.183 19.52,50.3225 C22.082,48.1265 22.4175,44.5275 22.4175,41.142 L22.4175,37.8785 C22.4175,33.2425 22.4175,32.3885 22.4785,31.4125 C22.5395,30.345 22.7835,29.8265 23.607,29.674 C23.973,29.613 24.156,29.5825 24.4915,29.5825 C24.8575,29.5825 25.0405,29.5215 25.0405,29.308 C25.0405,29.0945 24.827,29.0335 24.4,29.0335 C23.2105,29.0335 21.289,29.125 20.923,29.125 C20.8925,29.125 18.971,29.0335 17.4155,29.0335 C16.9885,29.0335 16.775,29.0945 16.775,29.308 C16.775,29.5215 16.958,29.5825 17.2935,29.5825 C17.629,29.5825 18.1475,29.613 18.3915,29.674 C19.398,29.8875 19.642,30.3755 19.703,31.4125 C19.764,32.3885 19.764,33.2425 19.764,37.8785 L19.764,41.691 C19.764,44.8325 19.6725,47.5775 17.995,49.255 C16.775,50.475 15.128,50.902 13.786,50.902 C12.749,50.902 11.346,50.78 9.9735,49.6515 C8.479,48.4315 7.5945,46.571 7.5945,42.1485 L7.5945,37.8785 C7.5945,33.2425 7.5945,32.3885 7.6555,31.4125 C7.7165,30.345 7.9605,29.8265 8.784,29.674 C9.15,29.613 9.333,29.5825 9.6685,29.5825 C9.9735,29.5825 10.1565,29.5215 10.1565,29.308 C10.1565,29.0945 9.943,29.0335 9.4855,29.0335 C8.3875,29.0335 6.466,29.125 5.734,29.125 C4.819,29.125 2.8975,29.0335 1.281,29.0335 C0.8235,29.0335 0.61,29.0945 0.61,29.308 C0.61,29.5215 0.793,29.5825 1.1285,29.5825 C1.5555,29.5825 2.074,29.613 2.318,29.674 C3.3245,29.8875 3.5685,30.3755 3.6295,31.4125 C3.6905,32.3885 3.6905,33.2425 3.6905,37.8785 L3.6905,42.3315 L3.6905,42.3315 Z M115.138,43.2465 C115.138,46.0525 115.138,48.462 114.9855,49.743 C114.8635,50.6275 114.711,51.2985 114.101,51.4205 C113.8265,51.4815 113.4605,51.5425 113.003,51.5425 C112.637,51.5425 112.515,51.634 112.515,51.7865 C112.515,52 112.7285,52.0915 113.125,52.0915 C114.345,52.0915 116.2665,52 116.846,52 C117.3035,52 119.5605,52.0915 121.3295,52.0915 C121.726,52.0915 121.9395,52 121.9395,51.7865 C121.9395,51.634 121.8175,51.5425 121.5735,51.5425 C121.2075,51.5425 120.5365,51.4815 120.079,51.4205 C119.164,51.2985 118.981,50.6275 118.8895,49.743 C118.737,48.462 118.737,46.0525 118.737,43.216 L118.737,42.789 C118.737,42.606 118.8285,42.545 118.981,42.545 L121.6345,42.606 C121.848,42.606 122.031,42.6365 122.1835,42.8195 C122.58,43.277 123.983,45.351 125.203,47.0285 C126.911,49.377 128.07,50.8105 129.3815,51.512 C130.1745,51.939 130.937,52.0915 132.645,52.0915 L135.5425,52.0915 C135.9085,52.0915 136.122,52.0305 136.122,51.7865 C136.122,51.634 136,51.5425 135.756,51.5425 C135.512,51.5425 135.2375,51.512 134.902,51.451 C134.4445,51.3595 133.194,51.146 131.486,49.377 C129.6865,47.486 127.582,44.7715 124.8675,41.3555 C127.948,38.8545 128.8935,36.7805 128.8935,34.5235 C128.8935,32.48 127.6735,30.9245 126.8195,30.345 C125.1725,29.2165 123.129,29.0335 121.2075,29.0335 C120.262,29.0335 117.944,29.125 116.907,29.125 C116.2665,29.125 114.345,29.0335 112.7285,29.0335 C112.271,29.0335 112.0575,29.0945 112.0575,29.308 C112.0575,29.5215 112.2405,29.5825 112.576,29.5825 C113.003,29.5825 113.5215,29.613 113.7655,29.674 C114.772,29.8875 115.016,30.3755 115.077,31.4125 C115.138,32.3885 115.138,33.2425 115.138,37.8785 L115.138,43.2465 L115.138,43.2465 Z M118.737,31.016 C118.737,30.772 118.798,30.65 119.0115,30.589 C119.3165,30.4975 119.8655,30.467 120.628,30.467 C122.4275,30.467 125.2945,31.7175 125.2945,36.0485 C125.2945,38.5495 124.41,39.9525 123.495,40.6235 C122.946,41.02 122.5495,41.142 121.3295,41.142 C120.567,41.142 119.652,41.0505 119.0115,40.837 C118.798,40.7455 118.737,40.6235 118.737,40.288 L118.737,31.016 L118.737,31.016 Z M155.8655,43.2465 C155.8655,46.205 155.8655,48.6145 155.713,49.8955 C155.6215,50.78 155.4385,51.2985 154.8285,51.4205 C154.554,51.4815 154.188,51.5425 153.7305,51.5425 C153.3645,51.5425 153.2425,51.634 153.2425,51.7865 C153.2425,52 153.456,52.0915 153.8525,52.0915 C155.0725,52.0915 156.994,52 157.6955,52 C158.519,52 160.4405,52.0915 162.4535,52.0915 C162.789,52.0915 163.033,52 163.033,51.7865 C163.033,51.634 162.8805,51.5425 162.545,51.5425 C162.0875,51.5425 161.4165,51.4815 160.9895,51.4205 C160.0745,51.2985 159.861,50.7495 159.7695,49.926 C159.6475,48.6145 159.6475,46.205 159.6475,43.2465 L159.6475,37.8785 C159.6475,33.2425 159.6475,32.3885 159.7085,31.4125 C159.7695,30.345 160.0135,29.8265 160.837,29.674 C161.203,29.613 161.447,29.5825 161.752,29.5825 C162.057,29.5825 162.24,29.5215 162.24,29.2775 C162.24,29.0945 161.996,29.0335 161.5995,29.0335 C160.4405,29.0335 158.641,29.125 157.8785,29.125 C156.994,29.125 155.0725,29.0335 153.9135,29.0335 C153.4255,29.0335 153.1815,29.0945 153.1815,29.2775 C153.1815,29.5215 153.3645,29.5825 153.6695,29.5825 C154.0355,29.5825 154.432,29.613 154.7675,29.7045 C155.4385,29.857 155.7435,30.3755 155.8045,31.4125 C155.8655,32.3885 155.8655,33.2425 155.8655,37.8785 L155.8655,43.2465 L155.8655,43.2465 Z"></path>
			<path id="OF-RHODE-ISLAND" fill="#C4960C" d="M9.86070344,84.3288907 C14.774718,84.3288907 17.8701603,80.8271717 17.8701603,76.39682 C17.8701603,71.9664683 14.8714506,69.1612237 10.0541686,69.1612237 C4.25021436,69.1612237 2.06405827,73.4368033 2.06405827,76.7450572 C2.06405827,80.1693902 4.3082539,84.3288907 9.86070344,84.3288907 L9.86070344,84.3288907 L9.86070344,84.3288907 Z M10.673257,83.361565 C6.95872633,83.361565 4.73387721,80.1693902 4.73387721,76.1453153 C4.73387721,71.3280333 7.26827056,70.0898564 9.49311967,70.0898564 C12.665948,70.0898564 15.1616483,72.7790218 15.1616483,77.112641 C15.1616483,82.7037836 12.027513,83.361565 10.673257,83.361565 L10.673257,83.361565 L10.673257,83.361565 Z M24.5447076,76.8804828 C24.5447076,76.7450572 24.5834006,76.7063642 24.6801332,76.7063642 C25.009024,76.7063642 27.0597544,76.7063642 27.5434173,76.7644037 C28.1431592,76.8417898 28.4333569,77.190027 28.5300895,77.4608782 C28.6074756,77.6930364 28.6461686,77.9251946 28.6461686,78.0606202 C28.6461686,78.1960458 28.6848616,78.3314714 28.8009407,78.3314714 C28.9944059,78.3314714 28.9944059,78.1380062 28.9944059,77.9638876 C28.9944059,77.828462 29.0330989,76.9385224 29.0717919,76.5515921 C29.1298314,75.9518501 29.226564,75.4681873 29.226564,75.3521082 C29.226564,75.2360291 29.187871,75.1779896 29.1104849,75.1779896 C28.9944059,75.1779896 28.9557128,75.2553756 28.8589803,75.3714547 C28.6655151,75.6229594 28.3946639,75.7003455 28.0270801,75.719692 C27.756229,75.7390385 27.4853778,75.7390385 27.156487,75.7390385 L24.6801332,75.758385 C24.5640541,75.758385 24.5447076,75.7003455 24.5447076,75.5842664 L24.5447076,70.7476379 C24.5447076,70.5348262 24.6027472,70.4767867 24.7188262,70.4767867 L27.6981894,70.5348262 C28.4333569,70.5541727 28.8396337,70.8443704 28.9750593,71.1152216 C29.0911384,71.3860728 29.0911384,71.6956171 29.0911384,71.8503892 C29.1104849,72.0632008 29.149178,72.1599334 29.2846036,72.1599334 C29.4200292,72.1599334 29.4587222,72.0438543 29.4780687,71.8890822 C29.5167617,71.656924 29.5554548,70.5154797 29.5748013,70.3220146 C29.6328408,69.8190052 29.7295734,69.586847 29.7295734,69.4514214 C29.7295734,69.3546889 29.6715338,69.2773028 29.5941478,69.2773028 C29.4974152,69.2773028 29.4006826,69.3546889 29.2846036,69.3933819 C29.0911384,69.4514214 28.8589803,69.4514214 28.4913965,69.4707679 C28.0464267,69.4901145 24.1190843,69.4901145 23.3839168,69.4901145 C23.1130656,69.4901145 22.6680958,69.4707679 22.1650864,69.4514214 C21.662077,69.4514214 21.1010281,69.4320749 20.5980187,69.4320749 C20.307821,69.4320749 20.1530489,69.4707679 20.1530489,69.6255401 C20.1530489,69.7416191 20.2884745,69.7803122 20.4819397,69.7803122 C20.7527909,69.7803122 21.0816816,69.7996587 21.2364537,69.8383517 C21.8748887,69.9737773 22.0296608,70.2833215 22.0683538,70.941103 C22.1070468,71.5601915 22.1070468,72.1018939 22.1070468,75.042564 L22.1070468,78.4475505 C22.1070468,80.3048158 22.1070468,81.7558044 22.0103143,82.568358 C21.9329282,83.1294069 21.8361956,83.5550302 21.4492654,83.6324162 C21.2751467,83.6711093 21.0429886,83.7098023 20.7527909,83.7098023 C20.5399792,83.7098023 20.4625931,83.7678418 20.4625931,83.8645744 C20.4625931,84.0193465 20.5980187,84.0580395 20.8688699,84.0580395 C21.6040375,84.0580395 22.8228679,84 23.3258772,84 C23.8288866,84 25.047717,84.0580395 26.2665474,84.0580395 C26.5567451,84.0580395 26.6921707,84 26.6921707,83.8645744 C26.6921707,83.7678418 26.6147846,83.7098023 26.3632799,83.7098023 C26.0924287,83.7098023 25.6668054,83.6711093 25.3959542,83.6324162 C24.8155588,83.5550302 24.6994797,83.1294069 24.6414402,82.568358 C24.5447076,81.7558044 24.5447076,80.3048158 24.5447076,78.4475505 L24.5447076,76.8804828 L24.5447076,76.8804828 Z M39.9445328,78.4475505 C39.9445328,80.2274298 39.9445328,81.7558044 39.8478002,82.568358 C39.7704142,83.1294069 39.6736816,83.5550302 39.2867513,83.6324162 C39.1126327,83.6711093 38.8804745,83.7098023 38.5902768,83.7098023 C38.3581187,83.7098023 38.2807326,83.7678418 38.2807326,83.8645744 C38.2807326,84 38.4161582,84.0580395 38.6676629,84.0580395 C39.4415234,84.0580395 40.6603538,84 41.0279376,84 C41.3181353,84 42.7497773,84.0580395 43.8718752,84.0580395 C44.1233798,84.0580395 44.2588054,84 44.2588054,83.8645744 C44.2588054,83.7678418 44.1814194,83.7098023 44.0266473,83.7098023 C43.7944891,83.7098023 43.3688658,83.6711093 43.0786681,83.6324162 C42.4982727,83.5550302 42.3821936,83.1294069 42.324154,82.568358 C42.2274215,81.7558044 42.2274215,80.2274298 42.2274215,78.4282039 L42.2274215,78.1573528 C42.2274215,78.0412737 42.285461,78.0025806 42.3821936,78.0025806 L44.0653403,78.0412737 C44.2007659,78.0412737 44.316845,78.0606202 44.4135776,78.1766993 C44.6650822,78.466897 45.5550219,79.7824599 46.3288825,80.8465182 C47.4122872,82.3361998 48.1474548,83.245486 48.9793549,83.6904558 C49.4823642,83.961307 49.9660271,84.0580395 51.0494319,84.0580395 L52.8873507,84.0580395 C53.1195089,84.0580395 53.2549345,84.0193465 53.2549345,83.8645744 C53.2549345,83.7678418 53.1775484,83.7098023 53.0227763,83.7098023 C52.8680042,83.7098023 52.6938856,83.6904558 52.4810739,83.6517627 C52.1908762,83.5937232 51.3976691,83.4582976 50.3142643,82.3361998 C49.17282,81.1367159 47.8379105,79.4148762 46.1160708,77.2480666 C48.0700687,75.6616524 48.6698107,74.3460895 48.6698107,72.9144474 C48.6698107,71.618231 47.8959501,70.6315588 47.3542477,70.263975 C46.3095359,69.548154 45.0133195,69.4320749 43.7944891,69.4320749 C43.1947472,69.4320749 41.7244121,69.4901145 41.0666306,69.4901145 C40.6603538,69.4901145 39.4415234,69.4320749 38.4161582,69.4320749 C38.1259605,69.4320749 37.9905349,69.4707679 37.9905349,69.6061935 C37.9905349,69.7416191 38.106614,69.7803122 38.3194256,69.7803122 C38.5902768,69.7803122 38.9191676,69.7996587 39.0739397,69.8383517 C39.7123746,69.9737773 39.8671468,70.2833215 39.9058398,70.941103 C39.9445328,71.5601915 39.9445328,72.1018939 39.9445328,75.042564 L39.9445328,78.4475505 L39.9445328,78.4475505 Z M42.2274215,70.6895983 C42.2274215,70.5348262 42.2661145,70.4574402 42.4015401,70.4187471 C42.5950052,70.3607076 42.9432425,70.3413611 43.4269053,70.3413611 C44.5683497,70.3413611 46.386922,71.1345681 46.386922,73.8817731 C46.386922,75.4681873 45.8258731,76.3581269 45.2454777,76.7837503 C44.8972404,77.0352549 44.6457357,77.112641 43.8718752,77.112641 C43.3882123,77.112641 42.8078169,77.0546015 42.4015401,76.9191759 C42.2661145,76.8611363 42.2274215,76.7837503 42.2274215,76.5709386 L42.2274215,70.6895983 L42.2274215,70.6895983 Z M57.0855443,75.5842664 C57.0275047,75.5842664 56.9694652,75.5455734 56.9694652,75.4488408 L56.9694652,75.042564 C56.9694652,72.1018939 56.9694652,71.5601915 57.0081582,70.941103 C57.0468512,70.263975 57.2016234,69.9350843 57.7239792,69.8383517 C57.9561374,69.7996587 58.130256,69.7803122 58.2850281,69.7803122 C58.5171863,69.7803122 58.6332654,69.7416191 58.6332654,69.6061935 C58.6332654,69.4707679 58.4978398,69.4320749 58.2269886,69.4320749 C57.4724746,69.4320749 56.2536442,69.4901145 55.7893278,69.4901145 C55.2669719,69.4901145 54.0481416,69.4320749 53.0034298,69.4320749 C52.7325786,69.4320749 52.597153,69.4707679 52.597153,69.6061935 C52.597153,69.7416191 52.7132321,69.7803122 52.9260437,69.7803122 C53.1968949,69.7803122 53.5257857,69.7996587 53.6805578,69.8383517 C54.3189928,69.9737773 54.4737649,70.2833215 54.5124579,70.941103 C54.5511509,71.5601915 54.5511509,72.1018939 54.5511509,75.042564 L54.5511509,78.4475505 C54.5511509,80.2274298 54.5511509,81.7558044 54.4544184,82.568358 C54.3770323,83.1294069 54.2802997,83.5550302 53.8933695,83.6324162 C53.7192508,83.6711093 53.4870927,83.7098023 53.1968949,83.7098023 C52.9647368,83.7098023 52.8873507,83.7678418 52.8873507,83.8645744 C52.8873507,84 53.0227763,84.0580395 53.274281,84.0580395 C54.0481416,84.0580395 55.2669719,84 55.7119418,84 C56.2536442,84 57.4724746,84.0580395 58.729998,84.0580395 C58.9621561,84.0580395 59.1169282,84 59.1169282,83.8645744 C59.1169282,83.7678418 59.0201957,83.7098023 58.807384,83.7098023 C58.5171863,83.7098023 58.091563,83.6711093 57.8207118,83.6324162 C57.2403164,83.5550302 57.1242373,83.1294069 57.0661978,82.5877045 C56.9694652,81.7558044 56.9694652,80.2274298 56.9694652,78.4475505 L56.9694652,76.7450572 C56.9694652,76.6483247 57.0275047,76.6289781 57.0855443,76.6289781 L64.4759126,76.6289781 C64.5339522,76.6289781 64.5919917,76.6676712 64.5919917,76.7450572 L64.5919917,78.4475505 C64.5919917,80.2274298 64.5919917,81.7558044 64.4952592,82.568358 C64.4178731,83.1294069 64.3211405,83.5550302 63.9342102,83.6324162 C63.7600916,83.6711093 63.5279335,83.7098023 63.2377357,83.7098023 C63.0055776,83.7098023 62.9281915,83.7678418 62.9281915,83.8645744 C62.9281915,84 63.0636171,84.0580395 63.3344683,84.0580395 C64.0889824,84.0580395 65.3078127,84 65.7527826,84 C66.294485,84 67.5133154,84.0580395 68.7708388,84.0580395 C69.0029969,84.0580395 69.157769,84 69.157769,83.8645744 C69.157769,83.7678418 69.0610365,83.7098023 68.8482248,83.7098023 C68.5580271,83.7098023 68.1324038,83.6711093 67.8615526,83.6324162 C67.2811572,83.5550302 67.1650781,83.1294069 67.1070386,82.5877045 C67.010306,81.7558044 67.010306,80.2274298 67.010306,78.4475505 L67.010306,75.042564 C67.010306,72.1018939 67.010306,71.5601915 67.048999,70.941103 C67.087692,70.263975 67.2424642,69.9350843 67.76482,69.8383517 C67.9969782,69.7996587 68.1710968,69.7803122 68.3258689,69.7803122 C68.5580271,69.7803122 68.6741062,69.7416191 68.6741062,69.6061935 C68.6741062,69.4707679 68.5386806,69.4320749 68.2678294,69.4320749 C67.5133154,69.4320749 66.294485,69.4901145 65.8301686,69.4901145 C65.3078127,69.4901145 64.0889824,69.4320749 63.0442706,69.4320749 C62.7734194,69.4320749 62.6379938,69.4707679 62.6379938,69.6061935 C62.6379938,69.7416191 62.7540729,69.7803122 62.9668845,69.7803122 C63.2377357,69.7803122 63.5666265,69.7996587 63.7213986,69.8383517 C64.3598336,69.9737773 64.5146057,70.2833215 64.5532987,70.941103 C64.5919917,71.5601915 64.5919917,72.1018939 64.5919917,75.042564 L64.5919917,75.4488408 C64.5919917,75.5455734 64.5339522,75.5842664 64.4759126,75.5842664 L57.0855443,75.5842664 L57.0855443,75.5842664 Z M79.0438377,84.3288907 C83.9578523,84.3288907 87.0532946,80.8271717 87.0532946,76.39682 C87.0532946,71.9664683 84.0545849,69.1612237 79.2373029,69.1612237 C73.4333487,69.1612237 71.2471926,73.4368033 71.2471926,76.7450572 C71.2471926,80.1693902 73.4913882,84.3288907 79.0438377,84.3288907 L79.0438377,84.3288907 L79.0438377,84.3288907 Z M79.8563913,83.361565 C76.1418606,83.361565 73.9170115,80.1693902 73.9170115,76.1453153 C73.9170115,71.3280333 76.4514048,70.0898564 78.676254,70.0898564 C81.8490823,70.0898564 84.3447826,72.7790218 84.3447826,77.112641 C84.3447826,82.7037836 81.2106473,83.361565 79.8563913,83.361565 L79.8563913,83.361565 L79.8563913,83.361565 Z M91.2901811,78.4475505 C91.2901811,80.2274298 91.2901811,81.7558044 91.1934486,82.568358 C91.1160625,83.1294069 91.0193299,83.5550302 90.6323997,83.6324162 C90.458281,83.6711093 90.2261229,83.7098023 89.9359252,83.7098023 C89.703767,83.7098023 89.6263809,83.7678418 89.6263809,83.8645744 C89.6263809,84 89.7618065,84.0580395 90.0133112,84.0580395 C90.4002415,84.0580395 90.9032509,84.0193465 91.3482207,84.0193465 C91.812537,84 92.2381603,84 92.450972,84 C92.9346348,84 93.6117628,84.0580395 94.3469304,84.1160791 C95.0820979,84.1741186 95.875305,84.2321582 96.5717795,84.2321582 C100.150885,84.2321582 102.162922,82.8585557 103.052862,81.9492695 C104.136266,80.8465182 105.161632,78.9892529 105.161632,76.5515921 C105.161632,74.2493569 104.252346,72.6435962 103.28502,71.6375775 C101.17625,69.4320749 97.945382,69.4320749 95.5270677,69.4320749 C94.3662769,69.4320749 93.1474465,69.4901145 92.5477046,69.4901145 C92.0060022,69.4901145 90.7871718,69.4320749 89.7618065,69.4320749 C89.4716088,69.4320749 89.3361832,69.4707679 89.3361832,69.6061935 C89.3361832,69.7416191 89.4522623,69.7803122 89.665074,69.7803122 C89.9359252,69.7803122 90.2648159,69.7996587 90.419588,69.8383517 C91.058023,69.9737773 91.2127951,70.2833215 91.2514881,70.941103 C91.2901811,71.5601915 91.2901811,72.1018939 91.2901811,75.042564 L91.2901811,78.4475505 L91.2901811,78.4475505 Z M93.7084954,74.7330198 C93.7084954,73.2046452 93.7084954,71.5214984 93.7278419,70.863717 C93.7278419,70.6509053 93.7858815,70.5541727 93.9600001,70.4767867 C94.1147722,70.3994006 94.8305932,70.3413611 95.2175235,70.3413611 C96.7265516,70.3413611 98.9320542,70.5735192 100.711933,72.2760125 C101.543834,73.0692196 102.569199,74.6556337 102.569199,77.112641 C102.569199,79.1053319 102.182269,80.8658647 100.944092,81.929923 C99.7833008,82.9359417 98.4677379,83.322872 96.4943934,83.322872 C94.9660188,83.322872 94.2115048,82.9165952 93.9600001,82.5490114 C93.805228,82.3361998 93.7665349,81.5623392 93.7471884,81.0786764 C93.7278419,80.7110926 93.7084954,79.221411 93.7084954,77.1706805 L93.7084954,74.7330198 L93.7084954,74.7330198 Z M109.398518,78.4475505 C109.398518,80.2274298 109.398518,81.7558044 109.301786,82.568358 C109.2244,83.1294069 109.127667,83.5550302 108.740737,83.6324162 C108.566618,83.6711093 108.33446,83.7098023 108.044262,83.7098023 C107.812104,83.7098023 107.734718,83.7678418 107.734718,83.8645744 C107.734718,84 107.870144,84.0580395 108.121648,84.0580395 C108.508579,84.0580395 109.011588,84.0193465 109.456558,84.0193465 C109.920874,84 110.346497,84 110.559309,84 C111.139705,84 111.739447,84.0193465 112.571347,84.0580395 C113.403247,84.0773861 114.467305,84.1160791 115.918294,84.1160791 C116.653461,84.1160791 116.82758,84.1160791 116.963005,83.6130697 C117.059738,83.2261394 117.21451,81.9105765 117.21451,81.4656067 C117.21451,81.2721415 117.21451,81.1173694 117.059738,81.1173694 C116.924312,81.1173694 116.885619,81.1947555 116.846926,81.4075671 C116.711501,82.2007742 116.479342,82.607051 115.976333,82.8392092 C115.473324,83.0713673 114.66077,83.0713673 114.157761,83.0713673 C112.184416,83.0713673 111.874872,82.7811696 111.836179,81.4462601 C111.816833,80.8852112 111.836179,79.1053319 111.836179,78.4475505 L111.836179,76.9191759 C111.836179,76.8030968 111.855526,76.7257107 111.952258,76.7257107 C112.416574,76.7257107 114.331879,76.7450572 114.699463,76.7837503 C115.415284,76.8611363 115.686135,77.151334 115.782868,77.5382643 C115.840907,77.789769 115.840907,78.0412737 115.860254,78.2347388 C115.860254,78.3314714 115.898947,78.4088574 116.034373,78.4088574 C116.208491,78.4088574 116.208491,78.1960458 116.208491,78.0412737 C116.208491,77.9058481 116.266531,77.1319875 116.285877,76.7450572 C116.363263,75.758385 116.440649,75.4488408 116.440649,75.3327617 C116.440649,75.2166826 116.38261,75.1779896 116.305224,75.1779896 C116.208491,75.1779896 116.131105,75.2747222 115.99568,75.4294943 C115.821561,75.6229594 115.531363,75.680999 115.067047,75.719692 C114.622077,75.758385 112.397228,75.758385 111.971605,75.758385 C111.855526,75.758385 111.836179,75.680999 111.836179,75.5455734 L111.836179,70.6509053 C111.836179,70.5154797 111.874872,70.4574402 111.971605,70.4574402 C112.358535,70.4574402 114.389919,70.4961332 114.71881,70.5348262 C115.686135,70.6509053 115.879601,70.8830635 116.015026,71.2313007 C116.111759,71.4634589 116.131105,71.7923496 116.131105,71.9277752 C116.131105,72.1018939 116.169798,72.1986264 116.305224,72.1986264 C116.440649,72.1986264 116.479342,72.0825473 116.498689,71.9858148 C116.537382,71.7536566 116.576075,70.90241 116.595422,70.7089448 C116.653461,69.8190052 116.750194,69.586847 116.750194,69.4514214 C116.750194,69.3546889 116.730847,69.2773028 116.634115,69.2773028 C116.537382,69.2773028 116.421303,69.3353423 116.32457,69.3546889 C116.169798,69.3933819 115.860254,69.4320749 115.49267,69.4707679 C115.125086,69.4901145 111.27513,69.4901145 110.656042,69.4901145 C110.385191,69.4901145 109.940221,69.4707679 109.437211,69.4514214 C108.953548,69.4514214 108.3925,69.4320749 107.870144,69.4320749 C107.579946,69.4320749 107.44452,69.4707679 107.44452,69.6061935 C107.44452,69.7416191 107.560599,69.7803122 107.773411,69.7803122 C108.044262,69.7803122 108.373153,69.7996587 108.527925,69.8383517 C109.16636,69.9737773 109.321132,70.2833215 109.359825,70.941103 C109.398518,71.5601915 109.398518,72.1018939 109.398518,75.042564 L109.398518,78.4475505 L109.398518,78.4475505 Z M127.429469,78.4475505 C127.429469,80.3241623 127.429469,81.8525369 127.332737,82.6650905 C127.274697,83.2261394 127.158618,83.5550302 126.771688,83.6324162 C126.597569,83.6711093 126.365411,83.7098023 126.075213,83.7098023 C125.843055,83.7098023 125.765669,83.7678418 125.765669,83.8645744 C125.765669,84 125.901095,84.0580395 126.152599,84.0580395 C126.92646,84.0580395 128.14529,84 128.59026,84 C129.112616,84 130.331447,84.0580395 131.608316,84.0580395 C131.821128,84.0580395 131.9759,84 131.9759,83.8645744 C131.9759,83.7678418 131.879168,83.7098023 131.666356,83.7098023 C131.376158,83.7098023 130.950535,83.6711093 130.679684,83.6324162 C130.099288,83.5550302 129.963863,83.2067929 129.905823,82.684437 C129.828437,81.8525369 129.828437,80.3241623 129.828437,78.4475505 L129.828437,75.042564 C129.828437,72.1018939 129.828437,71.5601915 129.86713,70.941103 C129.905823,70.263975 130.060595,69.9350843 130.582951,69.8383517 C130.815109,69.7996587 130.969881,69.7803122 131.163347,69.7803122 C131.356812,69.7803122 131.472891,69.7416191 131.472891,69.586847 C131.472891,69.4707679 131.318119,69.4320749 131.066614,69.4320749 C130.331447,69.4320749 129.190002,69.4901145 128.706339,69.4901145 C128.14529,69.4901145 126.92646,69.4320749 126.191293,69.4320749 C125.881748,69.4320749 125.726976,69.4707679 125.726976,69.586847 C125.726976,69.7416191 125.843055,69.7803122 126.03652,69.7803122 C126.268679,69.7803122 126.520183,69.7996587 126.732995,69.8576982 C127.158618,69.9544308 127.352083,70.2833215 127.390776,70.941103 C127.429469,71.5601915 127.429469,72.1018939 127.429469,75.042564 L127.429469,78.4475505 L127.429469,78.4475505 Z M137.934627,84.3288907 C138.959992,84.3288907 140.043397,84.1547721 141.010722,83.5356837 C142.403671,82.6263975 142.829295,81.291488 142.829295,80.1693902 C142.829295,78.3314714 141.997394,76.9965619 139.656466,75.2360291 L139.114764,74.8297523 C137.509003,73.6109219 137.064033,72.933794 137.064033,72.0438543 C137.064033,70.8830635 137.934627,70.0511634 139.366269,70.0511634 C140.623792,70.0511634 141.184841,70.6315588 141.475039,70.9991425 C141.881315,71.5021519 141.978048,72.1018939 141.978048,72.2760125 C141.978048,72.5081706 142.036088,72.6242497 142.171513,72.6242497 C142.326285,72.6242497 142.384325,72.4694776 142.384325,72.0438543 C142.384325,70.5348262 142.461711,69.9737773 142.461711,69.7222726 C142.461711,69.586847 142.364978,69.5288075 142.19086,69.4901145 C141.68785,69.3546889 140.875297,69.1612237 139.617773,69.1612237 C136.928608,69.1612237 135.148729,70.6895983 135.148729,72.8177149 C135.148729,74.3847825 135.883896,75.7390385 138.012013,77.4028387 L138.901952,78.0993132 C140.507713,79.3568366 140.797911,80.2467763 140.797911,81.1947555 C140.797911,82.2201207 139.946664,83.4002581 138.205478,83.4002581 C137.005994,83.4002581 135.86455,82.8779022 135.438926,81.4462601 C135.342194,81.1173694 135.264808,80.7110926 135.264808,80.4595879 C135.264808,80.3048158 135.245461,80.1306972 135.071342,80.1306972 C134.91657,80.1306972 134.858531,80.3435088 134.839184,80.6337066 C134.819838,80.9432508 134.742452,82.1040416 134.742452,83.1680999 C134.742452,83.5937232 134.800491,83.6904558 135.110035,83.8258814 C135.941936,84.1934651 136.812529,84.3288907 137.934627,84.3288907 L137.934627,84.3288907 L137.934627,84.3288907 Z M149.852079,75.042564 C149.852079,72.1018939 149.852079,71.5601915 149.890772,70.941103 C149.929465,70.263975 150.084237,69.9350843 150.606593,69.8383517 C150.838751,69.7996587 151.148296,69.7803122 151.361107,69.7803122 C151.593265,69.7803122 151.709345,69.7416191 151.709345,69.6061935 C151.709345,69.4707679 151.573919,69.4320749 151.303068,69.4320749 C150.548554,69.4320749 149.136258,69.4901145 148.671942,69.4901145 C148.149586,69.4901145 146.930756,69.4320749 146.021469,69.4320749 C145.731272,69.4320749 145.595846,69.4707679 145.595846,69.6061935 C145.595846,69.7416191 145.711925,69.7803122 145.924737,69.7803122 C146.176242,69.7803122 146.4084,69.7996587 146.563172,69.8383517 C147.201607,69.9737773 147.356379,70.2833215 147.395072,70.941103 C147.433765,71.5601915 147.433765,72.1018939 147.433765,75.042564 L147.433765,78.4475505 C147.433765,80.2274298 147.433765,81.7558044 147.337032,82.568358 C147.259646,83.1294069 147.162914,83.5550302 146.775983,83.6324162 C146.601865,83.6711093 146.369707,83.7098023 146.079509,83.7098023 C145.847351,83.7098023 145.769965,83.7678418 145.769965,83.8645744 C145.769965,84 145.90539,84.0580395 146.156895,84.0580395 C146.543825,84.0580395 147.046835,84.0193465 147.491804,84.0193465 C147.956121,84 148.381744,84 148.594556,84 C149.387763,84 150.084237,84.0193465 150.954831,84.0580395 C151.825424,84.0773861 152.831442,84.1160791 154.224391,84.1160791 C155.23041,84.1160791 155.327143,84.0193465 155.443222,83.5937232 C155.597994,83.0326743 155.733419,81.5816857 155.733419,81.3688741 C155.733419,81.1367159 155.714073,81.0399833 155.578647,81.0399833 C155.423875,81.0399833 155.385182,81.1560624 155.365836,81.3301811 C155.327143,81.6977648 155.094985,82.2394672 154.862826,82.4909719 C154.379163,83.0133278 153.624649,83.0326743 152.599284,83.0326743 C151.090256,83.0326743 150.587247,82.8972487 150.258356,82.607051 C149.852079,82.2588137 149.852079,80.9239043 149.852079,78.4475505 L149.852079,75.042564 L149.852079,75.042564 Z M164.226539,79.1246785 C164.323272,79.1246785 164.381311,79.1633715 164.420004,79.2601041 L165.967725,83.245486 C166.064458,83.4776441 165.929032,83.6517627 165.793607,83.6904558 C165.600142,83.7098023 165.522756,83.7484953 165.522756,83.8645744 C165.522756,84 165.754914,84 166.103151,84.0193465 C167.650872,84.0580395 169.063168,84.0580395 169.759642,84.0580395 C170.475463,84.0580395 170.649582,84.0193465 170.649582,83.8645744 C170.649582,83.7291488 170.552849,83.7098023 170.398077,83.7098023 C170.165919,83.7098023 169.875721,83.6904558 169.585524,83.6324162 C169.179247,83.5356837 168.618198,83.2648325 167.88303,81.5236462 C166.644853,78.5829761 163.549411,70.8443704 163.085095,69.7803122 C162.89163,69.3353423 162.775551,69.1612237 162.601432,69.1612237 C162.407967,69.1612237 162.291888,69.3740354 162.05973,69.9350843 L157.203755,81.929923 C156.816824,82.8972487 156.449241,83.5550302 155.559301,83.6711093 C155.404529,83.6904558 155.133678,83.7098023 154.959559,83.7098023 C154.804787,83.7098023 154.727401,83.7484953 154.727401,83.8645744 C154.727401,84.0193465 154.84348,84.0580395 155.094985,84.0580395 C156.101003,84.0580395 157.165062,84 157.377873,84 C157.977615,84 158.809515,84.0580395 159.428604,84.0580395 C159.641415,84.0580395 159.757494,84.0193465 159.757494,83.8645744 C159.757494,83.7484953 159.699455,83.7098023 159.467297,83.7098023 L159.177099,83.7098023 C158.577357,83.7098023 158.403238,83.4582976 158.403238,83.1100604 C158.403238,82.8779022 158.499971,82.4135858 158.693436,81.929923 L159.738148,79.2794506 C159.776841,79.1633715 159.815534,79.1246785 159.912267,79.1246785 L164.226539,79.1246785 L164.226539,79.1246785 Z M160.299197,78.1573528 C160.221811,78.1573528 160.202464,78.0993132 160.221811,78.0219272 L162.00169,73.2820312 C162.021037,73.2046452 162.05973,73.1079126 162.117769,73.1079126 C162.175809,73.1079126 162.195155,73.2046452 162.214502,73.2820312 L163.955688,78.0412737 C163.975034,78.0993132 163.955688,78.1573528 163.858955,78.1573528 L160.299197,78.1573528 L160.299197,78.1573528 Z M173.551559,73.3594173 L173.609598,73.3594173 C173.957836,73.727001 176.105299,76.0872757 178.214069,78.1766993 C180.226106,80.1693902 182.70246,82.7037836 183.92129,83.8645744 C184.134102,84.0773861 184.36626,84.2901977 184.579072,84.2901977 C184.753191,84.2901977 184.830577,84.1160791 184.830577,83.6904558 L185.043388,71.4828054 C185.062735,70.3994006 185.217507,69.9931238 185.759209,69.8383517 C185.991367,69.7803122 186.14614,69.7803122 186.339605,69.7803122 C186.571763,69.7803122 186.687842,69.7222726 186.687842,69.6061935 C186.687842,69.4514214 186.494377,69.4320749 186.242872,69.4320749 C185.294893,69.4320749 184.559725,69.4901145 184.346914,69.4901145 C183.940637,69.4901145 183.012004,69.4320749 182.005986,69.4320749 C181.715788,69.4320749 181.502976,69.4514214 181.502976,69.6061935 C181.502976,69.7222726 181.580362,69.7803122 181.81252,69.7803122 C182.083372,69.7803122 182.547688,69.7803122 182.837886,69.8963912 C183.302202,70.0898564 183.476321,70.4574402 183.495667,71.6375775 L183.689132,80.3241623 L183.5924,80.3241623 C183.263509,80.0146181 180.65173,77.2287201 179.336167,75.9131571 C176.511576,73.1079126 173.570905,70.0124703 173.338747,69.7609656 C173.009857,69.4127284 172.835738,69.1612237 172.622926,69.1612237 C172.429461,69.1612237 172.371422,69.4320749 172.371422,69.8190052 L172.197303,81.214102 C172.177956,82.8972487 172.10057,83.4582976 171.597561,83.6130697 C171.32671,83.6904558 170.978473,83.7098023 170.726968,83.7098023 C170.533503,83.7098023 170.417424,83.7484953 170.417424,83.8645744 C170.417424,84.038693 170.591542,84.0580395 170.843047,84.0580395 C171.849066,84.0580395 172.758352,84 172.93247,84 C173.300054,84 174.073915,84.0580395 175.331438,84.0580395 C175.602289,84.0580395 175.776408,84.0193465 175.776408,83.8645744 C175.776408,83.7484953 175.660329,83.7098023 175.447517,83.7098023 C175.137973,83.7098023 174.770389,83.6904558 174.441499,83.5743767 C174.054568,83.4389511 173.803064,82.9359417 173.764371,81.4269136 L173.551559,73.3594173 L173.551559,73.3594173 Z M191.002115,78.4475505 C191.002115,80.2274298 191.002115,81.7558044 190.905382,82.568358 C190.827996,83.1294069 190.731263,83.5550302 190.344333,83.6324162 C190.170215,83.6711093 189.938056,83.7098023 189.647859,83.7098023 C189.4157,83.7098023 189.338314,83.7678418 189.338314,83.8645744 C189.338314,84 189.47374,84.0580395 189.725245,84.0580395 C190.112175,84.0580395 190.615184,84.0193465 191.060154,84.0193465 C191.524471,84 191.950094,84 192.162905,84 C192.646568,84 193.323696,84.0580395 194.058864,84.1160791 C194.794031,84.1741186 195.587238,84.2321582 196.283713,84.2321582 C199.862818,84.2321582 201.874856,82.8585557 202.764795,81.9492695 C203.8482,80.8465182 204.873565,78.9892529 204.873565,76.5515921 C204.873565,74.2493569 203.964279,72.6435962 202.996953,71.6375775 C200.888183,69.4320749 197.657315,69.4320749 195.239001,69.4320749 C194.07821,69.4320749 192.85938,69.4901145 192.259638,69.4901145 C191.717936,69.4901145 190.499105,69.4320749 189.47374,69.4320749 C189.183542,69.4320749 189.048117,69.4707679 189.048117,69.6061935 C189.048117,69.7416191 189.164196,69.7803122 189.377007,69.7803122 C189.647859,69.7803122 189.976749,69.7996587 190.131521,69.8383517 C190.769956,69.9737773 190.924729,70.2833215 190.963422,70.941103 C191.002115,71.5601915 191.002115,72.1018939 191.002115,75.042564 L191.002115,78.4475505 L191.002115,78.4475505 Z M193.420429,74.7330198 C193.420429,73.2046452 193.420429,71.5214984 193.439775,70.863717 C193.439775,70.6509053 193.497815,70.5541727 193.671934,70.4767867 C193.826706,70.3994006 194.542527,70.3413611 194.929457,70.3413611 C196.438485,70.3413611 198.643988,70.5735192 200.423867,72.2760125 C201.255767,73.0692196 202.281132,74.6556337 202.281132,77.112641 C202.281132,79.1053319 201.894202,80.8658647 200.656025,81.929923 C199.495234,82.9359417 198.179671,83.322872 196.206327,83.322872 C194.677952,83.322872 193.923438,82.9165952 193.671934,82.5490114 C193.517161,82.3361998 193.478468,81.5623392 193.459122,81.0786764 C193.439775,80.7110926 193.420429,79.221411 193.420429,77.1706805 L193.420429,74.7330198 L193.420429,74.7330198 Z"></path>
			<path id="THE" fill="#C4960C" d="M5.74591468,9.44755046 C5.74591468,11.2274298 5.74591468,12.7558044 5.64918211,13.568358 C5.59114256,14.1294069 5.47506348,14.5550302 5.0881332,14.6324162 C4.91401457,14.6711093 4.6818564,14.7098023 4.39165869,14.7098023 C4.15950052,14.7098023 4.08211447,14.7678418 4.08211447,14.8645744 C4.08211447,15 4.21754007,15.0580395 4.46904475,15.0580395 C5.24290531,15.0580395 6.4617357,15 6.90670552,15 C7.44840791,15 8.6672383,15.0580395 9.94410823,15.0580395 C10.1569199,15.0580395 10.311692,15 10.311692,14.8645744 C10.311692,14.7678418 10.2149594,14.7098023 10.0021478,14.7098023 C9.71195006,14.7098023 9.28632675,14.6711093 9.01547555,14.6324162 C8.43508013,14.5550302 8.31900105,14.1294069 8.26096151,13.5877045 C8.16422893,12.7558044 8.16422893,11.2274298 8.16422893,9.44755046 L8.16422893,1.5154797 L10.6018897,1.57351924 C12.3237295,1.61221227 12.8460853,2.15391466 12.8847784,2.65692403 L12.9041249,2.86973568 C12.9234714,3.15993339 12.9621644,3.25666596 13.1169365,3.25666596 C13.2330156,3.25666596 13.2717086,3.14058688 13.2910552,2.94712174 C13.2910552,2.44411237 13.3490947,1.1092029 13.3490947,0.702926107 C13.3490947,0.412728396 13.3297482,0.296649311 13.1943226,0.296649311 C13.1169365,0.296649311 12.9621644,0.33534234 12.6719667,0.393381882 C12.381769,0.43207491 11.9561457,0.490114452 11.3370572,0.490114452 L3.67583767,0.490114452 C3.03740271,0.490114452 2.30223517,0.451421424 1.74118627,0.393381882 C1.25752341,0.354688854 1.06405827,0.161223713 0.909286161,0.161223713 C0.793207077,0.161223713 0.735167534,0.277302797 0.677127992,0.52880748 C0.638434964,0.683579593 0.270851197,2.44411237 0.270851197,2.7536566 C0.270851197,2.96646825 0.309544225,3.06320082 0.444969823,3.06320082 C0.561048908,3.06320082 0.61908845,2.98581477 0.657781478,2.83104265 C0.696474506,2.67627054 0.793207077,2.44411237 0.986672217,2.15391466 C1.27686993,1.72829135 1.74118627,1.63155878 2.86328408,1.59286575 L5.74591468,1.5154797 L5.74591468,9.44755046 L5.74591468,9.44755046 Z M19.4432466,6.58426638 C19.3852071,6.58426638 19.3271675,6.54557335 19.3271675,6.44884078 L19.3271675,6.04256399 C19.3271675,3.10189385 19.3271675,2.56019146 19.3658606,1.94110301 C19.4045536,1.26397501 19.5593257,0.935084276 20.0816816,0.838351705 C20.3138398,0.799658677 20.4879584,0.780312163 20.6427305,0.780312163 C20.8748887,0.780312163 20.9909678,0.741619135 20.9909678,0.606193536 C20.9909678,0.470767938 20.8555422,0.43207491 20.584691,0.43207491 C19.8301769,0.43207491 18.6113465,0.490114452 18.1470302,0.490114452 C17.6246743,0.490114452 16.4058439,0.43207491 15.3611322,0.43207491 C15.090281,0.43207491 14.9548554,0.470767938 14.9548554,0.606193536 C14.9548554,0.741619135 15.0709345,0.780312163 15.2837461,0.780312163 C15.5545973,0.780312163 15.883488,0.799658677 16.0382602,0.838351705 C16.6766951,0.973777304 16.8314672,1.28332153 16.8701603,1.94110301 C16.9088533,2.56019146 16.9088533,3.10189385 16.9088533,6.04256399 L16.9088533,9.44755046 C16.9088533,11.2274298 16.9088533,12.7558044 16.8121207,13.568358 C16.7347347,14.1294069 16.6380021,14.5550302 16.2510718,14.6324162 C16.0769532,14.6711093 15.844795,14.7098023 15.5545973,14.7098023 C15.3224391,14.7098023 15.2450531,14.7678418 15.2450531,14.8645744 C15.2450531,15 15.3804787,15.0580395 15.6319834,15.0580395 C16.4058439,15.0580395 17.6246743,15 18.0696441,15 C18.6113465,15 19.8301769,15.0580395 21.0877003,15.0580395 C21.3198585,15.0580395 21.4746306,15 21.4746306,14.8645744 C21.4746306,14.7678418 21.377898,14.7098023 21.1650864,14.7098023 C20.8748887,14.7098023 20.4492654,14.6711093 20.1784142,14.6324162 C19.5980187,14.5550302 19.4819397,14.1294069 19.4239001,13.5877045 C19.3271675,12.7558044 19.3271675,11.2274298 19.3271675,9.44755046 L19.3271675,7.74505723 C19.3271675,7.64832466 19.3852071,7.62897814 19.4432466,7.62897814 L26.833615,7.62897814 C26.8916545,7.62897814 26.9496941,7.66767117 26.9496941,7.74505723 L26.9496941,9.44755046 C26.9496941,11.2274298 26.9496941,12.7558044 26.8529615,13.568358 C26.7755755,14.1294069 26.6788429,14.5550302 26.2919126,14.6324162 C26.117794,14.6711093 25.8856358,14.7098023 25.5954381,14.7098023 C25.3632799,14.7098023 25.2858939,14.7678418 25.2858939,14.8645744 C25.2858939,15 25.4213195,15.0580395 25.6921707,15.0580395 C26.4466847,15.0580395 27.6655151,15 28.1104849,15 C28.6521873,15 29.8710177,15.0580395 31.1285411,15.0580395 C31.3606993,15.0580395 31.5154714,15 31.5154714,14.8645744 C31.5154714,14.7678418 31.4187388,14.7098023 31.2059272,14.7098023 C30.9157295,14.7098023 30.4901062,14.6711093 30.219255,14.6324162 C29.6388595,14.5550302 29.5227805,14.1294069 29.4647409,13.5877045 C29.3680083,12.7558044 29.3680083,11.2274298 29.3680083,9.44755046 L29.3680083,6.04256399 C29.3680083,3.10189385 29.3680083,2.56019146 29.4067014,1.94110301 C29.4453944,1.26397501 29.6001665,0.935084276 30.1225224,0.838351705 C30.3546806,0.799658677 30.5287992,0.780312163 30.6835713,0.780312163 C30.9157295,0.780312163 31.0318086,0.741619135 31.0318086,0.606193536 C31.0318086,0.470767938 30.896383,0.43207491 30.6255318,0.43207491 C29.8710177,0.43207491 28.6521873,0.490114452 28.187871,0.490114452 C27.6655151,0.490114452 26.4466847,0.43207491 25.401973,0.43207491 C25.1311218,0.43207491 24.9956962,0.470767938 24.9956962,0.606193536 C24.9956962,0.741619135 25.1117753,0.780312163 25.3245869,0.780312163 C25.5954381,0.780312163 25.9243288,0.799658677 26.079101,0.838351705 C26.7175359,0.973777304 26.872308,1.28332153 26.9110011,1.94110301 C26.9496941,2.56019146 26.9496941,3.10189385 26.9496941,6.04256399 L26.9496941,6.44884078 C26.9496941,6.54557335 26.8916545,6.58426638 26.833615,6.58426638 L19.4432466,6.58426638 L19.4432466,6.58426638 Z M35.713665,9.44755046 C35.713665,11.2274298 35.713665,12.7558044 35.6169324,13.568358 C35.5395463,14.1294069 35.4428138,14.5550302 35.0558835,14.6324162 C34.8817649,14.6711093 34.6496067,14.7098023 34.359409,14.7098023 C34.1272508,14.7098023 34.0498648,14.7678418 34.0498648,14.8645744 C34.0498648,15 34.1852904,15.0580395 34.436795,15.0580395 C34.8237253,15.0580395 35.3267347,15.0193465 35.7717045,15.0193465 C36.2360208,15 36.6616442,15 36.8744558,15 C37.4548512,15 38.0545932,15.0193465 38.8864933,15.0580395 C39.7183934,15.0773861 40.7824516,15.1160791 42.2334402,15.1160791 C42.9686077,15.1160791 43.1427264,15.1160791 43.278152,14.6130697 C43.3748845,14.2261394 43.5296566,12.9105765 43.5296566,12.4656067 C43.5296566,12.2721415 43.5296566,12.1173694 43.3748845,12.1173694 C43.2394589,12.1173694 43.2007659,12.1947555 43.1620729,12.4075671 C43.0266473,13.2007742 42.7944891,13.607051 42.2914797,13.8392092 C41.7884704,14.0713673 40.9759168,14.0713673 40.4729074,14.0713673 C38.499563,14.0713673 38.1900188,13.7811696 38.1513257,12.4462601 C38.1319792,11.8852112 38.1513257,10.1053319 38.1513257,9.44755046 L38.1513257,7.91917585 C38.1513257,7.80309677 38.1706722,7.72571071 38.2674048,7.72571071 C38.7317212,7.72571071 40.647026,7.74505723 41.0146098,7.78375025 C41.7304308,7.86113631 42.001282,8.15133402 42.0980146,8.5382643 C42.1560541,8.78976899 42.1560541,9.04127367 42.1754007,9.23473881 C42.1754007,9.33147138 42.2140937,9.40885744 42.3495193,9.40885744 C42.5236379,9.40885744 42.5236379,9.19604578 42.5236379,9.04127367 C42.5236379,8.90584807 42.5816775,8.13198751 42.601024,7.74505723 C42.67841,6.75838501 42.7557961,6.44884078 42.7557961,6.3327617 C42.7557961,6.21668261 42.6977565,6.17798959 42.6203705,6.17798959 C42.5236379,6.17798959 42.4462519,6.27472216 42.3108263,6.42949427 C42.1367076,6.62295941 41.8465099,6.68099895 41.3821936,6.71969198 C40.9372238,6.75838501 38.7123746,6.75838501 38.2867513,6.75838501 C38.1706722,6.75838501 38.1513257,6.68099895 38.1513257,6.54557335 L38.1513257,1.6509053 C38.1513257,1.5154797 38.1900188,1.45744016 38.2867513,1.45744016 C38.6736816,1.45744016 40.7050656,1.49613318 41.0339563,1.53482621 C42.001282,1.6509053 42.1947472,1.88306346 42.3301728,2.23130072 C42.4269053,2.46345889 42.4462519,2.79234963 42.4462519,2.92777522 C42.4462519,3.10189385 42.4849449,3.19862642 42.6203705,3.19862642 C42.7557961,3.19862642 42.7944891,3.08254734 42.8138356,2.98581477 C42.8525287,2.7536566 42.8912217,1.90240998 42.9105682,1.70894484 C42.9686077,0.819005191 43.0653403,0.586847022 43.0653403,0.451421424 C43.0653403,0.354688854 43.0459938,0.277302797 42.9492612,0.277302797 C42.8525287,0.277302797 42.7364496,0.33534234 42.639717,0.354688854 C42.4849449,0.393381882 42.1754007,0.43207491 41.8078169,0.470767938 C41.4402331,0.490114452 37.5902768,0.490114452 36.9711884,0.490114452 C36.7003372,0.490114452 36.2553674,0.470767938 35.752358,0.451421424 C35.2686951,0.451421424 34.7076462,0.43207491 34.1852904,0.43207491 C33.8950926,0.43207491 33.759667,0.470767938 33.759667,0.606193536 C33.759667,0.741619135 33.8757461,0.780312163 34.0885578,0.780312163 C34.359409,0.780312163 34.6882997,0.799658677 34.8430718,0.838351705 C35.4815068,0.973777304 35.6362789,1.28332153 35.6749719,1.94110301 C35.713665,2.56019146 35.713665,3.10189385 35.713665,6.04256399 L35.713665,9.44755046 L35.713665,9.44755046 Z"></path>
	</g>
</svg>