<?xml version="1.0" encoding="UTF-8" standalone="no"?>
<svg width="204px" height="28px" viewBox="0 0 204 28" version="1.1" xmlns="http://www.w3.org/2000/svg" xmlns:xlink="http://www.w3.org/1999/xlink">
    <title>URI Today</title>
    <defs></defs>
    <g id="URI-Today-wrapper" stroke="none" stroke-width="1" fill="none" fill-rule="evenodd">
        <path d="M4.114,16.222 C4.114,21.152 5.406,23.668 7.14,25.232 C9.622,27.476 12.886,27.578 14.688,27.578 C16.898,27.578 19.346,27.204 21.76,25.13 C24.616,22.682 24.99,18.67 24.99,14.896 L24.99,11.258 C24.99,6.09 24.99,5.138 25.058,4.05 C25.126,2.86 25.398,2.282 26.316,2.112 C26.724,2.044 26.928,2.01 27.302,2.01 C27.71,2.01 27.914,1.942 27.914,1.704 C27.914,1.466 27.676,1.398 27.2,1.398 C25.874,1.398 23.732,1.5 23.324,1.5 C23.29,1.5 21.148,1.398 19.414,1.398 C18.938,1.398 18.7,1.466 18.7,1.704 C18.7,1.942 18.904,2.01 19.278,2.01 C19.652,2.01 20.23,2.044 20.502,2.112 C21.624,2.35 21.896,2.894 21.964,4.05 C22.032,5.138 22.032,6.09 22.032,11.258 L22.032,15.508 C22.032,19.01 21.93,22.07 20.06,23.94 C18.7,25.3 16.864,25.776 15.368,25.776 C14.212,25.776 12.648,25.64 11.118,24.382 C9.452,23.022 8.466,20.948 8.466,16.018 L8.466,11.258 C8.466,6.09 8.466,5.138 8.534,4.05 C8.602,2.86 8.874,2.282 9.792,2.112 C10.2,2.044 10.404,2.01 10.778,2.01 C11.118,2.01 11.322,1.942 11.322,1.704 C11.322,1.466 11.084,1.398 10.574,1.398 C9.35,1.398 7.208,1.5 6.392,1.5 C5.372,1.5 3.23,1.398 1.428,1.398 C0.918,1.398 0.68,1.466 0.68,1.704 C0.68,1.942 0.884,2.01 1.258,2.01 C1.734,2.01 2.312,2.044 2.584,2.112 C3.706,2.35 3.978,2.894 4.046,4.05 C4.114,5.138 4.114,6.09 4.114,11.258 L4.114,16.222 Z M34.544,17.242 C34.544,20.37 34.544,23.056 34.374,24.484 C34.238,25.47 34.068,26.218 33.388,26.354 C33.082,26.422 32.674,26.49 32.164,26.49 C31.756,26.49 31.62,26.592 31.62,26.762 C31.62,27 31.858,27.102 32.3,27.102 C33.66,27.102 35.802,27 36.448,27 C36.958,27 39.474,27.102 41.446,27.102 C41.888,27.102 42.126,27 42.126,26.762 C42.126,26.592 41.99,26.49 41.718,26.49 C41.31,26.49 40.562,26.422 40.052,26.354 C39.032,26.218 38.828,25.47 38.726,24.484 C38.556,23.056 38.556,20.37 38.556,17.208 L38.556,16.732 C38.556,16.528 38.658,16.46 38.828,16.46 L41.786,16.528 C42.024,16.528 42.228,16.562 42.398,16.766 C42.84,17.276 44.404,19.588 45.764,21.458 C47.668,24.076 48.96,25.674 50.422,26.456 C51.306,26.932 52.156,27.102 54.06,27.102 L57.29,27.102 C57.698,27.102 57.936,27.034 57.936,26.762 C57.936,26.592 57.8,26.49 57.528,26.49 C57.256,26.49 56.95,26.456 56.576,26.388 C56.066,26.286 54.672,26.048 52.768,24.076 C50.762,21.968 48.416,18.942 45.39,15.134 C48.824,12.346 49.878,10.034 49.878,7.518 C49.878,5.24 48.518,3.506 47.566,2.86 C45.73,1.602 43.452,1.398 41.31,1.398 C40.256,1.398 37.672,1.5 36.516,1.5 C35.802,1.5 33.66,1.398 31.858,1.398 C31.348,1.398 31.11,1.466 31.11,1.704 C31.11,1.942 31.314,2.01 31.688,2.01 C32.164,2.01 32.742,2.044 33.014,2.112 C34.136,2.35 34.408,2.894 34.476,4.05 C34.544,5.138 34.544,6.09 34.544,11.258 L34.544,17.242 Z M38.556,3.608 C38.556,3.336 38.624,3.2 38.862,3.132 C39.202,3.03 39.814,2.996 40.664,2.996 C42.67,2.996 45.866,4.39 45.866,9.218 C45.866,12.006 44.88,13.57 43.86,14.318 C43.248,14.76 42.806,14.896 41.446,14.896 C40.596,14.896 39.576,14.794 38.862,14.556 C38.624,14.454 38.556,14.318 38.556,13.944 L38.556,3.608 Z M60.214,17.242 C60.214,20.54 60.214,23.226 60.044,24.654 C59.942,25.64 59.738,26.218 59.058,26.354 C58.752,26.422 58.344,26.49 57.834,26.49 C57.426,26.49 57.29,26.592 57.29,26.762 C57.29,27 57.528,27.102 57.97,27.102 C59.33,27.102 61.472,27 62.254,27 C63.172,27 65.314,27.102 67.558,27.102 C67.932,27.102 68.204,27 68.204,26.762 C68.204,26.592 68.034,26.49 67.66,26.49 C67.15,26.49 66.402,26.422 65.926,26.354 C64.906,26.218 64.668,25.606 64.566,24.688 C64.43,23.226 64.43,20.54 64.43,17.242 L64.43,11.258 C64.43,6.09 64.43,5.138 64.498,4.05 C64.566,2.86 64.838,2.282 65.756,2.112 C66.164,2.044 66.436,2.01 66.776,2.01 C67.116,2.01 67.32,1.942 67.32,1.67 C67.32,1.466 67.048,1.398 66.606,1.398 C65.314,1.398 63.308,1.5 62.458,1.5 C61.472,1.5 59.33,1.398 58.038,1.398 C57.494,1.398 57.222,1.466 57.222,1.67 C57.222,1.942 57.426,2.01 57.766,2.01 C58.174,2.01 58.616,2.044 58.99,2.146 C59.738,2.316 60.078,2.894 60.146,4.05 C60.214,5.138 60.214,6.09 60.214,11.258 L60.214,17.242 Z M90.304,17.242 C90.304,20.37 90.304,23.056 90.134,24.484 C90.032,25.47 89.828,26.218 89.148,26.354 C88.842,26.422 88.434,26.49 87.924,26.49 C87.516,26.49 87.38,26.592 87.38,26.762 C87.38,27 87.618,27.102 88.06,27.102 C89.42,27.102 91.562,27 92.344,27 C93.296,27 95.438,27.102 97.682,27.102 C98.056,27.102 98.328,27 98.328,26.762 C98.328,26.592 98.158,26.49 97.784,26.49 C97.274,26.49 96.526,26.422 96.05,26.354 C95.03,26.218 94.826,25.47 94.724,24.518 C94.554,23.056 94.554,20.37 94.554,17.242 L94.554,3.302 L98.838,3.404 C101.864,3.472 102.782,4.424 102.85,5.308 L102.884,5.682 C102.918,6.192 102.986,6.362 103.258,6.362 C103.462,6.362 103.53,6.158 103.564,5.818 C103.564,4.934 103.666,2.588 103.666,1.874 C103.666,1.364 103.632,1.16 103.394,1.16 C103.258,1.16 102.986,1.228 102.476,1.33 C101.966,1.398 101.218,1.5 100.13,1.5 L86.666,1.5 C85.544,1.5 84.252,1.432 83.266,1.33 C82.416,1.262 82.076,0.922 81.804,0.922 C81.6,0.922 81.498,1.126 81.396,1.568 C81.328,1.84 80.682,4.934 80.682,5.478 C80.682,5.852 80.75,6.022 80.988,6.022 C81.192,6.022 81.294,5.886 81.362,5.614 C81.43,5.342 81.6,4.934 81.94,4.424 C82.45,3.676 83.266,3.506 85.238,3.438 L90.304,3.302 L90.304,17.242 Z M118.218,27.476 C125.936,27.476 130.764,22.274 130.764,15.644 C130.764,9.014 126.072,4.832 118.524,4.832 C109.446,4.832 105.978,11.224 105.978,16.154 C105.978,21.288 109.514,27.476 118.218,27.476 L118.218,27.476 Z M119.442,25.912 C113.798,25.912 110.398,21.22 110.398,15.27 C110.398,8.13 114.308,6.362 117.64,6.362 C122.468,6.362 126.31,10.306 126.31,16.698 C126.31,24.926 121.55,25.912 119.442,25.912 L119.442,25.912 Z M137.36,18.704 C137.36,21.356 137.36,23.634 137.224,24.858 C137.122,25.708 136.952,26.252 136.34,26.388 C136.068,26.456 135.728,26.49 135.286,26.49 C134.912,26.49 134.81,26.66 134.81,26.796 C134.81,27 135.014,27.102 135.388,27.102 C136,27.102 136.748,27.068 137.462,27.034 C138.176,27.034 138.822,27 139.162,27 C139.91,27 140.998,27.068 142.188,27.17 C143.378,27.238 144.67,27.34 145.758,27.34 C151.266,27.34 154.428,25.3 155.788,23.94 C157.488,22.274 159.052,19.52 159.052,15.882 C159.052,12.448 157.726,10.034 156.23,8.538 C152.966,5.24 147.934,5.24 144.194,5.24 C142.392,5.24 140.25,5.308 139.332,5.308 C138.482,5.308 136.578,5.24 135.014,5.24 C134.572,5.24 134.334,5.308 134.334,5.512 C134.334,5.716 134.538,5.818 134.844,5.818 C135.286,5.818 135.796,5.852 136.034,5.92 C136.986,6.192 137.258,6.498 137.326,7.484 C137.36,8.402 137.36,9.218 137.36,13.604 L137.36,18.704 Z M141.372,13.162 C141.372,10.884 141.372,8.504 141.406,7.518 C141.406,7.178 141.508,7.042 141.78,6.94 C142.018,6.804 143.004,6.736 143.616,6.736 C145.962,6.736 149.226,7.042 151.98,9.49 C153.306,10.646 154.768,13.026 154.768,16.698 C154.768,19.69 154.156,22.274 152.218,23.872 C150.416,25.368 148.41,25.844 145.69,25.844 C143.344,25.844 142.154,25.232 141.78,24.688 C141.542,24.382 141.474,23.362 141.44,22.648 C141.406,22.07 141.372,19.86 141.372,16.8 L141.372,13.162 Z M173.944,19.792 C174.08,19.792 174.182,19.826 174.25,19.996 L176.562,25.844 C176.698,26.184 176.494,26.456 176.29,26.49 C175.984,26.524 175.916,26.626 175.916,26.796 C175.916,27 176.256,27 176.8,27.034 C179.316,27.102 181.492,27.102 182.546,27.102 C183.668,27.102 183.838,27.034 183.838,26.796 C183.838,26.592 183.702,26.49 183.43,26.49 C183.09,26.49 182.75,26.456 182.308,26.388 C181.764,26.286 180.914,25.912 179.758,23.294 C177.854,18.908 172.856,7.212 172.142,5.614 C171.836,4.968 171.7,4.696 171.258,4.696 C170.952,4.696 170.714,5.036 170.374,5.852 L162.554,23.906 C161.942,25.368 161.432,26.252 160.072,26.456 C159.8,26.456 159.46,26.49 159.188,26.49 C158.95,26.49 158.848,26.626 158.848,26.796 C158.848,27.034 159.018,27.102 159.392,27.102 C160.956,27.102 162.554,27 162.86,27 C163.812,27 165.206,27.102 166.192,27.102 C166.498,27.102 166.668,27.034 166.668,26.796 C166.668,26.626 166.6,26.49 166.226,26.49 L165.784,26.49 C164.866,26.49 164.594,26.184 164.594,25.674 C164.594,25.334 164.73,24.62 165.036,23.906 L166.634,19.996 C166.702,19.826 166.736,19.792 166.906,19.792 L173.944,19.792 Z M167.518,18.194 C167.416,18.194 167.348,18.126 167.416,17.99 L170.306,10.782 C170.34,10.68 170.374,10.51 170.476,10.51 C170.544,10.51 170.578,10.68 170.612,10.782 L173.434,18.024 C173.468,18.126 173.434,18.194 173.298,18.194 L167.518,18.194 Z M190.332,21.968 C190.332,22.444 190.332,23.634 190.23,24.858 C190.162,25.708 189.924,26.252 189.312,26.388 C189.04,26.456 188.666,26.49 188.258,26.49 C187.918,26.49 187.782,26.66 187.782,26.796 C187.782,27.034 188.02,27.102 188.428,27.102 C189.55,27.102 191.556,27 192.304,27 C193.12,27 195.126,27.102 196.996,27.102 C197.404,27.102 197.642,27 197.642,26.796 C197.642,26.66 197.472,26.49 197.132,26.49 C196.724,26.49 196.078,26.456 195.636,26.388 C194.752,26.252 194.48,25.708 194.412,24.858 C194.344,23.634 194.344,22.444 194.344,21.968 L194.344,19.656 C194.344,18.704 194.276,17.82 194.718,16.766 C195.262,15.542 199.546,8.674 200.532,7.518 C201.178,6.736 201.45,6.464 202.096,6.158 C202.538,5.954 203.082,5.818 203.388,5.818 C203.728,5.818 203.966,5.682 203.966,5.478 C203.966,5.308 203.762,5.24 203.422,5.24 C202.844,5.24 200.872,5.308 200.226,5.308 C199.342,5.308 198.288,5.24 197.302,5.24 C196.962,5.24 196.792,5.308 196.792,5.512 C196.792,5.75 197.064,5.784 197.336,5.852 C197.846,5.954 197.982,6.226 197.982,6.498 C197.982,6.872 197.846,7.382 197.54,8.028 C197.098,8.912 193.46,15.1 193.086,15.78 C192.576,14.964 188.666,8.198 188.122,7.314 C187.884,6.906 187.748,6.566 187.748,6.328 C187.748,6.09 187.918,5.954 188.156,5.886 C188.632,5.75 188.836,5.75 188.836,5.512 C188.836,5.308 188.666,5.24 188.394,5.24 C187.034,5.24 185.64,5.308 184.994,5.308 C184.008,5.308 181.764,5.24 181.254,5.24 C180.88,5.24 180.676,5.308 180.676,5.512 C180.676,5.716 180.88,5.818 181.118,5.818 C181.492,5.818 182.002,5.988 182.376,6.192 C182.954,6.498 183.566,7.178 184.314,8.232 C185.368,9.762 189.448,16.12 189.652,16.562 C190.06,17.412 190.332,18.024 190.332,19.588 L190.332,21.968 Z" id="URI-Today" fill="#12284A"></path>
    </g>
</svg>