<?xml version="1.0" encoding="UTF-8" standalone="no"?>
<svg width="47px" height="46px" viewBox="0 0 47 46" version="1.1" xmlns="http://www.w3.org/2000/svg" xmlns:xlink="http://www.w3.org/1999/xlink">
    <title>Zoom</title>
    <defs></defs>
    <g id="bounds" stroke="none" stroke-width="1" fill="none" fill-rule="evenodd">
        <g id="icon" fill="#000000">
            <path d="M16.1735402,36.99777 L9.16560084,44.0057094 C7.17545587,45.9958544 3.94525389,45.9923149 1.95978484,44.0068458 C-0.0297324732,42.0173285 -0.0361961883,38.7981473 1.9609213,36.8010298 L8.97717017,29.784781 C10.7482349,32.7381119 13.2246526,35.2200693 16.1735402,36.99777 Z" id="Combined-Shape"></path>
            <path d="M27,38 C37.4934102,38 46,29.4934102 46,19 C46,8.50658975 37.4934102,0 27,0 C16.5065898,0 8,8.50658975 8,19 C8,29.4934102 16.5065898,38 27,38 Z M27,35 C35.836556,35 43,27.836556 43,19 C43,10.163444 35.836556,3 27,3 C18.163444,3 11,10.163444 11,19 C11,27.836556 18.163444,35 27,35 Z" id="Combined-Shape"></path>
            <g id="Group-2" transform="translate(16.000000, 8.000000)">
                <rect id="Rectangle" x="8" y="0" width="6" height="22"></rect>
                <polyline id="Rectangle" points="22 8 22 14 -7.10542736e-15 14 -7.10542736e-15 8 22 8"></polyline>
            </g>
        </g>
    </g>
</svg>